<svg width="30" height="30" viewBox="0 0 30 30" fill="none" xmlns="http://www.w3.org/2000/svg">
<path fill-rule="evenodd" clip-rule="evenodd" d="M13.0758 1.5625H16.9242C18.9284 1.56249 20.4996 1.56249 21.7549 1.68183C23.0343 1.80348 24.0819 2.05571 25.0055 2.62165C25.9726 3.2143 26.7857 4.02742 27.3784 4.99454C27.9443 5.91807 28.1965 6.9657 28.3182 8.24513C28.4375 9.50036 28.4375 11.0716 28.4375 13.0758V14.4098C28.4375 15.8364 28.4375 16.955 28.3759 17.8585C28.3131 18.7779 28.1835 19.543 27.8904 20.2505C27.1609 22.0117 25.7617 23.4109 24.0005 24.1404C22.9943 24.5572 21.8482 24.6496 20.2791 24.6767C19.7303 24.6861 19.3826 24.6931 19.1176 24.7224C18.87 24.7498 18.774 24.79 18.7178 24.8227C18.6585 24.8572 18.5778 24.92 18.4376 25.1123C18.2859 25.3204 18.1145 25.6081 17.8427 26.0673L17.1651 27.2121C16.1981 28.8458 13.8018 28.8458 12.8349 27.2121L12.1572 26.0673C11.8854 25.6081 11.714 25.3204 11.5623 25.1123C11.4221 24.92 11.3414 24.8572 11.2822 24.8227C11.226 24.79 11.13 24.7498 10.8824 24.7224C10.6173 24.6931 10.2697 24.6861 9.72082 24.6767C8.15172 24.6496 7.00568 24.5572 5.99946 24.1404C4.23832 23.4109 2.8391 22.0117 2.10962 20.2505C1.81654 19.543 1.68687 18.7779 1.62414 17.8585C1.56249 16.955 1.5625 15.8364 1.5625 14.4098L1.5625 13.0758C1.56249 11.0716 1.56249 9.50037 1.68183 8.24513C1.80348 6.9657 2.05571 5.91807 2.62165 4.99454C3.2143 4.02742 4.02742 3.2143 4.99454 2.62165C5.91807 2.05571 6.9657 1.80348 8.24513 1.68183C9.50037 1.56249 11.0716 1.56249 13.0758 1.5625ZM8.42261 3.54842C7.28042 3.65702 6.55363 3.86529 5.97423 4.22035C5.2594 4.6584 4.6584 5.2594 4.22035 5.97423C3.86529 6.55363 3.65702 7.28042 3.54842 8.42261C3.43849 9.57875 3.4375 11.061 3.4375 13.125V14.375C3.4375 15.8439 3.43801 16.8986 3.49479 17.7309C3.55101 18.5548 3.65922 19.092 3.84189 19.533C4.38108 20.8347 5.41528 21.8689 6.717 22.4081C7.36154 22.6751 8.18383 22.7749 9.75312 22.802L9.7929 22.8026C10.2904 22.8112 10.7264 22.8187 11.0887 22.8588C11.4781 22.9019 11.8589 22.9891 12.2248 23.2019C12.5877 23.4129 12.8494 23.6949 13.0776 24.0079C13.2884 24.2972 13.5051 24.6633 13.7505 25.0779L14.4484 26.2571C14.6893 26.6642 15.3106 26.6642 15.5515 26.2571L16.2495 25.0779C16.4949 24.6633 16.7115 24.2972 16.9224 24.0079C17.1505 23.6949 17.4123 23.4129 17.7751 23.2019C18.1411 22.9891 18.5219 22.9019 18.9112 22.8588C19.2736 22.8187 19.7096 22.8112 20.207 22.8026L20.2468 22.802C21.8161 22.7749 22.6385 22.6751 23.283 22.4081C24.5847 21.8689 25.6189 20.8347 26.1581 19.533C26.3408 19.092 26.449 18.5548 26.5052 17.7309C26.562 16.8986 26.5625 15.8439 26.5625 14.375V13.125C26.5625 11.061 26.5615 9.57875 26.4516 8.42261C26.343 7.28042 26.1347 6.55363 25.7796 5.97423C25.3416 5.2594 24.7406 4.6584 24.0258 4.22035C23.4464 3.86529 22.7196 3.65702 21.5774 3.54842C20.4212 3.43849 18.939 3.4375 16.875 3.4375H13.125C11.061 3.4375 9.57875 3.43849 8.42261 3.54842ZM9.0625 11.25C9.0625 10.7322 9.48223 10.3125 10 10.3125H20C20.5178 10.3125 20.9375 10.7322 20.9375 11.25C20.9375 11.7678 20.5178 12.1875 20 12.1875H10C9.48223 12.1875 9.0625 11.7678 9.0625 11.25ZM9.0625 15.625C9.0625 15.1072 9.48223 14.6875 10 14.6875H16.875C17.3928 14.6875 17.8125 15.1072 17.8125 15.625C17.8125 16.1428 17.3928 16.5625 16.875 16.5625H10C9.48223 16.5625 9.0625 16.1428 9.0625 15.625Z" fill="#1E232C"/>
</svg>
