<svg width="30" height="30" viewBox="0 0 30 30" fill="none" xmlns="http://www.w3.org/2000/svg">
<path fill-rule="evenodd" clip-rule="evenodd" d="M15 3.4375C8.61421 3.4375 3.4375 8.61421 3.4375 15C3.4375 21.3858 8.61421 26.5625 15 26.5625C21.3858 26.5625 26.5625 21.3858 26.5625 15C26.5625 8.61421 21.3858 3.4375 15 3.4375ZM1.5625 15C1.5625 7.57867 7.57867 1.5625 15 1.5625C22.4213 1.5625 28.4375 7.57867 28.4375 15C28.4375 22.4213 22.4213 28.4375 15 28.4375C7.57867 28.4375 1.5625 22.4213 1.5625 15ZM15 9.6875C14.2233 9.6875 13.5938 10.3171 13.5938 11.0938C13.5938 11.6115 13.174 12.0312 12.6562 12.0312C12.1385 12.0312 11.7188 11.6115 11.7188 11.0938C11.7188 9.28157 13.1878 7.8125 15 7.8125C16.8122 7.8125 18.2812 9.28157 18.2812 11.0938C18.2812 12.2979 17.6321 13.3495 16.6691 13.9192C16.4231 14.0647 16.2201 14.2236 16.0878 14.3795C15.9594 14.5308 15.9375 14.6295 15.9375 14.6875V16.25C15.9375 16.7678 15.5178 17.1875 15 17.1875C14.4822 17.1875 14.0625 16.7678 14.0625 16.25V14.6875C14.0625 14.0551 14.3393 13.542 14.6582 13.1663C14.9733 12.795 15.3661 12.5115 15.7143 12.3055C16.1305 12.0592 16.4062 11.6082 16.4062 11.0938C16.4062 10.3171 15.7767 9.6875 15 9.6875ZM15 21.25C15.6904 21.25 16.25 20.6904 16.25 20C16.25 19.3096 15.6904 18.75 15 18.75C14.3096 18.75 13.75 19.3096 13.75 20C13.75 20.6904 14.3096 21.25 15 21.25Z" fill="#1E232C"/>
</svg>
