<svg width="30" height="30" viewBox="0 0 30 30" fill="none" xmlns="http://www.w3.org/2000/svg">
<path fill-rule="evenodd" clip-rule="evenodd" d="M15 1.5625C9.64979 1.5625 5.31255 5.89974 5.31255 11.25V12.1301C5.31255 13.0013 5.05469 13.8529 4.57146 14.5778L3.13571 16.7314C1.46934 19.231 2.74147 22.6285 5.63971 23.4189C6.58423 23.6765 7.53672 23.8944 8.49472 24.0726L8.4971 24.079C9.45834 26.6439 12.0275 28.4375 15 28.4375C17.9725 28.4375 20.5416 26.6439 21.5028 24.079L21.5052 24.0726C22.4633 23.8944 23.4158 23.6765 24.3604 23.4189C27.2586 22.6285 28.5308 19.231 26.8644 16.7314L25.4286 14.5778C24.9454 13.8529 24.6875 13.0013 24.6875 12.1301V11.25C24.6875 5.89974 20.3503 1.5625 15 1.5625ZM19.2206 24.4212C16.4169 24.7562 13.5831 24.7562 10.7794 24.4212C11.6681 25.6981 13.2138 26.5625 15 26.5625C16.7862 26.5625 18.3319 25.6981 19.2206 24.4212ZM7.18755 11.25C7.18755 6.93528 10.6853 3.4375 15 3.4375C19.3148 3.4375 22.8125 6.93528 22.8125 11.25V12.1301C22.8125 13.3715 23.18 14.585 23.8685 15.6178L25.3043 17.7715C26.2608 19.2062 25.5306 21.1563 23.867 21.61C18.0617 23.1933 11.9384 23.1933 6.13305 21.61C4.46952 21.1563 3.73933 19.2062 4.6958 17.7715L6.13155 15.6178C6.82012 14.585 7.18755 13.3715 7.18755 12.1301V11.25Z" fill="#1E232C"/>
</svg>
