<svg width="30" height="30" viewBox="0 0 30 30" fill="none" xmlns="http://www.w3.org/2000/svg">
<path d="M2.50073 19.9998C2.50073 16.4642 2.50073 14.6965 3.59908 13.5981C4.69743 12.4998 6.4652 12.4998 10.0007 12.4998H20.0007C23.5363 12.4998 25.304 12.4998 26.4024 13.5981C27.5007 14.6965 27.5007 16.4642 27.5007 19.9998C27.5007 23.5353 27.5007 25.3031 26.4024 26.4014C25.304 27.4998 23.5363 27.4998 20.0007 27.4998H10.0007C6.4652 27.4998 4.69743 27.4998 3.59908 26.4014C2.50073 25.3031 2.50073 23.5353 2.50073 19.9998Z" stroke="#1E232C" stroke-width="1.875"/>
<path d="M15 17.5002V22.5002" stroke="#1E232C" stroke-width="1.875" stroke-linecap="round"/>
<path d="M7.5 12.5002V10.0002C7.5 5.85811 10.8579 2.50024 15 2.50024C19.1421 2.50024 22.5 5.85811 22.5 10.0002V12.5002" stroke="#1E232C" stroke-width="1.875" stroke-linecap="round"/>
</svg>
