<svg width="30" height="30" viewBox="0 0 30 30" fill="none" xmlns="http://www.w3.org/2000/svg">
<path d="M7.8569 22.5C4.89823 22.5 2.49976 20.1297 2.49976 17.2059C2.49976 14.282 4.89823 11.9118 7.8569 11.9118C8.21205 11.9118 8.55913 11.9459 8.89496 12.0111M17.9759 8.78401C18.7207 8.52389 19.5221 8.38235 20.3569 8.38235C21.1752 8.38235 21.9614 8.51835 22.6936 8.76872M8.89496 12.0111C8.60858 11.2472 8.45214 10.4211 8.45214 9.55882C8.45214 5.66034 11.6501 2.5 15.595 2.5C19.2696 2.5 22.2961 5.24214 22.6936 8.76872M8.89496 12.0111C9.60049 12.148 10.2564 12.4218 10.8331 12.8033M22.6936 8.76872C25.491 9.7253 27.4998 12.3514 27.4998 15.4412C27.4998 18.8249 25.0905 21.6526 21.8748 22.3403" stroke="#1E232C" stroke-width="1.875" stroke-linecap="round"/>
<path d="M10.6252 21.25C10.6252 19.4822 10.6252 18.5983 11.1744 18.0492C11.7236 17.5 12.6075 17.5 14.3752 17.5H15.6252C17.393 17.5 18.2769 17.5 18.8261 18.0492C19.3752 18.5983 19.3752 19.4822 19.3752 21.25V23.75C19.3752 25.5178 19.3752 26.4017 18.8261 26.9508C18.2769 27.5 17.393 27.5 15.6252 27.5H14.3752C12.6075 27.5 11.7236 27.5 11.1744 26.9508C10.6252 26.4017 10.6252 25.5178 10.6252 23.75V21.25Z" stroke="#1E232C" stroke-width="1.875"/>
<path d="M13.7498 22.5H16.2498" stroke="#1E232C" stroke-width="1.875" stroke-linecap="round" stroke-linejoin="round"/>
</svg>
