<svg width="30" height="30" viewBox="0 0 30 30" fill="none" xmlns="http://www.w3.org/2000/svg">
<path fill-rule="evenodd" clip-rule="evenodd" d="M20.4924 2.52652L20.5755 2.5488C21.9497 2.91701 23.0387 3.2088 23.8953 3.51822C24.7715 3.83473 25.486 4.1968 26.0746 4.74809C26.9317 5.55085 27.5315 6.58974 27.7981 7.73339C27.9813 8.51878 27.9376 9.31857 27.7736 10.2356C27.6133 11.1322 27.3215 12.2212 26.9532 13.5955L26.2839 16.0934C25.9157 17.4675 25.6239 18.5565 25.3145 19.4131C24.998 20.2892 24.6359 21.0037 24.0846 21.5923C23.3074 22.4222 22.3088 23.0108 21.2082 23.2894C20.8866 24.0267 20.417 24.6942 19.8246 25.2491C19.236 25.8004 18.5215 26.1624 17.6453 26.4789C16.7888 26.7884 15.6998 27.0801 14.3256 27.4483L14.2425 27.4706C12.8683 27.8388 11.7792 28.1307 10.8827 28.291C9.96562 28.455 9.16583 28.4987 8.38044 28.3155C7.23679 28.0489 6.1979 27.4491 5.39513 26.592C4.84384 26.0034 4.48178 25.2889 4.16527 24.4127C3.85585 23.5561 3.56405 22.4671 3.19584 21.0929L2.52653 18.595C2.1583 17.2208 1.86649 16.1318 1.70618 15.2352C1.5422 14.3182 1.49851 13.5184 1.68164 12.733C1.9483 11.5894 2.54811 10.5505 3.40521 9.74771C3.99381 9.19642 4.7083 8.83436 5.58447 8.51785C6.44103 8.20842 7.53005 7.91663 8.90426 7.54842L8.94582 7.53728C9.2764 7.4487 9.58918 7.36504 9.88531 7.2868C10.3748 5.53789 10.8056 4.30157 11.6451 3.40521C12.4479 2.54811 13.4868 1.9483 14.6304 1.68164C15.4158 1.49851 16.2156 1.5422 17.1327 1.70618C18.0292 1.86649 19.1182 2.15829 20.4924 2.52652ZM9.31877 9.3785C7.95267 9.74463 6.97381 10.0096 6.2215 10.2813C5.45973 10.5565 5.01244 10.8113 4.68694 11.1162C4.10051 11.6655 3.69011 12.3763 3.50766 13.1588C3.40639 13.5931 3.40933 14.1079 3.5519 14.9052C3.69653 15.714 3.96694 16.7262 4.34877 18.1512L4.99582 20.5661C5.37765 21.9911 5.64958 23.0029 5.92874 23.7757C6.20392 24.5374 6.45876 24.9847 6.76363 25.3102C7.31289 25.8967 8.02371 26.3071 8.8062 26.4895C9.24053 26.5908 9.75531 26.5878 10.5526 26.4453C11.3614 26.3006 12.3737 26.0302 13.7987 25.6484C15.2237 25.2666 16.2355 24.9946 17.0083 24.7155C17.77 24.4403 18.2173 24.1854 18.5428 23.8806C18.7148 23.7195 18.8716 23.5446 19.012 23.3581C18.7882 23.3266 18.5579 23.2863 18.3196 23.2389C17.4798 23.0719 16.4711 22.8016 15.226 22.468L15.1543 22.4487C13.78 22.0805 12.691 21.7887 11.8345 21.4793C10.9583 21.1628 10.2438 20.8007 9.65521 20.2495C8.79811 19.4467 8.1983 18.4078 7.93164 17.2642C7.74851 16.4788 7.7922 15.679 7.95618 14.7619C8.11649 13.8654 8.4083 12.7764 8.77653 11.4022L9.31877 9.3785ZM16.8026 3.5519C16.0053 3.40933 15.4905 3.40639 15.0562 3.50766C14.2737 3.69011 13.5629 4.10051 13.0136 4.68694C12.4685 5.26898 12.133 6.16815 11.5496 8.30403C11.4548 8.65117 11.3546 9.02528 11.2458 9.4311L10.5988 11.8459C10.2169 13.2709 9.94654 14.2831 9.8019 15.092C9.65933 15.8893 9.65639 16.4041 9.75766 16.8384C9.94011 17.6209 10.3505 18.3317 10.9369 18.881C11.2624 19.1858 11.7097 19.4407 12.4715 19.7159C13.2443 19.995 14.2561 20.2669 15.6811 20.6488C16.9629 20.9922 17.9128 21.2463 18.6853 21.3999C19.4543 21.5528 19.9762 21.5903 20.404 21.5376C20.497 21.5261 20.5864 21.5102 20.6736 21.4899C21.4561 21.3074 22.1669 20.897 22.7161 20.3106C23.021 19.9851 23.2759 19.5378 23.551 18.776C23.8302 18.0033 24.1021 16.9915 24.484 15.5664L25.131 13.1516C25.5128 11.7266 25.7832 10.7144 25.9279 9.90557C26.0704 9.10826 26.0734 8.59348 25.9721 8.15916C25.7897 7.37666 25.3793 6.66584 24.7928 6.11658C24.4673 5.81172 24.02 5.55688 23.2583 5.28169C22.4855 5.00253 21.4737 4.7306 20.0487 4.34877C18.6237 3.96694 17.6114 3.69653 16.8026 3.5519ZM13.8155 12.2573C13.9495 11.7572 14.4636 11.4604 14.9637 11.5944L21.0007 13.2121C21.5009 13.3461 21.7977 13.8601 21.6637 14.3603C21.5296 14.8604 21.0156 15.1572 20.5155 15.0232L14.4784 13.4055C13.9783 13.2715 13.6815 12.7575 13.8155 12.2573ZM12.8444 15.8795C12.9784 15.3794 13.4925 15.0826 13.9926 15.2166L17.6149 16.1871C18.115 16.3211 18.4118 16.8352 18.2778 17.3353C18.1438 17.8355 17.6297 18.1323 17.1296 17.9982L13.5073 17.0277C13.0072 16.8937 12.7104 16.3796 12.8444 15.8795Z" fill="#1E232C"/>
</svg>
