<svg width="30" height="30" viewBox="0 0 30 30" fill="none" xmlns="http://www.w3.org/2000/svg">
<path fill-rule="evenodd" clip-rule="evenodd" d="M15 4.25C12.3766 4.25 10.25 6.37665 10.25 9C10.25 11.6234 12.3766 13.75 15 13.75C17.6234 13.75 19.75 11.6234 19.75 9C19.75 6.37665 17.6234 4.25 15 4.25ZM11.75 9C11.75 7.20507 13.2051 5.75 15 5.75C16.7949 5.75 18.25 7.20507 18.25 9C18.25 10.7949 16.7949 12.25 15 12.25C13.2051 12.25 11.75 10.7949 11.75 9Z" fill="#1E232C"/>
<path fill-rule="evenodd" clip-rule="evenodd" d="M15 15.25C12.9607 15.25 11.0775 15.7207 9.67815 16.5204C8.3 17.3079 7.25 18.5101 7.25 20C7.25 21.4899 8.3 22.6921 9.67815 23.4796C11.0775 24.2792 12.9607 24.75 15 24.75C17.0393 24.75 18.9225 24.2792 20.3219 23.4796C21.7 22.6921 22.75 21.4899 22.75 20C22.75 18.5101 21.7 17.3079 20.3219 16.5204C18.9225 15.7207 17.0393 15.25 15 15.25ZM8.75 20C8.75 19.2807 9.26701 18.483 10.4224 17.8228C11.5565 17.1747 13.1733 16.75 15 16.75C16.8267 16.75 18.4435 17.1747 19.5776 17.8228C20.733 18.483 21.25 19.2807 21.25 20C21.25 20.7193 20.733 21.517 19.5776 22.1772C18.4435 22.8253 16.8267 23.25 15 23.25C13.1733 23.25 11.5565 22.8253 10.4224 22.1772C9.26701 21.517 8.75 20.7193 8.75 20Z" fill="#1E232C"/>
</svg>
