<svg width="21" height="20" viewBox="0 0 21 20" fill="none" xmlns="http://www.w3.org/2000/svg">
<g clip-path="url(#clip0_206_5940)">
<path fill-rule="evenodd" clip-rule="evenodd" d="M5.49338 4.95598C5.48946 4.02823 5.85426 3.13692 6.50752 2.47813C7.16077 1.81934 8.04897 1.44704 8.97673 1.44312C9.90448 1.43921 10.7958 1.80401 11.4546 2.45726C12.1134 3.11052 12.4857 3.99872 12.4896 4.92647L12.5257 13.4833C12.5269 13.7476 12.476 14.0095 12.3759 14.254C12.2759 14.4986 12.1286 14.7211 11.9426 14.9087C11.5669 15.2877 11.0561 15.502 10.5224 15.5043C9.98876 15.5067 9.47603 15.297 9.09702 14.9213C8.71801 14.5456 8.50377 14.0347 8.50142 13.5011L8.46792 5.72527C8.46667 5.43468 8.70124 5.19811 8.99182 5.19688C9.28241 5.19566 9.51896 5.43024 9.52016 5.72083L9.55226 13.4966C9.5528 13.6228 9.57818 13.7477 9.62696 13.8641C9.67574 13.9804 9.74697 14.0861 9.83658 14.1749C9.92618 14.2638 10.0324 14.3341 10.1492 14.3819C10.266 14.4297 10.391 14.454 10.5172 14.4535C10.6434 14.453 10.7683 14.4276 10.8847 14.3788C11.001 14.33 11.1067 14.2588 11.1955 14.1692C11.2844 14.0796 11.3547 13.9734 11.4025 13.8566C11.4503 13.7398 11.4746 13.6147 11.4741 13.4885L11.438 4.93165C11.4367 4.61027 11.372 4.29231 11.2478 3.99591C11.1235 3.69951 10.9421 3.43049 10.7139 3.2042C10.4857 2.97791 10.2152 2.79878 9.91774 2.67705C9.6203 2.55531 9.3018 2.49336 8.98042 2.49471C8.65904 2.49607 8.34108 2.56071 8.04468 2.68495C7.74828 2.80919 7.47926 2.99059 7.25297 3.2188C7.02668 3.44701 6.84755 3.71755 6.72582 4.01499C6.60408 4.31242 6.54213 4.63092 6.54348 4.9523L6.5814 13.7641C6.59851 14.7989 7.02272 15.7853 7.76209 16.5095C8.50147 17.2337 9.49645 17.6373 10.5314 17.6329C11.5663 17.6286 12.5579 17.2165 13.2911 16.4861C14.0244 15.7557 14.4402 14.7658 14.4486 13.7309L14.414 5.69944C14.4128 5.40886 14.6473 5.17228 14.9379 5.17106C15.2285 5.16983 15.4651 5.40442 15.4663 5.695L15.4995 13.7265C15.481 15.0327 14.9506 16.2795 14.0223 17.1986C13.094 18.1177 11.842 18.6357 10.5357 18.6411C9.22931 18.6465 7.97305 18.1389 7.03715 17.2275C6.10126 16.3161 5.56052 15.0738 5.53129 13.7678L5.49338 4.95598Z" fill="#909090"/>
</g>
<defs>
<clipPath id="clip0_206_5940">
<rect width="20" height="20" fill="white" transform="translate(0.5)"/>
</clipPath>
</defs>
</svg>
