<svg width="30" height="30" viewBox="0 0 30 30" fill="none" xmlns="http://www.w3.org/2000/svg">
<path d="M12.547 6.64497L13.3583 8.09863C14.0904 9.41048 13.7965 11.1314 12.6434 12.2845C12.6434 12.2845 12.6434 12.2845 12.6434 12.2845C12.6432 12.2847 11.2449 13.6833 13.7806 16.2191C16.3156 18.7541 17.7142 17.3574 17.7152 17.3564C17.7153 17.3563 17.7153 17.3564 17.7153 17.3563C18.8684 16.2033 20.5893 15.9094 21.9011 16.6415L23.3548 17.4528C25.3357 18.5583 25.5696 21.3363 23.8285 23.0775C22.7822 24.1238 21.5005 24.9379 20.0836 24.9916C17.6985 25.082 13.6478 24.4783 9.58463 20.4151C5.52141 16.3519 4.91777 12.3013 5.00819 9.91611C5.0619 8.49926 5.876 7.21755 6.92226 6.1713C8.66344 4.43011 11.4415 4.66405 12.547 6.64497Z" fill="#2491FF"/>
</svg>
