<svg width="30" height="30" viewBox="0 0 30 30" fill="none" xmlns="http://www.w3.org/2000/svg">
<path fill-rule="evenodd" clip-rule="evenodd" d="M13.3656 6.18841C11.9033 3.56826 8.3594 3.40861 6.25931 5.5087C5.13599 6.63202 4.13787 8.12567 4.07133 9.88091C3.97272 12.4821 4.64445 16.8011 8.92168 21.0784C13.1989 25.3556 17.518 26.0273 20.1191 25.9287C21.8744 25.8622 23.368 24.864 24.4913 23.7407C26.5914 21.6406 26.4318 18.0967 23.8116 16.6344L22.358 15.8232C20.6469 14.8683 18.4881 15.2752 17.0731 16.6731C17.0476 16.6917 16.9038 16.7904 16.6526 16.8027C16.3321 16.8182 15.5912 16.7042 14.4435 15.5565C13.2955 14.4085 13.1817 13.6675 13.1974 13.3471C13.2097 13.0961 13.3083 12.9524 13.327 12.9269C14.7248 11.5119 15.1318 9.3531 14.1769 7.64207L13.3656 6.18841ZM7.58514 6.83452C8.96743 5.45223 10.9795 5.76047 11.7283 7.10215L12.5396 8.55582C13.0442 9.46008 12.8721 10.7303 11.9804 11.6219C11.8934 11.709 11.3731 12.266 11.3246 13.2554C11.275 14.2683 11.7299 15.4946 13.1177 16.8823C14.505 18.2696 15.7309 18.7247 16.7437 18.6754C17.733 18.6273 18.2903 18.1074 18.3779 18.0198C19.2695 17.1282 20.54 16.9558 21.4442 17.4605L22.8979 18.2717C24.2396 19.0205 24.5478 21.0326 23.1655 22.4149C22.1963 23.3841 21.1266 24.0142 20.0481 24.0551C17.8789 24.1373 14.0967 23.6017 10.2475 19.7525C6.3983 15.9033 5.86275 12.1211 5.94498 9.95194C5.98587 8.87347 6.61595 7.80371 7.58514 6.83452Z" fill="white"/>
<path d="M20.9378 4.6875V10.9375M17.3135 7.8125L24.5648 7.8125" stroke="white" stroke-width="1.875" stroke-linecap="round"/>
</svg>
