<svg width="23" height="22" viewBox="0 0 23 22" fill="none" xmlns="http://www.w3.org/2000/svg">
<path d="M9.04674 2.64521L9.85801 4.09888C10.5901 5.41073 10.2962 7.13165 9.14315 8.28475C9.14314 8.28475 9.14314 8.28475 9.14314 8.28475C9.14299 8.2849 7.74461 9.68357 10.2804 12.2194C12.8154 14.7543 14.214 13.3576 14.215 13.3566C14.215 13.3566 14.215 13.3566 14.215 13.3566C15.3681 12.2035 17.089 11.9096 18.4009 12.6417L19.8545 13.453C21.8355 14.5585 22.0694 17.3366 20.3282 19.0777C19.282 20.124 18.0003 20.9381 16.5834 20.9918C14.1982 21.0822 10.1476 20.4786 6.08438 16.4154C2.02117 12.3521 1.41752 8.30153 1.50795 5.91636C1.56166 4.4995 2.37576 3.21779 3.42201 2.17154C5.1632 0.430352 7.94122 0.664297 9.04674 2.64521Z" stroke="#1E232C" stroke-width="1.5" stroke-linecap="round"/>
</svg>
