<svg width="21" height="20" viewBox="0 0 21 20" fill="none" xmlns="http://www.w3.org/2000/svg">
<circle cx="10.5" cy="10.8333" r="2.5" stroke="#909090" stroke-width="1.25"/>
<path d="M8.64799 17.5H12.3517C14.9525 17.5 16.253 17.5 17.1871 16.8872C17.5915 16.6219 17.9388 16.2809 18.209 15.8839C18.8332 14.9667 18.8332 13.6899 18.8332 11.1364C18.8332 8.5828 18.8332 7.30601 18.209 6.38884C17.9388 5.99178 17.5915 5.65087 17.1871 5.38557C16.5869 4.99178 15.8354 4.85102 14.6848 4.80071C14.1358 4.80071 13.6631 4.39223 13.5554 3.86364C13.3939 3.07074 12.6848 2.5 11.8612 2.5H9.13845C8.31488 2.5 7.6058 3.07074 7.44428 3.86364C7.3366 4.39223 6.86388 4.80071 6.31483 4.80071C5.16428 4.85102 4.4128 4.99178 3.81254 5.38557C3.40813 5.65087 3.06091 5.99178 2.79069 6.38884C2.1665 7.30601 2.1665 8.5828 2.1665 11.1364C2.1665 13.6899 2.1665 14.9667 2.79069 15.8839C3.06091 16.2809 3.40813 16.6219 3.81254 16.8872C4.7467 17.5 6.04713 17.5 8.64799 17.5Z" stroke="#909090" stroke-width="1.25"/>
<path d="M16.3333 8.33325H15.5" stroke="#909090" stroke-width="1.25" stroke-linecap="round"/>
</svg>
