<svg width="23" height="22" viewBox="0 0 23 22" fill="none" xmlns="http://www.w3.org/2000/svg">
<path d="M12.5867 20.3875L13.2321 20.7696L12.5867 20.3875ZM13.1288 19.4717L12.4834 19.0896L13.1288 19.4717ZM9.87124 19.4717L9.22582 19.8537H9.22582L9.87124 19.4717ZM10.4133 20.3875L11.0588 20.0055L10.4133 20.3875ZM1.8806 14.9132L2.57352 14.6262V14.6262L1.8806 14.9132ZM7.2896 17.9913L7.27668 18.7412L7.2896 17.9913ZM4.5866 17.6192L4.29958 18.3121L4.29958 18.3121L4.5866 17.6192ZM21.1195 14.9132L21.8124 15.2002V15.2002L21.1195 14.9132ZM15.7104 17.9913L15.6975 17.2414L15.7104 17.9913ZM18.4135 17.6192L18.7005 18.3121H18.7005L18.4135 17.6192ZM19.1126 1.73656L18.7207 2.37604L19.1126 1.73656ZM20.7633 3.38727L21.4028 2.9954V2.9954L20.7633 3.38727ZM3.88752 1.73656L3.49564 1.09708L3.88752 1.73656ZM2.2368 3.38727L1.59732 2.9954L2.2368 3.38727ZM8.90282 18.2097L9.2799 17.5613L9.27989 17.5613L8.90282 18.2097ZM13.2321 20.7696L13.7742 19.8537L12.4834 19.0896L11.9413 20.0055L13.2321 20.7696ZM9.22582 19.8537L9.76793 20.7696L11.0588 20.0055L10.5167 19.0896L9.22582 19.8537ZM11.9413 20.0055C11.7485 20.3312 11.2515 20.3312 11.0588 20.0055L9.76793 20.7696C10.5415 22.0765 12.4585 22.0765 13.2321 20.7696L11.9413 20.0055ZM10 1.74976H13V0.249753H10V1.74976ZM20.7501 9.49979V10.4998H22.2501V9.49979H20.7501ZM2.25 10.4998V9.49979H0.749997V10.4998H2.25ZM0.749997 10.4998C0.749997 11.6544 0.749591 12.5579 0.799312 13.2866C0.849493 14.0221 0.953227 14.6342 1.18769 15.2002L2.57352 14.6262C2.42738 14.2734 2.34081 13.8436 2.29584 13.1845C2.25041 12.5187 2.25 11.6749 2.25 10.4998H0.749997ZM7.30252 17.2414C6.04708 17.2198 5.38925 17.1399 4.87361 16.9263L4.29958 18.3121C5.10456 18.6456 6.02139 18.7195 7.27668 18.7412L7.30252 17.2414ZM1.18769 15.2002C1.77128 16.6092 2.89066 17.7285 4.29958 18.3121L4.87361 16.9263C3.83224 16.495 3.00487 15.6676 2.57352 14.6262L1.18769 15.2002ZM20.7501 10.4998C20.7501 11.6749 20.7497 12.5187 20.7042 13.1845C20.6593 13.8436 20.5727 14.2734 20.4266 14.6262L21.8124 15.2002C22.0469 14.6342 22.1506 14.0221 22.2008 13.2866C22.2505 12.5579 22.2501 11.6544 22.2501 10.4998H20.7501ZM15.7234 18.7412C16.9787 18.7195 17.8955 18.6456 18.7005 18.3121L18.1265 16.9263C17.6108 17.1399 16.953 17.2198 15.6975 17.2414L15.7234 18.7412ZM20.4266 14.6262C19.9952 15.6676 19.1678 16.495 18.1265 16.9263L18.7005 18.3121C20.1094 17.7285 21.2288 16.6092 21.8124 15.2002L20.4266 14.6262ZM13 1.74976C14.6513 1.74976 15.8371 1.75055 16.762 1.83849C17.6757 1.92537 18.2572 2.09199 18.7207 2.37604L19.5044 1.09708C18.7656 0.644323 17.9275 0.442541 16.904 0.34522C15.8916 0.248962 14.6222 0.249753 13 0.249753V1.74976ZM22.2501 9.49979C22.2501 7.87759 22.2509 6.60827 22.1546 5.59588C22.0573 4.57233 21.8555 3.73422 21.4028 2.9954L20.1238 3.77915C20.4078 4.24268 20.5745 4.82411 20.6613 5.73786C20.7493 6.66278 20.7501 7.84855 20.7501 9.49979H22.2501ZM18.7207 2.37604C19.2926 2.72648 19.7734 3.20728 20.1238 3.77915L21.4028 2.9954C20.9286 2.2217 20.2781 1.5712 19.5044 1.09708L18.7207 2.37604ZM10 0.249753C8.37784 0.249753 7.10852 0.248962 6.09613 0.34522C5.07257 0.442541 4.23447 0.644323 3.49564 1.09708L4.27939 2.37604C4.74292 2.09199 5.32435 1.92537 6.23811 1.83849C7.16302 1.75055 8.34879 1.74976 10 1.74976V0.249753ZM2.25 9.49979C2.25 7.84855 2.25079 6.66278 2.33874 5.73786C2.42562 4.82411 2.59223 4.24268 2.87629 3.77915L1.59732 2.9954C1.14457 3.73422 0.942785 4.57233 0.845465 5.59588C0.749206 6.60827 0.749997 7.87759 0.749997 9.49979H2.25ZM3.49564 1.09708C2.72194 1.5712 2.07144 2.2217 1.59732 2.9954L2.87629 3.77915C3.22672 3.20729 3.70753 2.72648 4.27939 2.37604L3.49564 1.09708ZM10.5167 19.0896C10.3136 18.7466 10.1354 18.444 9.96209 18.2062C9.77956 17.9557 9.57019 17.7302 9.2799 17.5613L8.52575 18.858C8.57316 18.8856 8.63775 18.9358 8.74988 19.0897C8.87125 19.2562 9.00838 19.4863 9.22582 19.8537L10.5167 19.0896ZM7.27668 18.7412C7.71578 18.7487 7.9939 18.7543 8.20591 18.7778C8.40402 18.7997 8.48081 18.8319 8.52575 18.858L9.27989 17.5613C8.98713 17.3911 8.68249 17.3214 8.371 17.2869C8.07341 17.2539 7.71377 17.2485 7.30252 17.2414L7.27668 18.7412ZM13.7742 19.8537C13.9917 19.4863 14.1288 19.2562 14.2502 19.0897C14.3623 18.9358 14.4269 18.8856 14.4743 18.858L13.7201 17.5613C13.4299 17.7302 13.2205 17.9557 13.0379 18.2062C12.8646 18.444 12.6864 18.7466 12.4834 19.0896L13.7742 19.8537ZM15.6975 17.2414C15.2863 17.2485 14.9266 17.2539 14.629 17.2869C14.3175 17.3214 14.0129 17.3911 13.7201 17.5613L14.4743 18.858C14.5192 18.8319 14.596 18.7997 14.7941 18.7778C15.0061 18.7543 15.2843 18.7487 15.7234 18.7412L15.6975 17.2414Z" fill="#1E232C"/>
<path d="M7.40063 8.1748H15.6007" stroke="#1E232C" stroke-width="1.53751" stroke-linecap="round"/>
<path d="M7.49878 11.5H12.9988" stroke="#1E232C" stroke-width="1.50001" stroke-linecap="round"/>
</svg>
