<svg width="30" height="30" viewBox="0 0 30 30" fill="none" xmlns="http://www.w3.org/2000/svg">
<path fill-rule="evenodd" clip-rule="evenodd" d="M16.6288 23.4717L16.0867 24.3875C15.6035 25.2038 14.3965 25.2038 13.9133 24.3875L13.3712 23.4717C12.9508 22.7613 12.7405 22.4061 12.4028 22.2097C12.0651 22.0133 11.6399 22.0059 10.7896 21.9913C9.53424 21.9696 8.7469 21.8927 8.0866 21.6192C6.86145 21.1117 5.88808 20.1384 5.3806 18.9132C5 17.9944 5 16.8295 5 14.4998V13.4998C5 10.2263 5 8.58962 5.7368 7.38727C6.14908 6.71449 6.71474 6.14884 7.38752 5.73656C8.58987 4.99976 10.2266 4.99976 13.5 4.99976H16.5C19.7735 4.99976 21.4102 4.99976 22.6126 5.73656C23.2853 6.14884 23.851 6.71449 24.2633 7.38727C25.0001 8.58962 25.0001 10.2263 25.0001 13.4998V14.4998C25.0001 16.8295 25.0001 17.9944 24.6195 18.9132C24.112 20.1384 23.1386 21.1117 21.9135 21.6192C21.2532 21.8927 20.4658 21.9696 19.2104 21.9913C18.3601 22.0059 17.9349 22.0133 17.5972 22.2097C17.2595 22.4061 17.0493 22.7613 16.6288 23.4717ZM11 14.7498C10.5858 14.7498 10.25 15.0856 10.25 15.4998C10.25 15.914 10.5858 16.2498 11 16.2498H16.5C16.9143 16.2498 17.2501 15.914 17.2501 15.4998C17.2501 15.0856 16.9143 14.7498 16.5 14.7498H11ZM10.25 11.9998C10.25 11.5856 10.5858 11.2498 11 11.2498H19.0001C19.4143 11.2498 19.7501 11.5856 19.7501 11.9998C19.7501 12.414 19.4143 12.7498 19.0001 12.7498H11C10.5858 12.7498 10.25 12.414 10.25 11.9998Z" fill="#2491FF"/>
</svg>
