<svg width="30" height="30" viewBox="0 0 30 30" fill="none" xmlns="http://www.w3.org/2000/svg">
<path d="M16.0867 24.3875L16.7321 24.7696L16.0867 24.3875ZM16.6288 23.4717L15.9834 23.0896L16.6288 23.4717ZM13.3712 23.4717L12.7258 23.8537H12.7258L13.3712 23.4717ZM13.9133 24.3875L14.5588 24.0055L13.9133 24.3875ZM5.3806 18.9132L6.07352 18.6262V18.6262L5.3806 18.9132ZM10.7896 21.9913L10.7767 22.7412L10.7896 21.9913ZM8.0866 21.6192L7.79958 22.3121L7.79958 22.3121L8.0866 21.6192ZM24.6195 18.9132L25.3124 19.2002V19.2002L24.6195 18.9132ZM19.2104 21.9913L19.1975 21.2414L19.2104 21.9913ZM21.9135 21.6192L22.2005 22.3121H22.2005L21.9135 21.6192ZM22.6126 5.73656L22.2207 6.37604L22.6126 5.73656ZM24.2633 7.38727L24.9028 6.9954V6.9954L24.2633 7.38727ZM7.38752 5.73656L6.99564 5.09708L7.38752 5.73656ZM5.7368 7.38727L5.09732 6.9954L5.7368 7.38727ZM12.4028 22.2097L12.7799 21.5613L12.7799 21.5613L12.4028 22.2097ZM16.7321 24.7696L17.2742 23.8537L15.9834 23.0896L15.4413 24.0055L16.7321 24.7696ZM12.7258 23.8537L13.2679 24.7696L14.5588 24.0055L14.0167 23.0896L12.7258 23.8537ZM15.4413 24.0055C15.2485 24.3312 14.7515 24.3312 14.5588 24.0055L13.2679 24.7696C14.0415 26.0765 15.9585 26.0765 16.7321 24.7696L15.4413 24.0055ZM13.5 5.74976H16.5V4.24975H13.5V5.74976ZM24.2501 13.4998V14.4998H25.7501V13.4998H24.2501ZM5.75 14.4998V13.4998H4.25V14.4998H5.75ZM4.25 14.4998C4.25 15.6544 4.24959 16.5579 4.29931 17.2866C4.34949 18.0221 4.45323 18.6342 4.68769 19.2002L6.07352 18.6262C5.92738 18.2734 5.84081 17.8436 5.79584 17.1845C5.75041 16.5187 5.75 15.6749 5.75 14.4998H4.25ZM10.8025 21.2414C9.54708 21.2198 8.88925 21.1399 8.37361 20.9263L7.79958 22.3121C8.60456 22.6456 9.52139 22.7195 10.7767 22.7412L10.8025 21.2414ZM4.68769 19.2002C5.27128 20.6092 6.39066 21.7285 7.79958 22.3121L8.37361 20.9263C7.33224 20.495 6.50487 19.6676 6.07352 18.6262L4.68769 19.2002ZM24.2501 14.4998C24.2501 15.6749 24.2497 16.5187 24.2042 17.1845C24.1593 17.8436 24.0727 18.2734 23.9266 18.6262L25.3124 19.2002C25.5469 18.6342 25.6506 18.0221 25.7008 17.2866C25.7505 16.5579 25.7501 15.6544 25.7501 14.4998H24.2501ZM19.2234 22.7412C20.4787 22.7195 21.3955 22.6456 22.2005 22.3121L21.6265 20.9263C21.1108 21.1399 20.453 21.2198 19.1975 21.2414L19.2234 22.7412ZM23.9266 18.6262C23.4952 19.6676 22.6678 20.495 21.6265 20.9263L22.2005 22.3121C23.6094 21.7285 24.7288 20.6092 25.3124 19.2002L23.9266 18.6262ZM16.5 5.74976C18.1513 5.74976 19.3371 5.75055 20.262 5.83849C21.1757 5.92537 21.7572 6.09199 22.2207 6.37604L23.0044 5.09708C22.2656 4.64432 21.4275 4.44254 20.404 4.34522C19.3916 4.24896 18.1222 4.24975 16.5 4.24975V5.74976ZM25.7501 13.4998C25.7501 11.8776 25.7509 10.6083 25.6546 9.59588C25.5573 8.57233 25.3555 7.73422 24.9028 6.9954L23.6238 7.77915C23.9078 8.24268 24.0745 8.82411 24.1613 9.73786C24.2493 10.6628 24.2501 11.8485 24.2501 13.4998H25.7501ZM22.2207 6.37604C22.7926 6.72648 23.2734 7.20728 23.6238 7.77915L24.9028 6.9954C24.4286 6.2217 23.7781 5.5712 23.0044 5.09708L22.2207 6.37604ZM13.5 4.24975C11.8778 4.24975 10.6085 4.24896 9.59613 4.34522C8.57257 4.44254 7.73447 4.64432 6.99564 5.09708L7.77939 6.37604C8.24292 6.09199 8.82435 5.92537 9.73811 5.83849C10.663 5.75055 11.8488 5.74976 13.5 5.74976V4.24975ZM5.75 13.4998C5.75 11.8485 5.75079 10.6628 5.83874 9.73786C5.92562 8.82411 6.09223 8.24268 6.37629 7.77915L5.09732 6.9954C4.64457 7.73422 4.44278 8.57233 4.34546 9.59588C4.24921 10.6083 4.25 11.8776 4.25 13.4998H5.75ZM6.99564 5.09708C6.22194 5.5712 5.57144 6.2217 5.09732 6.9954L6.37629 7.77915C6.72672 7.20729 7.20753 6.72648 7.77939 6.37604L6.99564 5.09708ZM14.0167 23.0896C13.8136 22.7466 13.6354 22.444 13.4621 22.2062C13.2796 21.9557 13.0702 21.7302 12.7799 21.5613L12.0257 22.858C12.0732 22.8856 12.1377 22.9358 12.2499 23.0897C12.3712 23.2562 12.5084 23.4863 12.7258 23.8537L14.0167 23.0896ZM10.7767 22.7412C11.2158 22.7487 11.4939 22.7543 11.7059 22.7778C11.904 22.7997 11.9808 22.8319 12.0258 22.858L12.7799 21.5613C12.4871 21.3911 12.1825 21.3214 11.871 21.2869C11.5734 21.2539 11.2138 21.2485 10.8025 21.2414L10.7767 22.7412ZM17.2742 23.8537C17.4917 23.4863 17.6288 23.2562 17.7502 23.0897C17.8623 22.9358 17.9269 22.8856 17.9743 22.858L17.2201 21.5613C16.9299 21.7302 16.7205 21.9557 16.5379 22.2062C16.3646 22.444 16.1864 22.7466 15.9834 23.0896L17.2742 23.8537ZM19.1975 21.2414C18.7863 21.2485 18.4266 21.2539 18.129 21.2869C17.8175 21.3214 17.5129 21.3911 17.2201 21.5613L17.9743 22.858C18.0192 22.8319 18.096 22.7997 18.2941 22.7778C18.5061 22.7543 18.7843 22.7487 19.2234 22.7412L19.1975 21.2414Z" fill="#1E232C"/>
<path d="M10.9009 12.1748H19.1009" stroke="#1E232C" stroke-width="1.53751" stroke-linecap="round"/>
<path d="M10.9985 15.5H16.4986" stroke="#1E232C" stroke-width="1.50001" stroke-linecap="round"/>
</svg>
