<svg width="20" height="21" viewBox="0 0 20 21" fill="none" xmlns="http://www.w3.org/2000/svg">
<path d="M11.9668 3.89896L12.7392 3.12656C14.019 1.84681 16.0938 1.84681 17.3736 3.12656C18.6534 4.40632 18.6534 6.48121 17.3736 7.76096L16.6012 8.53336M11.9668 3.89896C11.9668 3.89896 12.0634 5.54031 13.5116 6.98856C14.9599 8.43681 16.6012 8.53336 16.6012 8.53336M11.9668 3.89896L4.86577 11C4.3848 11.481 4.14432 11.7214 3.9375 11.9866C3.69353 12.2994 3.48436 12.6378 3.3137 12.9959C3.16903 13.2995 3.06148 13.6221 2.84638 14.2674L1.93492 17.0018M16.6012 8.53336L9.50017 15.6344C9.0192 16.1154 8.77871 16.3558 8.51355 16.5627C8.20076 16.8066 7.86232 17.0158 7.50423 17.1865C7.20066 17.3311 6.87802 17.4387 6.23273 17.6538L3.49835 18.5652M3.49835 18.5652L2.82995 18.788C2.5124 18.8939 2.1623 18.8112 1.92561 18.5746C1.68892 18.3379 1.60627 17.9878 1.71212 17.6702L1.93492 17.0018M3.49835 18.5652L1.93492 17.0018" stroke="#1E232C" stroke-width="1.5"/>
</svg>
