<svg width="247" height="152" viewBox="0 0 247 152" fill="none" xmlns="http://www.w3.org/2000/svg">
<g clip-path="url(#clip0_206_5580)">
<path d="M246.5 138.932H0.5V139.685H246.5V138.932Z" fill="#CCCCCC"/>
<path d="M31.1534 128.883H17.3652V139.308H31.1534V128.883Z" fill="#D6D6E3"/>
<path d="M229.57 128.883H215.782V139.308H229.57V128.883Z" fill="#D6D6E3"/>
<path d="M123.804 23.1169C123.804 23.1169 120.441 19.7539 112.706 20.4263C112.706 20.4263 38.0471 12.6913 36.3656 26.4798C34.6842 40.2683 34.3478 48.3393 38.7198 51.3659C38.7198 51.3659 53.0127 64.3134 45.6141 75.7466L41.5784 82.4736L199.976 81.1285C199.976 81.1285 201.657 56.5787 206.702 51.8703C211.746 47.162 213.427 22.2758 206.702 21.6034C199.976 20.931 121.954 17.2314 123.804 23.1169Z" fill="#E6E6E6"/>
<path d="M40.2336 50.5251C40.2336 50.5251 -7.18478 61.6219 11.6479 82.4735L14.6748 85.4993L13.3296 131.909H231.925L234.279 86.5081L236.969 81.1273C236.969 81.1273 253.723 61.0334 205.327 53.7609L196.614 75.7465L49.3137 74.7388C49.3137 74.7388 48.3046 49.8524 40.2336 50.5251Z" fill="#E6E6E6"/>
<path d="M121.246 75.9156C121.246 75.9156 88.3244 52.5415 47.2959 76.0834L35.1895 93.5709L37.5436 108.032C37.5436 108.032 122.628 109.377 123.636 100.297C124.645 91.2167 121.246 75.9156 121.246 75.9156Z" fill="#E6E6E6"/>
<path d="M198.294 76.084C198.294 76.084 140.534 57.5874 123.173 76.084L125.317 102.652C125.317 102.652 209.728 109.041 211.074 104.669C212.419 100.298 213.092 92.563 213.092 92.563L198.294 76.084Z" fill="#E6E6E6"/>
<path opacity="0.049" d="M198.294 76.084C198.294 76.084 140.534 57.5874 123.173 76.084L123.221 76.6765C123.165 76.4016 123.131 76.252 123.131 76.252C123.131 76.252 88.3242 52.5424 47.2954 76.0843L35.189 93.5718L37.5431 108.033C37.5431 108.033 119.931 109.785 125.224 101.5L125.317 102.652C125.317 102.652 209.728 109.041 211.073 104.67C212.418 100.298 213.091 92.5633 213.091 92.5633L198.294 76.084Z" fill="#263238"/>
<path opacity="0.049" d="M41.5786 29.6743C57.9237 29.3268 73.4191 27.2522 87.6516 22.6121C87.9977 38.9834 90.3516 54.2946 95.7229 68.0126C79.8109 65.121 63.6615 67.9824 47.2969 76.0836C50.2349 61.2844 47.6936 45.7267 41.5786 29.6743Z" fill="#263238"/>
<path opacity="0.049" d="M205.02 33.4362C191.629 30.0704 176.896 25.5447 163.849 26.698C159.711 40.4221 161.436 56.9294 156.636 70.0192C170.855 67.2601 199.91 77.7206 199.91 77.7206C199.91 77.7206 205.948 48.2267 205.02 33.4362Z" fill="#263238"/>
<path d="M103.751 28.0685C104.703 27.3908 105.754 26.8638 106.866 26.5061C113.92 23.8817 121.31 22.273 128.816 21.7281C135.343 21.2654 142.417 21.815 147.514 25.917C148.307 26.4986 148.956 27.2542 149.411 28.1258C150.052 29.5098 149.858 31.1174 149.65 32.6295C149.604 33.2156 149.456 33.7893 149.214 34.3249C148.528 35.6309 146.839 36.0886 145.372 35.932C143.905 35.7755 142.528 35.1548 141.081 34.8671C140.186 34.711 139.28 34.6187 138.372 34.5911L129.297 34.0999C123.653 33.7943 117.936 33.494 112.401 34.6328C110.697 34.9391 109.05 35.5065 107.519 36.3151C106.255 37.025 105.403 38.0435 104.23 36.7322C102.169 34.4295 101.028 30.1959 103.751 28.0685Z" fill="#263238"/>
<path d="M118.445 28.0829C118.445 28.0829 120.129 36.0793 118.866 38.1846C117.603 40.29 126.021 43.2355 126.021 43.2355L134.018 39.8683C134.018 39.8683 131.913 26.8205 134.018 24.2949L118.445 28.0829Z" fill="#EAAC81"/>
<path opacity="0.1" d="M118.445 28.0829C118.445 28.0829 120.129 36.0793 118.866 38.1846C117.603 40.29 126.021 43.2355 126.021 43.2355L134.018 39.8683C134.018 39.8683 131.913 26.8205 134.018 24.2949L118.445 28.0829Z" fill="#1E232C"/>
<path d="M110.558 124.243C111.762 126.552 112.543 129.052 113.339 131.532C113.351 131.615 113.38 131.694 113.425 131.765C113.469 131.835 113.528 131.896 113.598 131.942C113.668 131.988 113.746 132.019 113.829 132.033C113.911 132.047 113.995 132.043 114.076 132.022L121.563 132.014C122.486 132.014 123.726 131.716 123.716 130.792C123.709 130.143 123.045 129.738 122.552 129.317C121.182 128.148 120.824 126.219 120.257 124.51C119.154 121.216 117.028 118.36 114.189 116.359C113.805 116.058 113.363 115.84 112.892 115.717C112.417 115.648 111.934 115.675 111.469 115.794C110.155 116.059 105.247 116.967 106.174 118.878C106.574 119.701 108.053 120.558 108.673 121.327C109.396 122.234 110.027 123.211 110.558 124.243L110.558 124.243Z" fill="#EAAC81"/>
<path d="M136.592 115.56C136.328 116.114 136.034 116.655 135.712 117.178C134.627 118.967 133.347 120.635 132.337 122.467C131.707 123.61 131.177 124.844 131.107 126.148C131.037 127.452 131.496 128.838 132.536 129.627C133.623 130.452 135.112 130.49 136.463 130.298C137.814 130.106 139.157 129.719 140.517 129.821C140.058 127.225 142.248 124.941 142.795 122.362C142.949 121.638 142.972 120.887 143.178 120.176C143.4 119.526 143.683 118.899 144.025 118.303C145.115 116.18 145.886 113.908 146.312 111.559C146.363 111.275 139.657 111.228 139.028 111.364C137.065 111.788 137.351 113.932 136.592 115.56Z" fill="#EAAC81"/>
<path d="M84.9007 74.7814C82.9861 77.7776 83.4273 81.7481 84.7721 85.0395C86.117 88.3309 88.257 91.2406 89.721 94.4805C90.6548 96.5459 91.3096 98.736 92.3612 100.743C93.6632 103.23 95.5645 105.422 96.4382 108.089C96.9952 109.789 102.928 120.4 104.169 123.158C107.937 122.741 108.178 119.935 110.61 118.936C113.042 117.938 115.163 118.388 117.729 118.75C116.298 116.533 114.853 114.288 114 111.79C113.174 109.375 112.931 106.805 112.375 104.314C111.235 99.2057 108.8 94.4937 106.39 89.8476L118.78 88.8649C120.802 88.6617 122.835 88.5863 124.867 88.6392C128.065 88.7899 131.198 89.5739 134.379 89.9363C137.56 90.2986 140.925 90.2039 143.76 88.7159C138.339 96.4935 135.516 105.786 135.694 115.264C137.68 113.726 140.16 112.968 142.666 113.133C145.172 113.298 147.531 114.375 149.297 116.161C150.049 116.905 155.532 103.064 159.38 95.7977C160.171 94.3035 161.141 92.9117 161.994 91.4525C163.683 88.5666 164.908 85.4373 166.126 82.3232C167.202 79.5706 168.286 76.5076 167.254 73.738C166.825 72.6872 166.201 71.7273 165.414 70.9093C163.194 68.462 160.105 66.6514 156.801 66.5756C151.73 66.4599 147.541 70.2187 143.093 72.6562C137.853 75.5271 131.741 76.6684 125.781 76.2465C119.671 75.814 113.835 73.814 108.013 72.0526C105.101 71.1305 102.141 70.3669 99.1464 69.7652C96.6499 69.2969 94.2725 69.8156 91.8123 70.4541C89.1344 71.1506 86.4421 72.3691 84.9007 74.7814Z" fill="#263238"/>
<path d="M137.806 20.0858C137.803 23.4338 136.472 26.6439 134.105 29.0114C131.737 31.3788 128.527 32.71 125.179 32.7128C124.427 32.7141 123.676 32.6464 122.936 32.5107C120.573 32.0839 118.38 30.9922 116.616 29.3634C114.851 27.7347 113.588 25.6366 112.973 23.3152C112.359 20.9938 112.419 18.5453 113.148 16.257C113.876 13.9687 115.241 11.9355 117.084 10.3958C118.927 8.85613 121.17 7.87385 123.551 7.56418C125.933 7.25451 128.353 7.6303 130.528 8.64746C132.703 9.66463 134.543 11.281 135.833 13.307C137.122 15.3329 137.806 17.6845 137.806 20.0858Z" fill="#EAAC81"/>
<path d="M117.814 32.0816C117.814 32.0816 120.129 33.1337 120.97 33.9756C121.812 34.8175 124.338 39.4473 128.547 36.5009C132.757 33.5545 133.177 31.8711 134.44 31.8711C135.703 31.8711 137.386 34.3964 137.386 34.3964L148.962 69.122C145.842 72.6429 142.226 75.6909 138.228 78.1702C131.494 82.3793 123.497 84.4838 119.709 82.8001C115.921 81.1163 108.766 79.8537 107.503 76.4865C106.24 73.1194 104.136 63.0176 104.136 63.0176L110.028 37.3428L117.814 32.0816Z" fill="#2491FF"/>
<path d="M116.189 67.2008C117.106 65.2187 117.24 62.9753 117.318 60.7925C117.441 58.6305 117.384 56.4619 117.146 54.3095C116.773 51.494 115.856 48.7816 115.277 46.0011C114.77 43.5625 114.523 41.0768 114.541 38.586C114.55 37.4494 114.632 36.253 115.251 35.2999C115.683 34.635 116.359 34.12 116.629 33.3746C117.158 31.9129 115.851 30.3829 114.417 29.7801C112.712 29.0641 110.763 29.1122 108.969 29.5615C107.174 30.0108 105.502 30.8376 103.843 31.6584C102.646 32.2512 101.423 32.8624 100.495 33.8231C99.1881 35.1752 98.6135 37.058 98.1497 38.8801C97.7784 40.3385 97.4485 41.8592 97.7303 43.3371C98.1891 45.7374 100.146 47.5425 101.189 49.7524C102.4 52.3185 102.318 55.3091 101.837 58.1053C101.355 60.9015 100.5 63.6359 100.236 66.4612C99.9724 69.2865 100.376 72.3238 102.147 74.5415C102.869 75.4452 104.826 77.5871 106.146 77.345C107.183 77.1546 108.687 74.8709 109.523 74.147C111.937 72.0554 114.802 70.1961 116.189 67.2008Z" fill="#263238"/>
<path d="M138.241 30.7089C138.278 33.0574 137.243 35.2878 136.026 37.2955C134.809 39.3033 133.38 41.2023 132.483 43.372C131.368 46.0881 131.141 49.087 131.833 51.9401C132.09 52.912 132.4 53.869 132.761 54.8071L135.067 61.1326C135.378 62.1272 135.828 63.0726 136.405 63.9403C136.926 64.6049 137.538 65.1934 138.222 65.6886C139.974 67.1028 141.99 68.1541 144.152 68.7812C146.322 69.3547 148.696 69.3186 150.746 68.4052C150.968 59.8299 152.346 51.3238 154.842 43.1167C155.303 41.6016 155.806 40.0068 155.451 38.4634C155.052 36.735 153.664 35.4371 152.344 34.2519C148.308 30.6272 143.869 26.82 138.467 26.3313C135.34 26.0494 138.214 29.0117 138.241 30.7089Z" fill="#263238"/>
<path d="M110.619 79.645C110.939 80.2716 111.139 80.954 111.455 81.5826C111.922 82.4254 112.5 83.2021 113.173 83.892C115.987 87.0126 119.427 90.1211 123.625 90.3096C124.042 90.3485 124.462 90.2957 124.857 90.1547C125.591 89.8493 126.025 89.0626 126.168 88.2814C126.465 86.6513 125.746 85.025 125.025 83.5328C123.464 80.2987 121.707 76.9827 118.783 74.8969C115.902 72.8408 112.04 72.3414 108.68 73.3768C107.157 73.8459 104.632 74.6651 106.648 76.0544C108.178 77.1068 109.732 77.9093 110.619 79.645Z" fill="#EAAC81"/>
<path d="M113.144 130.579C111.889 132.285 112.141 134.722 111.029 136.524C110.066 138.086 108.25 138.905 107.045 140.289C106.66 140.749 106.317 141.242 106.02 141.762C104.902 143.636 103.994 146.035 105.095 147.918C105.98 149.432 107.842 150.024 109.55 150.427C111.708 150.937 113.95 151.345 116.133 150.956C118.316 150.566 120.449 149.229 121.228 147.153C121.381 146.631 121.562 146.117 121.772 145.615C122.955 143.286 126.667 143.261 127.878 140.946C128.725 139.326 127.946 137.367 127.168 135.714L124.789 130.661C124 128.983 120.801 129.949 119.133 129.547C116.958 129.024 114.708 128.445 113.144 130.579Z" fill="#263238"/>
<path d="M131.539 126.238C130.53 126.946 129.878 128.056 129.386 129.186C128.209 131.902 127.805 134.878 127.413 137.812C127.256 138.986 127.099 140.188 127.345 141.35C127.852 143.745 130.023 145.509 132.359 146.243C134.696 146.976 137.202 146.862 139.648 146.742C140.433 146.704 141.25 146.657 141.939 146.277C143.169 145.599 143.648 144.006 143.437 142.618C143.227 141.231 142.469 139.996 141.726 138.804C140.984 137.613 140.225 136.379 140.013 134.991C139.655 132.658 140.664 129.232 139.23 127.12C137.795 125.003 133.457 124.894 131.539 126.238Z" fill="#263238"/>
<path d="M137.489 13.5055C137.264 12.7503 136.769 12.1043 136.099 11.6909C136.133 10.882 136.034 10.073 135.805 9.29646C135.04 7.03566 133.229 7.16539 131.52 6.165C130.778 5.73135 130.824 5.34803 130.438 4.6359C129.932 3.70223 129.174 2.92922 128.251 2.40474C127.154 1.70575 125.997 0.986633 124.7 0.898281C121.974 0.712351 119.884 3.27651 117.278 4.09964C116.13 4.46311 114.896 4.47737 113.741 4.82015C112.587 5.16294 111.435 5.98187 111.262 7.17378C111.183 7.72402 111.323 8.2888 111.243 8.83876C111.082 9.93225 110.124 10.6981 109.481 11.5975C108.061 13.5863 108.223 16.3962 109.359 18.5594C109.599 19.0072 109.872 19.4357 110.178 19.8411C110.273 20.8639 110.567 21.8583 111.043 22.7684C112.179 24.9325 114.133 26.5494 116.174 27.8928C116.007 27.1751 115.906 26.4437 115.872 25.7075C115.843 25.4622 115.875 25.2135 115.964 24.9834C116.192 24.5081 116.793 24.3817 117.251 24.1214C118.199 23.5823 118.571 22.3879 118.599 21.2975C118.626 20.2071 118.395 19.1139 118.509 18.0288C118.514 17.7791 118.57 17.5332 118.676 17.3069C118.781 17.0805 118.933 16.8788 119.121 16.7147C119.471 16.5149 119.871 16.4195 120.274 16.4398C122.217 16.3604 124.248 16.3249 125.963 15.4053C126.548 15.0916 127.092 14.6784 127.734 14.5106C129.191 14.1306 130.68 15.152 131.52 16.4018C132.36 17.6516 132.778 19.1393 133.553 20.4305C134.328 21.7216 135.667 22.8733 137.165 22.7203C137.249 22.7205 137.333 22.7029 137.41 22.6686C137.487 22.6343 137.556 22.5841 137.612 22.5213C137.677 22.4052 137.706 22.2726 137.695 22.1402L137.779 16.4138C137.848 15.4349 137.75 14.4515 137.489 13.5055Z" fill="#263238"/>
<path d="M97.5281 43.459C96.3233 45.2364 94.9343 46.9453 94.2719 48.988C93.8827 50.1886 93.7619 51.4577 93.4801 52.6879C92.5415 56.7853 89.83 60.4248 89.5574 64.6196C89.4619 65.5518 89.5987 66.4932 89.9558 67.3596C90.7336 69.0517 92.5952 69.9433 94.3709 70.5042C96.1466 71.0651 98.0537 71.4694 99.471 72.6772C100.184 73.3607 100.831 74.1103 101.403 74.9159C103.716 77.7921 106.827 79.9206 110.345 81.034C110.067 79.1188 109.937 76.8105 111.468 75.6267C112.297 74.9858 113.404 74.8717 114.447 74.7817L119.379 74.3556C116.091 71.1659 112.466 68.3421 108.568 65.934C107.205 65.0915 105.72 64.203 105.098 62.7259C104.709 61.8032 104.714 60.7687 104.705 59.7664C104.671 56.0987 104.36 52.4387 103.776 48.8178C103.37 46.3036 102.832 43.813 102.217 41.3403C102.045 40.6463 101.024 37.5342 99.7688 38.2625C99.4729 38.4339 99.1961 40.4084 99.0236 40.818C98.6125 41.7451 98.1114 42.6296 97.5275 43.4588L97.5281 43.459Z" fill="#263238"/>
<path opacity="0.097" d="M104.353 48.8545C104.409 51.8278 103.777 54.7737 102.508 57.4629C102.177 58.0572 101.934 58.6958 101.785 59.3591C101.564 60.7742 102.369 62.1442 103.29 63.2413C105.106 65.3992 107.461 67.0375 110.115 67.9897" fill="white"/>
<path d="M135.774 33.7718L136.071 33.8188C135.942 33.7984 135.819 33.7529 135.707 33.6848C135.596 33.6168 135.5 33.5275 135.423 33.4221C135.346 33.3167 135.291 33.1972 135.261 33.0705C135.23 32.9438 135.225 32.8123 135.246 32.6836L138.317 13.2798C138.337 13.1511 138.383 13.0276 138.451 12.9165C138.519 12.8054 138.608 12.7087 138.713 12.6321C138.819 12.5555 138.938 12.5004 139.065 12.47C139.192 12.4395 139.323 12.4343 139.452 12.4547L139.155 12.4077C139.362 12.4404 139.56 12.5135 139.738 12.6229C139.917 12.7322 140.072 12.8756 140.195 13.0449C140.318 13.2142 140.407 13.4061 140.455 13.6096C140.504 13.8131 140.513 14.0242 140.48 14.2309L137.597 32.446C137.564 32.6527 137.491 32.8509 137.382 33.0294C137.272 33.2079 137.129 33.363 136.96 33.4861C136.79 33.6091 136.598 33.6976 136.395 33.7465C136.191 33.7954 135.98 33.8037 135.773 33.771L135.774 33.7718Z" fill="#263238"/>
<path d="M139.051 12.3928L139.501 12.464L136.119 33.8271L135.669 33.756C135.516 33.7316 135.378 33.6472 135.286 33.5212C135.195 33.3952 135.157 33.2381 135.181 33.0842L138.379 12.881C138.404 12.7271 138.488 12.5893 138.614 12.4978C138.74 12.4062 138.897 12.3685 139.051 12.3928Z" fill="#F2F2F2"/>
<path d="M146.747 30.0399C147.211 28.8703 147.683 27.6608 147.651 26.4029C147.571 25.2628 147.226 24.1571 146.642 23.1744C145.932 21.8558 145.047 20.6398 144.009 19.5601C142.774 18.274 140.989 17.1276 139.305 17.7109C137.967 18.1742 137.205 19.5665 136.71 20.8927C136.415 21.54 136.299 22.2542 136.373 22.9616C136.537 23.8748 137.242 24.5758 137.753 25.35C138.554 26.5639 138.897 28.0145 139.226 29.432L140.052 32.9857L141.47 39.0895C141.432 38.9287 144.102 36.3995 144.42 35.861C145.441 34.127 146.004 31.912 146.747 30.0399Z" fill="#EAAC81"/>
<path d="M154.328 36.7423L156.342 40.9306C157.312 42.6529 157.753 44.6227 157.611 46.5944L157.731 59.1585C157.747 60.8361 157.759 62.5416 157.318 64.1616C157.192 64.7023 156.956 65.211 156.623 65.6554C156.281 66.0386 155.879 66.3628 155.432 66.615C151.621 68.9966 146.678 70.3501 142.651 68.3544C141.729 67.8627 140.852 67.2903 140.031 66.6438C138.426 65.4552 136.797 64.2435 135.596 62.6476C134.339 60.9773 140.118 54.6232 139.272 52.7111C137.758 49.2866 138.596 41.1638 136.246 38.2502C135.904 37.826 139.014 38.2079 139 37.663C138.975 36.5617 141.616 34.9697 142.635 34.5506C144.375 33.8348 146.379 32.3742 146.671 30.5149C150.372 35.3684 139.979 50.0334 145.82 51.8068C145.911 51.8654 146.017 51.898 146.125 51.9013C146.234 51.9047 146.342 51.8785 146.437 51.8258C146.532 51.773 146.61 51.6955 146.665 51.6015C146.72 51.5075 146.748 51.4005 146.746 51.2918C147.078 49.9048 147.194 48.4763 147.438 47.07C147.882 44.5108 148.739 42.0406 149.974 39.7555C150.667 38.4755 152.907 33.7856 154.328 36.7423Z" fill="#263238"/>
<path opacity="0.097" d="M148.085 47.0212C147.788 47.8192 148.057 48.7016 148.286 49.5217C148.949 51.9003 149.258 54.3635 149.204 56.8322C149.214 56.8754 149.213 56.9203 149.201 56.9628C149.189 57.0054 149.166 57.0443 149.135 57.0759C149.104 57.1076 149.066 57.131 149.024 57.1442C148.981 57.1573 148.937 57.1598 148.893 57.1512C147.922 57.2108 146.809 57.2169 146.15 56.5009" fill="white"/>
</g>
<defs>
<clipPath id="clip0_206_5580">
<rect width="246" height="150.221" fill="white" transform="translate(0.5 0.889404)"/>
</clipPath>
</defs>
</svg>
