<svg width="201" height="200" viewBox="0 0 201 200" fill="none" xmlns="http://www.w3.org/2000/svg">
<path d="M156.363 96.4846L150.746 110.768L171.937 119.102L177.555 104.819L156.363 96.4846Z" fill="#EBEBEB"/>
<path d="M177.548 105C177.462 105.049 177.371 105.086 177.276 105.112L176.476 105.4L173.548 106.4L163.828 109.676L163.748 109.704L163.704 109.628L163.604 109.452L158.44 100.424L156.9 97.6882L156.5 96.9362C156.447 96.8523 156.404 96.7623 156.372 96.6682C156.435 96.7453 156.489 96.8283 156.536 96.9162L156.984 97.6482L158.584 100.364L163.784 109.36L163.888 109.536L163.764 109.492L173.508 106.272L176.46 105.324L177.26 105.076C177.354 105.044 177.45 105.018 177.548 105Z" fill="#E0E0E0"/>
<path d="M150.736 110.952C150.712 110.904 153.076 109.572 156.016 107.98C158.956 106.388 161.368 105.136 161.396 105.18C161.424 105.224 159.06 106.56 156.116 108.152C153.172 109.744 150.764 111.004 150.736 110.952Z" fill="#E0E0E0"/>
<path d="M168.5 107.78C168.556 107.78 169.368 110.324 170.312 113.504C171.256 116.684 171.976 119.268 171.912 119.284C171.848 119.3 171.044 116.74 170.1 113.56C169.156 110.38 168.456 107.796 168.5 107.78Z" fill="#E0E0E0"/>
<path d="M86.3194 156.577L65.9453 166.749L72.8007 180.48L93.1749 170.309L86.3194 156.577Z" fill="#EBEBEB"/>
<path d="M86.4639 156.716C86.437 156.81 86.4036 156.902 86.3639 156.992L86.0439 157.772C85.7519 158.468 85.3399 159.44 84.8439 160.628L80.7719 170.048L80.7359 170.124H80.6519L80.4519 170.08L70.2919 167.876L67.2159 167.184L66.3839 166.984C66.2863 166.964 66.19 166.937 66.0959 166.904C66.1958 166.906 66.2952 166.919 66.3919 166.944L67.2319 167.104L70.3199 167.732L80.4999 169.86L80.6999 169.904L80.5839 169.964C82.1839 166.3 83.6519 162.988 84.7119 160.572C85.2439 159.392 85.6759 158.428 85.9839 157.74C86.1319 157.424 86.2479 157.168 86.3359 156.976C86.3691 156.885 86.4121 156.798 86.4639 156.716Z" fill="#E0E0E0"/>
<path d="M72.9441 180.62C72.8881 180.62 73.4801 177.96 74.2641 174.708C75.0481 171.456 75.7361 168.828 75.7881 168.844C75.8401 168.86 75.2521 171.504 74.4681 174.756C73.6841 178.008 72.9961 180.632 72.9441 180.62Z" fill="#E0E0E0"/>
<path d="M82.476 165.292C82.5 165.24 84.948 166.352 87.94 167.776C90.932 169.2 93.344 170.4 93.3 170.448C93.256 170.496 90.832 169.388 87.836 167.964C84.84 166.54 82.452 165.34 82.476 165.292Z" fill="#E0E0E0"/>
<path d="M52.848 105.032C60.592 99.8642 62.48 90.0882 62.316 81.2722C62.288 79.8002 62.476 78.2522 61.788 76.9482C61.1 75.6442 59.456 74.7402 58.112 75.3482C56.996 75.8482 56.512 77.1122 55.86 78.1482C55.0067 79.5423 53.7767 80.6668 52.312 81.3922C51.356 81.8642 50.176 82.1442 49.248 81.6202C47.972 80.9002 47.848 79.1442 47.88 77.6802L48.06 69.5002C48.092 68.0402 48.12 66.5442 47.66 65.1482C47.2 63.7522 46.224 62.4482 44.82 62.0402C43.416 61.6322 41.656 62.4042 41.336 63.8322C41.204 64.4242 41.336 65.0322 41.268 65.6522C41.2 66.2722 40.92 66.9282 40.332 67.0882C39.744 67.2482 39.152 66.8282 38.732 66.3922C37.224 64.8922 36.216 62.9722 35.276 61.0682C34.336 59.1642 33.42 57.2082 32.076 55.5762C30.732 53.9442 28.812 52.6402 26.688 52.4882C24.564 52.3362 22.288 53.5962 21.716 55.6482C21.144 57.7002 22.336 59.8122 23.636 61.5002C25.5724 64.0121 27.8629 66.2298 30.436 68.0842C30.9 68.4202 31.4 68.7802 31.568 69.3242C31.876 70.3042 30.924 71.2602 29.944 71.5682C28.832 71.9122 27.636 71.7842 26.48 71.9002C25.324 72.0162 24.08 72.5002 23.604 73.5722C22.976 75.0602 24.22 76.6442 25.448 77.6922C27.9147 79.7831 30.7185 81.44 33.74 82.5922C34.824 82.9922 35.968 83.3642 36.836 84.1322C37.704 84.9002 38.212 86.2242 37.664 87.2482C37.116 88.2722 35.748 88.5802 34.608 88.3562C33.468 88.1322 32.456 87.5002 31.376 87.0802C29.352 86.2802 26.716 86.3882 25.376 88.1082C24.504 89.2362 24.4 90.8282 24.816 92.1962C25.2925 93.547 26.0367 94.7877 27.004 95.8442C30.1877 99.7291 34.3412 102.704 39.044 104.468C43.744 106.156 48.116 106.66 52.84 105.032" fill="#EBEBEB"/>
<path d="M50.6082 99.48C49.1971 94.6573 47.509 89.9201 45.5522 85.292C45.0402 84.0546 44.5348 82.836 44.0362 81.636C43.5322 80.436 43.0362 79.236 42.4802 78.12C41.3981 75.947 40.1962 73.8357 38.8802 71.796C37.6442 69.84 36.3922 68.028 35.2162 66.34C34.0402 64.652 32.8962 63.108 31.8042 61.736C30.0876 59.5649 28.2017 57.5332 26.1642 55.66C25.4442 54.996 24.8682 54.496 24.4762 54.164L24.0242 53.788L23.8682 53.668C23.8682 53.668 23.9122 53.716 24.0122 53.808L24.4482 54.208C24.8482 54.552 25.3962 55.056 26.1082 55.728C28.122 57.6201 29.9912 59.6605 31.7002 61.832C32.7842 63.204 33.9082 64.76 35.0842 66.444C36.2602 68.128 37.4842 69.952 38.7282 71.908C40.0313 73.9435 41.2211 76.0493 42.2922 78.216C42.8482 79.344 43.3402 80.52 43.8402 81.724C44.3402 82.928 44.8442 84.124 45.3562 85.376C47.3104 89.9965 49.0011 94.7241 50.4202 99.536" fill="#E0E0E0"/>
<path d="M42.424 78.1001C42.4899 77.8967 42.5381 77.6879 42.568 77.4761C42.648 77.0761 42.748 76.4841 42.86 75.7561C43.088 74.3041 43.34 72.2841 43.608 70.0601C43.876 67.8361 44.16 65.8201 44.408 64.3761C44.536 63.6521 44.648 63.0681 44.728 62.6641C44.7793 62.4579 44.8141 62.2479 44.832 62.0361C44.7503 62.2338 44.6874 62.4387 44.644 62.6481C44.536 63.0481 44.404 63.6241 44.244 64.3481C43.944 65.7881 43.636 67.8041 43.368 70.0321C43.1 72.2601 42.868 74.2361 42.688 75.7361C42.596 76.4321 42.52 77.0121 42.464 77.4601C42.4314 77.6718 42.418 77.886 42.424 78.1001Z" fill="#E0E0E0"/>
<path d="M23.4199 74.3002C23.4842 74.3166 23.5498 74.3273 23.6159 74.3322L24.1799 74.3882C24.6679 74.4362 25.3799 74.5042 26.2479 74.6122C27.9879 74.8202 30.3879 75.1962 33.0159 75.7242C35.6439 76.2522 37.9959 76.8442 39.6879 77.3242C40.5359 77.5562 41.2159 77.7602 41.6879 77.9002L42.2319 78.0602C42.2952 78.0828 42.361 78.0976 42.4279 78.1042C42.3722 78.0679 42.3116 78.0397 42.2479 78.0203L41.7159 77.8203C41.2519 77.6523 40.5799 77.4202 39.7159 77.1722C38.0319 76.6562 35.6759 76.0482 33.0439 75.5122C30.4119 74.9762 27.9999 74.6323 26.2439 74.4643C25.3679 74.3723 24.6439 74.3283 24.1639 74.3083H23.5959C23.5379 74.2973 23.4787 74.2946 23.4199 74.3002Z" fill="#E0E0E0"/>
<path d="M50.3999 99.1241C50.4521 99.0539 50.4952 98.9773 50.5279 98.8961C50.6159 98.7201 50.7279 98.4961 50.8639 98.2161C51.1479 97.6281 51.5439 96.7641 52.0159 95.6921C52.9639 93.5521 54.1839 90.5521 55.4879 87.2241C56.7919 83.8961 57.9879 80.8921 58.8959 78.7361L59.9879 76.1881L60.2799 75.4921C60.3186 75.4127 60.3494 75.3296 60.3719 75.2441C60.3191 75.3147 60.2748 75.3912 60.2399 75.4721L59.9079 76.1521C59.6199 76.7401 59.2279 77.6041 58.7559 78.6761C57.8039 80.8161 56.5879 83.8161 55.2839 87.1441C53.9799 90.4721 52.7839 93.4761 51.8719 95.6321L50.7839 98.1801L50.4879 98.8761C50.449 98.9551 50.4195 99.0383 50.3999 99.1241Z" fill="#E0E0E0"/>
<path d="M25.2 90.6919C25.281 90.7323 25.3653 90.7658 25.452 90.7919L26.184 91.0399L28.9 91.9399C31.18 92.7039 34.3159 93.7959 37.7799 95.0119C41.2439 96.2279 44.3879 97.2959 46.684 98.0239C47.8279 98.3839 48.7599 98.6719 49.4079 98.8559L50.1519 99.0639C50.2372 99.0945 50.3258 99.1147 50.416 99.1239C50.3359 99.0814 50.2514 99.0478 50.164 99.0239L49.4319 98.7719L46.732 97.8719C44.452 97.1119 41.3159 96.0199 37.8519 94.8039C34.3879 93.5879 31.2439 92.5199 28.9519 91.7919C27.804 91.4279 26.872 91.1439 26.224 90.9599L25.48 90.7479C25.3892 90.7182 25.2952 90.6994 25.2 90.6919Z" fill="#E0E0E0"/>
<path d="M53.228 17.8398H30.66C29.1048 17.8398 27.844 19.1006 27.844 20.6558V31.8038C27.844 33.3591 29.1048 34.6198 30.66 34.6198H53.228C54.7832 34.6198 56.044 33.3591 56.044 31.8038V20.6558C56.044 19.1006 54.7832 17.8398 53.228 17.8398Z" fill="#E0E0E0"/>
<path d="M44.9958 34.0881L51.6639 40.0081L52.2118 34.1921" fill="#E0E0E0"/>
<path d="M38.2758 26.4719C38.2758 26.797 38.1794 27.1149 37.9987 27.3852C37.8181 27.6556 37.5613 27.8663 37.2609 27.9907C36.9605 28.1152 36.63 28.1477 36.3111 28.0843C35.9922 28.0209 35.6992 27.8643 35.4693 27.6344C35.2394 27.4044 35.0828 27.1115 35.0194 26.7926C34.9559 26.4737 34.9885 26.1432 35.1129 25.8427C35.2374 25.5423 35.4481 25.2856 35.7184 25.1049C35.9888 24.9243 36.3066 24.8279 36.6318 24.8279C37.0678 24.8279 37.486 25.0011 37.7943 25.3094C38.1026 25.6177 38.2758 26.0359 38.2758 26.4719Z" fill="white"/>
<path d="M43.924 26.4719C43.924 26.7972 43.8275 27.1152 43.6466 27.3857C43.4658 27.6561 43.2088 27.8668 42.9082 27.9911C42.6076 28.1154 42.2768 28.1478 41.9578 28.084C41.6388 28.0202 41.3458 27.8633 41.1161 27.6329C40.8863 27.4026 40.7301 27.1093 40.6671 26.7902C40.6041 26.471 40.6372 26.1403 40.7623 25.84C40.8873 25.5396 41.0987 25.2832 41.3695 25.103C41.6404 24.9228 41.9587 24.8271 42.284 24.8279C42.4997 24.8279 42.7133 24.8704 42.9125 24.9531C43.1118 25.0358 43.2927 25.1569 43.4451 25.3096C43.5974 25.4624 43.7181 25.6436 43.8003 25.8431C43.8825 26.0425 43.9245 26.2562 43.924 26.4719Z" fill="white"/>
<path d="M49.5761 26.4719C49.5761 26.7972 49.4796 27.1152 49.2987 27.3857C49.1179 27.6561 48.8609 27.8668 48.5603 27.9911C48.2597 28.1154 47.9289 28.1478 47.6099 28.084C47.2909 28.0202 46.9979 27.8633 46.7682 27.6329C46.5384 27.4026 46.3822 27.1093 46.3192 26.7902C46.2562 26.471 46.2893 26.1403 46.4144 25.84C46.5394 25.5396 46.7508 25.2832 47.0216 25.103C47.2925 24.9228 47.6108 24.8271 47.9361 24.8279C48.3714 24.8289 48.7885 25.0026 49.096 25.3108C49.4034 25.619 49.5761 26.0366 49.5761 26.4719Z" fill="white"/>
<path d="M134.91 35.8408L129.292 50.1238L150.484 58.4586L156.102 44.1757L134.91 35.8408Z" fill="#EBEBEB"/>
<path d="M156.1 44.3601C156.014 44.4089 155.923 44.4478 155.828 44.4761L155.028 44.7601L152.1 45.7721L142.376 49.0481L142.296 49.0761L142.252 49.0001L142.152 48.8241L136.984 39.7961C136.344 38.6521 135.816 37.7201 135.44 37.0481L135.04 36.2961C134.987 36.2115 134.943 36.1217 134.908 36.0281C134.972 36.1052 135.028 36.1882 135.076 36.2761L135.52 37.0081C135.92 37.6721 136.452 38.6081 137.12 39.7241L142.32 48.7201L142.42 48.9001L142.3 48.8521L152.04 45.6521L154.996 44.7001L155.796 44.4521C155.895 44.4138 155.997 44.383 156.1 44.3601Z" fill="#E0E0E0"/>
<path d="M129.3 50.3119C129.272 50.2639 131.636 48.9319 134.576 47.3399C137.516 45.7479 139.928 44.4959 139.956 44.5399C139.984 44.5839 137.62 45.9199 134.676 47.5119C131.732 49.1039 129.3 50.3639 129.3 50.3119Z" fill="#E0E0E0"/>
<path d="M147.056 47.1399C147.108 47.1399 147.92 49.6879 148.864 52.8639C149.808 56.0399 150.532 58.6319 150.464 58.6479C150.396 58.6639 149.6 56.0999 148.656 52.9239C147.712 49.7479 147 47.1559 147.056 47.1399Z" fill="#E0E0E0"/>
<path d="M187.74 186.568C187.74 186.624 148.68 186.672 100.504 186.672C52.3278 186.672 13.2598 186.624 13.2598 186.568C13.2598 186.512 52.3118 186.464 100.504 186.464C148.696 186.464 187.74 186.508 187.74 186.568Z" fill="#263238"/>
<path d="M103.66 103.568C106.51 103.568 108.82 101.258 108.82 98.4081C108.82 95.5583 106.51 93.248 103.66 93.248C100.81 93.248 98.5 95.5583 98.5 98.4081C98.5 101.258 100.81 103.568 103.66 103.568Z" fill="#2491FF"/>
<path d="M121.42 103.568C124.27 103.568 126.58 101.258 126.58 98.4081C126.58 95.5583 124.27 93.248 121.42 93.248C118.57 93.248 116.26 95.5583 116.26 98.4081C116.26 101.258 118.57 103.568 121.42 103.568Z" fill="#2491FF"/>
<path d="M155.764 71.708C155.864 71.6871 155.966 71.6804 156.068 71.688C156.368 71.6893 156.667 71.7228 156.96 71.788C157.446 71.8894 157.915 72.0648 158.348 72.308C158.95 72.6456 159.478 73.1014 159.9 73.6479C160.443 74.3454 160.795 75.1727 160.92 76.0479C160.958 76.2929 160.979 76.5401 160.984 76.788C160.984 77.036 160.984 77.284 160.984 77.54C160.984 78.052 160.984 78.588 160.984 79.14C161.004 81.36 161.02 83.9119 161.044 86.7719C161.072 92.496 161.104 99.456 161.144 107.468C161.144 109.471 161.152 111.537 161.168 113.668C161.168 114.735 161.168 115.816 161.168 116.912C161.168 117.46 161.168 118.012 161.168 118.568C161.168 118.844 161.168 119.124 161.168 119.404C161.163 119.707 161.136 120.009 161.088 120.308C160.881 121.551 160.25 122.685 159.302 123.516C158.354 124.347 157.148 124.825 155.888 124.868L148.6 124.892L149.032 124.492C148.56 129.616 148.064 135.028 147.544 140.644L147.464 141.52L146.784 140.96L127.22 124.84L127.54 124.952L87.452 124.972H78.04C77.72 124.972 77.428 124.972 77.088 124.972C76.2275 124.952 75.3836 124.731 74.6237 124.327C73.8639 123.923 73.2092 123.346 72.712 122.644C72.3158 122.087 72.0244 121.462 71.852 120.8C71.7038 120.158 71.6433 119.498 71.672 118.84C71.672 117.613 71.672 116.389 71.672 115.168C71.672 112.733 71.672 110.316 71.672 107.916C71.672 98.316 71.692 89.076 71.7 80.264C71.7 79.164 71.7 78.068 71.7 76.984C71.6845 76.3961 71.7587 75.8094 71.92 75.244C72.0841 74.6748 72.3365 74.1349 72.668 73.644C73.3341 72.6767 74.291 71.9468 75.4 71.5599C75.9435 71.3661 76.515 71.2621 77.092 71.252C77.636 71.252 78.144 71.252 78.672 71.252L90.816 71.276L112.612 71.34L144.176 71.5039L152.756 71.6039L154.988 71.656C155.242 71.6505 155.497 71.6679 155.748 71.708C155.497 71.7506 155.242 71.768 154.988 71.7599L152.756 71.812L144.176 71.912L112.612 72.076L90.816 72.14L78.672 72.164C78.156 72.164 77.616 72.164 77.112 72.164C76.6315 72.1724 76.1557 72.2603 75.704 72.424C74.7857 72.7485 73.9943 73.3564 73.444 74.1599C72.8876 74.9851 72.6075 75.9655 72.644 76.9599C72.644 78.0439 72.644 79.14 72.644 80.24C72.644 89.04 72.664 98.3 72.676 107.892C72.676 110.292 72.676 112.709 72.676 115.144V118.816C72.6466 119.388 72.6978 119.962 72.828 120.52C73.0373 121.333 73.4689 122.071 74.0743 122.653C74.6798 123.234 75.4352 123.636 76.256 123.812C76.5299 123.869 76.8082 123.903 77.088 123.912C77.372 123.912 77.704 123.912 78.012 123.912H87.5L127.588 123.932H127.768L127.908 124.048L147.428 140.22L146.664 140.536C147.204 134.936 147.724 129.512 148.22 124.392L148.256 123.992H148.656H155.92C156.992 123.96 158.02 123.558 158.829 122.855C159.639 122.151 160.179 121.189 160.36 120.132C160.401 119.877 160.424 119.619 160.428 119.36C160.428 119.08 160.428 118.8 160.428 118.524C160.428 117.968 160.428 117.416 160.428 116.868C160.428 115.772 160.428 114.691 160.428 113.624C160.428 111.491 160.436 109.424 160.452 107.424C160.492 99.424 160.524 92.452 160.552 86.728C160.576 83.868 160.592 81.316 160.612 79.096C160.612 78.544 160.612 78.008 160.612 77.496C160.612 77.24 160.612 76.992 160.612 76.744C160.612 76.5113 160.597 76.2788 160.568 76.0479C160.465 75.224 160.153 74.4403 159.66 73.7719C159.271 73.239 158.781 72.7889 158.216 72.4479C157.805 72.1977 157.361 72.0078 156.896 71.884C156.176 71.724 155.764 71.748 155.764 71.708Z" fill="#2491FF"/>
<path d="M44.7601 97.3882H122.672C124.094 97.3882 125.457 97.9529 126.462 98.9581C127.467 99.9633 128.032 101.327 128.032 102.748V144.772C128.032 146.194 127.467 147.557 126.462 148.562C125.457 149.567 124.094 150.132 122.672 150.132H44.7601C43.3396 150.132 41.9772 149.568 40.9728 148.563C39.9683 147.559 39.4041 146.197 39.4041 144.776V102.748C39.4035 102.044 39.5417 101.348 39.8106 100.697C40.0795 100.047 40.474 99.4561 40.9714 98.9583C41.4688 98.4606 42.0594 98.0657 42.7095 97.7963C43.3596 97.5269 44.0564 97.3882 44.7601 97.3882Z" fill="#2491FF"/>
<path d="M93.3162 148.444L114.272 167.052L115.992 148.776" fill="#2491FF"/>
<path d="M67.0279 129.664C69.8777 129.664 72.1879 127.354 72.1879 124.504C72.1879 121.654 69.8777 119.344 67.0279 119.344C64.1781 119.344 61.8679 121.654 61.8679 124.504C61.8679 127.354 64.1781 129.664 67.0279 129.664Z" fill="white"/>
<path d="M84.7882 129.664C87.638 129.664 89.9482 127.354 89.9482 124.504C89.9482 121.654 87.638 119.344 84.7882 119.344C81.9384 119.344 79.6282 121.654 79.6282 124.504C79.6282 127.354 81.9384 129.664 84.7882 129.664Z" fill="white"/>
<path d="M102.548 129.664C105.398 129.664 107.708 127.354 107.708 124.504C107.708 121.654 105.398 119.344 102.548 119.344C99.6981 119.344 97.3879 121.654 97.3879 124.504C97.3879 127.354 99.6981 129.664 102.548 129.664Z" fill="white"/>
<g opacity="0.3">
<path d="M124.724 97.6L116.396 97.356H51.9961C57.3481 102.68 65.0001 105.528 72.5161 106.184C80.0321 106.84 87.5881 105.696 95.0241 104.408C102.46 103.12 109.928 101.68 117.476 101.736C119.076 101.736 120.72 101.816 122.2 101.224C123.68 100.632 124.944 99.2 124.724 97.6Z" fill="#1E232C"/>
</g>
<path d="M139.18 103.568C142.03 103.568 144.34 101.258 144.34 98.4081C144.34 95.5583 142.03 93.248 139.18 93.248C136.33 93.248 134.02 95.5583 134.02 98.4081C134.02 101.258 136.33 103.568 139.18 103.568Z" fill="#2491FF"/>
<path d="M94.7119 22.5361C92.6335 22.5676 90.6184 23.256 88.955 24.5026C87.2917 25.7492 86.0654 27.4901 85.4519 29.4761C84.8679 31.5281 84.9839 33.7121 84.6079 35.8161C84.2319 37.9201 83.1719 40.1201 81.1759 40.8801C79.8759 41.3721 78.3759 41.1681 77.0959 41.6801C76.4938 41.9214 75.9619 42.31 75.5489 42.8101C75.136 43.3103 74.8551 43.9061 74.7321 44.543C74.6091 45.1798 74.6479 45.8374 74.8449 46.4554C75.042 47.0733 75.3909 47.632 75.8599 48.0801C75.0692 48.7614 74.5391 49.6957 74.3599 50.7239C74.1808 51.7521 74.3636 52.8106 74.8773 53.7192C75.391 54.6277 76.2038 55.33 77.1772 55.7066C78.1507 56.0831 79.2245 56.1105 80.2159 55.7841C79.4759 56.9841 79.7199 58.5841 80.5879 59.6801C81.5121 60.7426 82.8161 61.4003 84.2199 61.5121C85.6096 61.6162 87.007 61.4905 88.3559 61.1401C91.3879 60.4681 94.4279 59.3881 96.7079 57.2801C99.2079 54.9681 100.532 51.6801 101.536 48.4121C103.448 42.1921 104.468 35.4921 102.904 29.1761" fill="#263238"/>
<path d="M80.772 57.2001L77.4 64.5721L70.02 48.3081C69.672 46.9921 69.28 45.5081 69.2 45.2121C69.0811 44.7569 69.0392 44.2851 69.076 43.8161C69.1005 43.2338 69.2055 42.6576 69.388 42.1041C69.608 41.6121 69.116 41.1121 68.692 41.3521C68.268 41.5921 67.632 42.9521 67.652 44.6601C67.672 46.3681 61.724 42.2881 60.76 43.2561L61.48 48.9761C62.132 49.5721 63.972 51.2161 64.996 52.1241L71.956 69.4441C72.346 70.5101 73.0331 71.4422 73.936 72.1301C74.839 72.818 75.92 73.2329 77.0513 73.3259C78.1826 73.4189 79.3169 73.186 80.32 72.6547C81.3232 72.1235 82.1532 71.3161 82.712 70.3281L87.196 62.4241L80.772 57.2001Z" fill="#FFBE9D"/>
<path d="M65.1359 38.0001C65.165 37.9897 65.1959 37.9856 65.2268 37.9879C65.2576 37.9903 65.2875 37.9991 65.3147 38.0139C65.3419 38.0286 65.3656 38.0489 65.3845 38.0734C65.4033 38.0979 65.4167 38.1261 65.4239 38.1561L69.2519 49.5201C69.288 49.6194 69.2895 49.728 69.2561 49.8282C69.2227 49.9284 69.1564 50.0144 69.0679 50.0721L64.5239 52.6201C64.4779 52.6441 64.4271 52.6574 64.3753 52.6592C64.3235 52.661 64.2719 52.6512 64.2244 52.6305C64.1768 52.6098 64.1345 52.5787 64.1005 52.5395C64.0665 52.5004 64.0417 52.4541 64.0279 52.4041L59.7239 40.6401C59.6808 40.5341 59.6796 40.4157 59.7204 40.3088C59.7613 40.2019 59.8411 40.1145 59.9439 40.0641L65.1359 38.0001Z" fill="#263238"/>
<path d="M65.2601 38.8359L68.7801 48.9719L64.2801 51.3719L60.4121 40.7599L65.2601 38.8359Z" fill="#F5F5F5"/>
<path d="M61.2719 41.4481C61.4079 41.7961 61.6319 42.3561 61.7719 42.7041C61.7881 42.745 61.8124 42.7822 61.8433 42.8136C61.8742 42.8449 61.9111 42.8698 61.9517 42.8865C61.9924 42.9033 62.0361 42.9118 62.0801 42.9114C62.1241 42.9109 62.1676 42.9016 62.2079 42.8841L64.6079 41.8801L65.4359 42.0001L65.2039 41.5641L65.4759 41.4521C65.5168 41.4359 65.5541 41.4116 65.5854 41.3807C65.6168 41.3498 65.6416 41.3129 65.6584 41.2722C65.6752 41.2316 65.6836 41.1879 65.6832 41.1439C65.6828 41.0999 65.6735 41.0564 65.6559 41.0161L65.1679 39.8761C65.1336 39.7968 65.0694 39.7343 64.9893 39.7021C64.9091 39.6699 64.8195 39.6706 64.7399 39.7041L61.4679 41.0241C61.4267 41.0383 61.3888 41.0607 61.3564 41.09C61.3241 41.1193 61.298 41.1547 61.2797 41.1943C61.2614 41.2339 61.2512 41.2768 61.2499 41.3204C61.2486 41.364 61.2561 41.4074 61.2719 41.4481Z" fill="#E0E0E0"/>
<path d="M63.3001 47.44L63.8001 48.692C63.8164 48.7325 63.8405 48.7693 63.8711 48.8003C63.9017 48.8313 63.9382 48.8559 63.9784 48.8727C64.0186 48.8894 64.0618 48.898 64.1053 48.8979C64.1489 48.8978 64.192 48.889 64.2321 48.872L66.6321 47.868L67.4601 47.988L67.2281 47.552L67.5001 47.44C67.5411 47.4238 67.5783 47.3996 67.6097 47.3687C67.641 47.3378 67.6658 47.3009 67.6826 47.2602C67.6994 47.2195 67.7079 47.1759 67.7074 47.1319C67.707 47.0879 67.6977 47.0444 67.6801 47.004L67.1921 45.868C67.1759 45.8286 67.1521 45.7927 67.122 45.7625C67.0919 45.7323 67.0561 45.7083 67.0167 45.692C66.9773 45.6756 66.9351 45.6672 66.8924 45.6672C66.8498 45.6672 66.8075 45.6757 66.7681 45.692L63.4921 47.012C63.4511 47.0271 63.4135 47.0502 63.3816 47.0801C63.3496 47.1099 63.324 47.1458 63.3061 47.1856C63.2882 47.2255 63.2785 47.2686 63.2774 47.3122C63.2764 47.3559 63.2841 47.3994 63.3001 47.44Z" fill="#E0E0E0"/>
<path d="M66.0999 42.864C66.2519 43.204 66.4999 43.76 66.6439 44.1C66.6616 44.1401 66.6711 44.1833 66.6718 44.2272C66.6725 44.271 66.6644 44.3145 66.648 44.3551C66.6316 44.3958 66.6072 44.4327 66.5763 44.4638C66.5453 44.4949 66.5085 44.5194 66.4679 44.536L64.0679 45.536L63.5759 46.212L63.4239 45.736L63.1559 45.856C63.1158 45.8731 63.0726 45.8822 63.0289 45.8826C62.9852 45.883 62.9419 45.8748 62.9014 45.8585C62.8609 45.8421 62.824 45.8179 62.7929 45.7873C62.7617 45.7567 62.737 45.7202 62.7199 45.68L62.2479 44.532C62.2158 44.4518 62.2162 44.3622 62.2491 44.2823C62.2819 44.2023 62.3447 44.1384 62.4239 44.104L65.6599 42.696C65.6997 42.6774 65.7429 42.6671 65.7868 42.6655C65.8307 42.6639 65.8744 42.6712 65.9155 42.6869C65.9565 42.7025 65.994 42.7263 66.0257 42.7567C66.0574 42.7871 66.0826 42.8236 66.0999 42.864Z" fill="#E0E0E0"/>
<path d="M60.76 43.54C61.532 43.668 62.48 43.744 63.252 43.872C63.4747 43.8913 63.6898 43.9625 63.88 44.08C63.9719 44.1424 64.0395 44.2345 64.0716 44.3408C64.1036 44.4472 64.0981 44.5613 64.056 44.664C63.932 44.888 63.628 44.904 63.372 44.896C62.804 44.896 62.172 45 61.604 44.98C62.332 45.044 63.004 45.104 63.816 45.2C63.9884 45.2168 64.15 45.2916 64.2743 45.4123C64.3986 45.5329 64.4782 45.6922 64.5 45.864C64.4874 46.0094 64.4239 46.1456 64.3207 46.2488C64.2176 46.3519 64.0814 46.4154 63.936 46.428C63.6377 46.4487 63.3383 46.4487 63.04 46.428C63.04 46.428 61.868 46.428 61.816 46.596C62.548 46.596 63.512 46.748 64.244 46.816C64.444 46.816 64.532 47.104 64.58 47.3C64.6091 47.3963 64.6043 47.4996 64.5664 47.5928C64.5286 47.6859 64.46 47.7633 64.372 47.812C64.2793 47.8426 64.1812 47.8535 64.084 47.844C63.136 47.816 62.644 47.876 61.684 47.844" fill="#FFBE9D"/>
<path d="M78.3161 69.836C78.3897 68.922 78.3575 68.0026 78.2201 67.096C78.0137 66.2016 77.7036 65.3344 77.2961 64.512C77.4899 64.7087 77.6482 64.9374 77.7641 65.188C78.0774 65.7736 78.3 66.4035 78.4241 67.056C78.5533 67.7146 78.5789 68.3894 78.5001 69.056C78.4855 69.3248 78.4232 69.5889 78.3161 69.836Z" fill="#EB996E"/>
<path d="M64.42 46.9362C63.8678 46.9766 63.3127 46.947 62.768 46.8482C62.316 46.8042 61.9 46.7122 61.624 46.7122C61.4715 46.7219 61.3228 46.7641 61.188 46.8362C61.188 46.8362 61.188 46.7802 61.26 46.7162C61.3581 46.6299 61.4817 46.5779 61.612 46.5682C62.0067 46.5561 62.4017 46.5803 62.792 46.6402C63.3447 46.6722 63.8914 46.7716 64.42 46.9362Z" fill="#EB996E"/>
<path d="M64.1599 45.2762C63.6132 45.3169 63.0636 45.2886 62.5239 45.1922C62.0759 45.1482 61.6639 45.0522 61.3959 45.0602C61.1279 45.0682 60.9959 45.2242 60.9719 45.2002C60.9479 45.1762 61.0479 44.9722 61.3719 44.9162C61.5498 44.8922 61.7301 44.8922 61.9079 44.9162L62.5399 44.9842C63.09 45.0137 63.6342 45.1118 64.1599 45.2762Z" fill="#EB996E"/>
<path d="M86.9841 79.5439C86.9841 79.5439 62.6401 77.7039 55.5961 83.2159C48.5521 88.7279 51.9241 97.6159 51.9241 97.6159H91.7321L93.2601 79.2559L86.9841 79.5439Z" fill="#263238"/>
<path d="M91.5641 92.1882C91.445 92.1909 91.3258 92.1829 91.2081 92.1642C90.9761 92.1362 90.6321 92.1042 90.1961 92.0442C89.3161 91.9322 88.0441 91.7522 86.4801 91.4882C82.4082 90.7878 78.3802 89.8529 74.4161 88.6882C72.1001 88.0002 69.9001 87.3162 67.8721 86.8002C66.08 86.3369 64.2476 86.0462 62.4001 85.9322C61.1546 85.8632 59.9053 85.9356 58.6761 86.1482C58.2361 86.2042 57.9081 86.3122 57.6801 86.3522C57.5645 86.3828 57.4469 86.4055 57.3281 86.4202C57.4384 86.3753 57.5521 86.3391 57.6681 86.3122C57.9943 86.2135 58.3254 86.132 58.6601 86.0682C59.8934 85.8223 61.1519 85.7269 62.4081 85.7842C64.2672 85.8782 66.1122 86.1569 67.9161 86.6162C69.9561 87.1082 72.1601 87.8162 74.4761 88.4842C78.4318 89.6453 82.4453 90.5999 86.5001 91.3442C88.0561 91.6242 89.3241 91.8282 90.1961 91.9642L91.2041 92.1202C91.4441 92.1602 91.5641 92.1842 91.5641 92.1882Z" fill="#455A64"/>
<path d="M68.588 86.7039C67.9047 86.1316 67.1726 85.6203 66.4 85.1759C65.595 84.7918 64.7569 84.4812 63.896 84.2479C64.1655 84.2289 64.4363 84.2573 64.696 84.3319C65.3253 84.4688 65.9334 84.6894 66.504 84.9879C67.0733 85.288 67.6005 85.6619 68.072 86.0999C68.2768 86.2707 68.4513 86.4749 68.588 86.7039Z" fill="#455A64"/>
<path d="M104.604 77.252C104.604 77.252 82.3359 77.856 75.2919 83.3679C68.2479 88.8799 71.6199 97.768 71.6199 97.768L113.38 98.4V93.02L107.964 92.4359L107.924 92.188C110.024 89.888 108.424 81.872 104.928 77.644L104.604 77.252Z" fill="#263238"/>
<path d="M110.856 92.8C110.737 92.7997 110.618 92.7903 110.5 92.772C110.268 92.748 109.928 92.712 109.488 92.656C108.608 92.544 107.336 92.364 105.776 92.096C101.702 91.3984 97.6727 90.4635 93.7079 89.296C91.3879 88.608 89.1959 87.912 87.1639 87.412C85.3748 86.9454 83.5451 86.6507 81.6999 86.532C80.4544 86.463 79.2051 86.5354 77.9759 86.748C77.5359 86.804 77.2079 86.916 76.9799 86.956C76.8645 86.987 76.7468 87.0084 76.6279 87.02C76.738 86.9756 76.8518 86.9408 76.9679 86.916C77.294 86.8161 77.6252 86.7333 77.9599 86.668C79.1913 86.4286 80.447 86.3387 81.6999 86.4C83.5579 86.4831 85.4031 86.7511 87.2079 87.2C89.2519 87.696 91.4519 88.4 93.7679 89.072C97.726 90.2302 101.742 91.1795 105.8 91.916C107.356 92.2 108.624 92.404 109.5 92.54L110.508 92.696C110.627 92.7201 110.743 92.7549 110.856 92.8Z" fill="#455A64"/>
<path d="M87.88 87.296C87.1963 86.7231 86.4642 86.2105 85.692 85.764C84.8852 85.3841 84.0475 85.0736 83.188 84.836C83.4578 84.8173 83.7287 84.8471 83.988 84.924C85.2531 85.1987 86.4208 85.8095 87.368 86.692C87.5709 86.8636 87.7439 87.0677 87.88 87.296Z" fill="#455A64"/>
<path d="M93.092 78.1759C92.9792 78.2054 92.8641 78.2255 92.748 78.2359L91.756 78.3759C90.9 78.5039 89.66 78.7119 88.156 79.0159C86.652 79.3199 84.828 79.7159 82.832 80.1919C80.6689 80.6908 78.5954 81.5191 76.684 82.6479C75.701 83.2362 74.801 83.9532 74.008 84.7799C73.2763 85.5562 72.6533 86.4282 72.156 87.3719C71.3157 88.9773 70.87 90.7599 70.856 92.5719C70.8451 93.792 71.0232 95.0064 71.384 96.1719C71.512 96.5719 71.632 96.8999 71.716 97.1119C71.762 97.2189 71.8021 97.3284 71.836 97.4399C71.772 97.3417 71.7184 97.2372 71.676 97.1279C71.5372 96.8239 71.4143 96.5128 71.308 96.1959C70.8171 94.7388 70.6243 93.1979 70.7411 91.6648C70.858 90.1317 71.282 88.6378 71.988 87.2719C72.4863 86.309 73.1149 85.4193 73.856 84.6279C74.6606 83.7857 75.5756 83.0564 76.576 82.4599C78.499 81.3218 80.5883 80.4918 82.768 79.9999C84.768 79.5319 86.58 79.1559 88.108 78.8679C89.636 78.5799 90.884 78.3959 91.744 78.2919C92.176 78.2399 92.512 78.2039 92.744 78.1879C92.8597 78.1776 92.9758 78.1736 93.092 78.1759Z" fill="#455A64"/>
<path d="M113.38 93.2881L117.188 93.0481L119.712 94.5161L124.548 95.0441C126.864 95.1641 127.232 97.6561 125.808 97.6561C124.676 97.6561 117.904 98.0961 117.904 98.0961L113.38 98.2161V93.2881Z" fill="#E0E0E0"/>
<path d="M119.568 94.5239C119.403 94.6674 119.2 94.7616 118.984 94.7959C118.466 94.9257 117.921 94.8919 117.423 94.6992C116.925 94.5065 116.5 94.1644 116.204 93.7199C116.066 93.5505 115.98 93.345 115.956 93.1279C115.984 93.1279 116.084 93.3359 116.324 93.6359C116.631 94.025 117.037 94.3246 117.499 94.5033C117.961 94.682 118.463 94.7334 118.952 94.6519C119.332 94.5919 119.556 94.4919 119.568 94.5239Z" fill="#455A64"/>
<path d="M125.612 97.6C125.612 97.624 125.42 97.672 125.148 97.532C124.982 97.4289 124.84 97.2924 124.729 97.1313C124.619 96.9702 124.544 96.7879 124.508 96.596C124.394 96.2226 124.43 95.8195 124.608 95.472C124.76 95.208 124.944 95.132 124.956 95.156C124.968 95.18 124.84 95.292 124.74 95.556C124.619 95.8811 124.609 96.2368 124.712 96.568C124.773 96.9059 124.955 97.21 125.224 97.424C125.436 97.568 125.616 97.576 125.612 97.6Z" fill="#455A64"/>
<path d="M88.1 46.9481C88.1 46.9481 83.352 57.3841 83.632 59.1561C83.912 60.9281 85.3 68.0001 85.3 68.0001L86.304 79.5041C86.304 79.5041 104.236 77.3321 104.608 77.3321C104.98 77.3321 104.048 67.8161 104.048 67.8161L106.78 49.5281C106.78 49.5281 105.528 47.0361 99.88 46.1721C96.5 45.6481 88.1 46.9481 88.1 46.9481Z" fill="#2491FF"/>
<path d="M101.208 61.0122C101.437 62.8726 102.011 64.6741 102.9 66.3242C103.244 66.9442 103.564 67.8162 104.132 68.2402C105.02 68.9082 106.296 68.2802 107.1 67.5162C107.904 66.7522 108.72 65.7842 109.828 65.7442C110.536 65.7202 111.192 66.0882 111.884 66.2362C112.576 66.3842 113.484 66.1562 113.632 65.4682C113.677 65.0618 113.581 64.6524 113.36 64.3082C111.663 60.9367 110.364 57.3796 109.488 53.7082C109.119 52.6655 108.647 51.6619 108.08 50.7122C107.68 50.0362 106.648 49.0562 105.632 48.2322" fill="#2491FF"/>
<path d="M91.4841 46.2559C86.5481 46.4279 82.8481 49.6919 81.7961 52.0439C80.5601 54.8039 79.6001 58.1399 78.1521 60.7959C77.8271 61.2904 77.5752 61.8293 77.4041 62.3959C77.3243 62.6827 77.3335 62.9871 77.4307 63.2686C77.5278 63.5501 77.7083 63.7953 77.9481 63.9719C78.6921 64.4119 79.7721 63.8399 80.4561 64.3719C80.8321 64.6599 80.9441 65.1719 81.2561 65.5319C81.6561 65.9599 82.2841 66.0479 82.8561 66.1119L86.1881 66.4719" fill="#2491FF"/>
<path d="M100.1 56.4401C100.019 56.3154 99.9549 56.181 99.9082 56.0401C99.7653 55.6647 99.6659 55.2741 99.6122 54.8761C99.4164 53.5446 99.6865 52.1865 100.377 51.0312C101.067 49.876 102.135 48.9946 103.4 48.5361C103.776 48.3964 104.167 48.2998 104.564 48.2481C104.71 48.2253 104.858 48.2253 105.004 48.2481C104.476 48.358 103.957 48.5078 103.452 48.6961C102.24 49.1726 101.22 50.0378 100.552 51.1561C99.8836 52.2744 99.6053 53.5827 99.7602 54.8761C99.8366 55.4047 99.9503 55.9274 100.1 56.4401Z" fill="#263238"/>
<path d="M86.544 52.3521C86.4747 52.5329 86.3891 52.7069 86.288 52.872C86.196 53.036 86.088 53.236 85.98 53.476C85.872 53.716 85.728 53.98 85.604 54.276C85.2962 54.9902 85.0356 55.7238 84.824 56.472C84.5701 57.39 84.3869 58.3261 84.276 59.272C84.1767 60.2179 84.1472 61.1698 84.188 62.12C84.2269 62.8957 84.3164 63.668 84.456 64.432C84.508 64.76 84.584 65.048 84.64 65.3081C84.696 65.568 84.756 65.784 84.808 65.964C84.8671 66.1482 84.9112 66.3368 84.94 66.5281C84.8516 66.3555 84.7806 66.1746 84.728 65.988C84.6501 65.7743 84.5833 65.5567 84.528 65.336C84.46 65.08 84.372 64.788 84.312 64.46C84.1501 63.6914 84.0445 62.912 83.996 62.1281C83.8757 60.2037 84.0937 58.2731 84.64 56.424C84.8623 55.6711 85.1404 54.9357 85.472 54.224C85.5917 53.9508 85.7252 53.6838 85.872 53.424C85.9745 53.2207 86.088 53.0231 86.212 52.832C86.3075 52.6621 86.4187 52.5014 86.544 52.3521Z" fill="#263238"/>
<path d="M113.34 64.0559C113.34 64.0559 113.34 64.0999 113.3 64.1719C113.243 64.277 113.166 64.3695 113.072 64.4439C112.707 64.6992 112.256 64.8012 111.816 64.7279C111.256 64.6639 110.676 64.3279 110 64.2079C109.631 64.1608 109.256 64.1958 108.902 64.3106C108.548 64.4254 108.223 64.6171 107.952 64.8719C107.324 65.3759 106.812 65.9879 106.208 66.3999C105.928 66.6075 105.61 66.7583 105.272 66.8439C104.976 66.903 104.673 66.9219 104.372 66.8999C103.937 66.8808 103.513 66.7529 103.14 66.5279C103.041 66.4611 102.953 66.3787 102.88 66.2839C102.837 66.2146 102.817 66.1786 102.82 66.1759C102.933 66.2793 103.055 66.3729 103.184 66.4559C103.556 66.6463 103.967 66.7477 104.384 66.7519C104.67 66.763 104.956 66.7375 105.236 66.6759C105.55 66.5878 105.844 66.4412 106.104 66.2439C106.672 65.8439 107.172 65.2319 107.828 64.7079C108.147 64.4478 108.506 64.2424 108.892 64.0999C109.261 63.9709 109.657 63.9433 110.04 64.0199C110.76 64.1759 111.324 64.5079 111.84 64.5799C112.251 64.6651 112.679 64.5938 113.04 64.3799C113.155 64.2869 113.256 64.1778 113.34 64.0559Z" fill="#FAFAFA"/>
<path d="M112.196 61.7159C112.195 61.7549 112.186 61.7933 112.168 61.8279C112.123 61.9294 112.056 62.0195 111.972 62.0919C111.808 62.2174 111.618 62.3044 111.416 62.3467C111.213 62.3889 111.004 62.3852 110.804 62.3359C110.292 62.2519 109.764 61.9159 109.132 61.8839C108.431 61.8946 107.752 62.1239 107.188 62.5399C106.564 62.9599 106.028 63.4559 105.472 63.8319C104.987 64.1861 104.425 64.4193 103.832 64.5119C103.425 64.5744 103.009 64.5203 102.632 64.3559C102.493 64.3027 102.368 64.2178 102.268 64.1079C102.268 64.1079 102.404 64.1879 102.668 64.2839C103.033 64.4078 103.425 64.4354 103.804 64.3639C104.369 64.2591 104.9 64.0219 105.356 63.6719C105.892 63.2999 106.42 62.7999 107.064 62.3679C107.663 61.9266 108.388 61.6896 109.132 61.6919C109.453 61.7215 109.767 61.8011 110.064 61.9279C110.31 62.0346 110.564 62.1229 110.824 62.1919C111.006 62.2439 111.198 62.2562 111.386 62.2279C111.573 62.1996 111.753 62.1314 111.912 62.0279C112.022 61.939 112.118 61.8338 112.196 61.7159Z" fill="#FAFAFA"/>
<path d="M84.1719 64.7562C84.1719 64.7562 84.0999 64.8642 83.8839 64.9122C83.7329 64.9358 83.5786 64.9273 83.4311 64.8873C83.2837 64.8474 83.1463 64.7768 83.0279 64.6802C82.7048 64.3812 82.4509 64.0154 82.2839 63.6082C82.1971 63.3755 82.0615 63.1641 81.8863 62.9881C81.7111 62.8122 81.5002 62.6758 81.2679 62.5882C80.7625 62.508 80.246 62.5352 79.7519 62.6682C79.3191 62.7735 78.8652 62.7527 78.4439 62.6082C78.3018 62.5526 78.1722 62.4691 78.063 62.3626C77.9537 62.2561 77.867 62.1288 77.8079 61.9882C77.7319 61.7842 77.7719 61.6602 77.7799 61.6642C77.7879 61.6682 77.7799 61.7802 77.8799 61.9562C78.0169 62.1963 78.2354 62.3793 78.4959 62.4722C78.8963 62.5831 79.3194 62.5831 79.7199 62.4722C80.2399 62.3238 80.7866 62.2937 81.3199 62.3842C81.6043 62.4604 81.8576 62.6241 82.0439 62.8522C82.2029 63.057 82.3371 63.2798 82.4439 63.5162C82.5941 63.9058 82.8197 64.2619 83.1079 64.5642C83.3151 64.7459 83.5845 64.8405 83.8599 64.8282C83.9655 64.8117 84.0697 64.7876 84.1719 64.7562Z" fill="#FAFAFA"/>
<path d="M83.568 62.4001C83.568 62.4001 83.48 62.4481 83.328 62.4001C83.1181 62.3195 82.9418 62.17 82.828 61.9761C82.7 61.7091 82.5174 61.472 82.292 61.2801C81.9618 61.1343 81.591 61.1088 81.244 61.2081C80.859 61.2902 80.461 61.2902 80.076 61.2081C79.7602 61.1344 79.4624 60.9984 79.2 60.8081C78.9462 60.6556 78.743 60.4315 78.616 60.1641C78.648 60.1401 78.84 60.4161 79.284 60.6881C79.8638 61.0369 80.5558 61.1487 81.216 61.0001C81.6089 60.8924 82.0277 60.9337 82.392 61.1161C82.6421 61.333 82.8357 61.6076 82.956 61.9161C83.0456 62.093 83.1845 62.2403 83.356 62.3401C83.48 62.4001 83.568 62.4001 83.568 62.4001Z" fill="#FAFAFA"/>
<path d="M102.364 64.4681C102.364 64.4681 102.112 64.4161 101.66 64.3121C101.208 64.2081 100.552 64.0521 99.7361 63.9121C99.3361 63.8401 98.8801 63.7641 98.4001 63.7041C97.8915 63.6312 97.3768 63.6111 96.8641 63.6441C96.3034 63.7205 95.7613 63.8981 95.2641 64.1681C94.7361 64.4321 94.2041 64.7521 93.6281 65.0361C93.0682 65.3298 92.4544 65.5068 91.8241 65.5561C91.239 65.5797 90.6538 65.515 90.0881 65.3641C89.1622 65.0765 88.2189 64.848 87.2641 64.6801C86.6203 64.5833 85.9626 64.6451 85.3481 64.8601C85.1318 64.9582 84.9208 65.0677 84.7161 65.1881C84.7161 65.1881 84.7561 65.1401 84.8521 65.0601C84.9967 64.9523 85.1522 64.8598 85.3161 64.7841C85.9373 64.5348 86.6119 64.4481 87.2761 64.5321C88.2423 64.6796 89.1968 64.8961 90.1321 65.1801C90.6808 65.3186 91.2465 65.3778 91.8121 65.3561C92.4146 65.3021 93.0005 65.1295 93.5361 64.8481C94.1001 64.5721 94.6321 64.2521 95.1721 63.9841C95.6918 63.7085 96.2567 63.5283 96.8401 63.4521C97.3668 63.4229 97.8951 63.4497 98.4161 63.5321C98.9041 63.6001 99.3521 63.6841 99.7601 63.7681C100.56 63.9401 101.228 64.1161 101.676 64.2441C101.9 64.3121 102.076 64.3641 102.188 64.4081C102.3 64.4521 102.368 64.4601 102.364 64.4681Z" fill="#FAFAFA"/>
<path d="M102.776 66.4759C102.776 66.4759 102.536 66.3799 102.112 66.1999C101.688 66.0199 101.064 65.7719 100.28 65.5319C99.8545 65.3967 99.4182 65.2977 98.976 65.2359C98.4717 65.1927 97.9639 65.2595 97.488 65.4319C96.468 65.7799 95.488 66.5279 94.288 66.9999C93.6997 67.2244 93.0736 67.333 92.444 67.3199C91.8665 67.3076 91.2911 67.2461 90.724 67.1359C89.7836 66.9213 88.8292 66.7729 87.868 66.6919C87.2223 66.651 86.5747 66.7338 85.96 66.9359C85.528 67.0919 85.316 67.2399 85.304 67.2239C85.292 67.2079 85.352 67.1759 85.452 67.1079C85.6032 67.0116 85.7624 66.9286 85.928 66.8599C86.5472 66.6215 87.2093 66.5152 87.872 66.5479C88.8423 66.6061 89.8065 66.7398 90.756 66.9479C91.82 67.1279 93.052 67.2719 94.212 66.8079C95.372 66.3439 96.348 65.6079 97.412 65.2519C97.9147 65.0759 98.4505 65.0144 98.98 65.0719C99.4317 65.1371 99.8762 65.2443 100.308 65.3919C100.929 65.6009 101.537 65.848 102.128 66.1319C102.336 66.2319 102.496 66.3159 102.6 66.3759C102.663 66.4017 102.722 66.4353 102.776 66.4759Z" fill="#FAFAFA"/>
<path d="M97.4319 65.76C97.4319 65.76 97.3319 65.792 97.1439 65.808C96.8773 65.8297 96.6091 65.823 96.3439 65.788C95.9479 65.741 95.5586 65.6484 95.1839 65.512C94.7266 65.3423 94.2914 65.118 93.8879 64.844C93.4889 64.56 93.125 64.2297 92.8039 63.86C92.5452 63.5567 92.3236 63.2237 92.1439 62.868C92.0173 62.6315 91.9168 62.3821 91.8439 62.124C91.7959 61.944 91.7719 61.84 91.7879 61.836C91.8039 61.832 91.9399 62.236 92.2719 62.8C92.4662 63.1332 92.6926 63.4467 92.9479 63.736C93.2679 64.0838 93.6231 64.3975 94.0079 64.672C94.3973 64.9377 94.8144 65.1604 95.2519 65.336C95.613 65.4748 95.9867 65.5779 96.3679 65.644C97.0159 65.752 97.4319 65.72 97.4319 65.76Z" fill="#263238"/>
<g opacity="0.3">
<path d="M91.8 62.2681C92.072 63.7561 92.64 65.2401 93.724 66.2961C94.808 67.3521 96.484 67.8961 97.892 67.3321C98.046 67.2898 98.1875 67.211 98.3045 67.1024C98.4215 66.9937 98.5105 66.8585 98.5641 66.7081C98.5818 66.5252 98.5379 66.3416 98.4393 66.1865C98.3408 66.0314 98.1932 65.9137 98.0201 65.8521C97.6682 65.7423 97.3004 65.6923 96.932 65.7041C95.8826 65.6339 94.8684 65.2969 93.9857 64.725C93.103 64.1531 92.381 63.3652 91.888 62.4361" fill="#1E232C"/>
</g>
<path d="M103.528 68.2041C103.451 68.0801 103.393 67.9453 103.356 67.8041C103.256 67.5521 103.12 67.1841 102.956 66.7281C102.636 65.8121 102.224 64.5441 101.808 63.1281C101.392 61.7121 101.06 60.4161 100.836 59.4761C100.724 59.0041 100.64 58.6241 100.588 58.3561C100.553 58.2255 100.532 58.0913 100.528 57.9561C100.593 58.0822 100.64 58.2169 100.668 58.3561C100.756 58.6601 100.86 59.0241 100.98 59.4561C101.236 60.3881 101.596 61.6721 102.008 63.0881C102.42 64.5041 102.808 65.7761 103.096 66.6881C103.224 67.1161 103.336 67.4881 103.428 67.7841C103.477 67.9199 103.51 68.0608 103.528 68.2041Z" fill="#263238"/>
<path d="M85.4719 79.656C85.4719 79.656 88.9279 75.952 91.9519 75.224C94.9759 74.496 105.808 70.668 105.808 70.668L105.124 68.512C105.821 68.4379 106.467 68.1139 106.944 67.6L107.644 66.904C108.596 65.864 109.744 65.304 111.408 65.868L112.456 66.18L113.548 69.38C113.803 70.1262 113.889 70.9196 113.801 71.7031C113.712 72.4866 113.452 73.2409 113.038 73.9119C112.624 74.5829 112.066 75.154 111.406 75.5841C110.745 76.0143 109.997 76.2929 109.216 76.4L85.4719 79.656Z" fill="#FFBE9D"/>
<path d="M110.3 71.1281C109.583 70.8891 108.847 70.7124 108.1 70.6001C107.35 70.5548 106.598 70.5763 105.852 70.6641C106.579 70.4047 107.355 70.3117 108.123 70.392C108.89 70.4723 109.63 70.7238 110.288 71.1281H110.3Z" fill="#EB996E"/>
<path d="M85.9921 29.0241C85.7001 24.0001 92.2441 20.4721 96.7121 21.7321C100.908 22.9321 102.712 25.0041 103.388 27.8121C104.064 30.6201 104.044 33.6601 102.944 36.3361C102.4 37.6521 101.424 38.9921 100.008 39.1361" fill="#263238"/>
<path d="M99.3882 25.9401C99.7428 25.9772 100.07 26.1463 100.306 26.4138C100.542 26.6813 100.668 27.0277 100.66 27.3841L99.8602 46.6441C99.8322 48.9201 96.5082 50.2041 94.0762 50.1521C91.6162 50.1001 91.5322 48.8961 91.4962 46.7321C91.4402 43.1321 91.4402 41.7601 91.4402 41.7801C91.4402 41.8001 88.3242 41.2641 87.7002 37.2001C87.3802 35.2001 87.4802 31.8761 87.6522 29.1761C87.8042 26.7441 89.4162 23.7561 91.8402 24.0161L99.3882 25.9401Z" fill="#FFBE9D"/>
<path d="M88.6841 31.812C88.6839 31.9469 88.7358 32.0767 88.829 32.1743C88.9221 32.2719 89.0493 32.3298 89.1841 32.336C89.2502 32.3414 89.3167 32.3335 89.3798 32.3128C89.4428 32.2921 89.501 32.2589 89.551 32.2153C89.601 32.1716 89.6417 32.1184 89.6707 32.0588C89.6998 31.9991 89.7166 31.9342 89.7201 31.868C89.7223 31.7321 89.6712 31.6007 89.5777 31.502C89.4843 31.4034 89.3559 31.3452 89.2201 31.34C89.1538 31.3351 89.0871 31.3435 89.0241 31.3647C88.961 31.3859 88.9028 31.4194 88.8529 31.4634C88.803 31.5073 88.7624 31.5608 88.7334 31.6207C88.7044 31.6805 88.6876 31.7456 88.6841 31.812Z" fill="#263238"/>
<path d="M88.348 30.9042C88.412 30.9722 88.8081 30.6842 89.3641 30.6842C89.9201 30.6842 90.3361 30.9642 90.3961 30.8962C90.4561 30.8282 90.3601 30.7442 90.1801 30.6122C89.9381 30.4449 89.6502 30.3568 89.3561 30.3602C89.0684 30.359 88.788 30.4502 88.5561 30.6202C88.3761 30.7522 88.316 30.8762 88.348 30.9042Z" fill="#263238"/>
<path d="M94.1519 31.812C94.1518 31.9476 94.2042 32.0779 94.2982 32.1756C94.3922 32.2733 94.5204 32.3308 94.6559 32.336C94.7219 32.3409 94.7882 32.3326 94.851 32.3117C94.9138 32.2907 94.9718 32.2575 95.0216 32.214C95.0715 32.1704 95.1122 32.1174 95.1414 32.058C95.1707 31.9987 95.1878 31.934 95.1919 31.868C95.193 31.7324 95.1416 31.6016 95.0483 31.5031C94.9551 31.4047 94.8273 31.3462 94.6919 31.34C94.6253 31.3351 94.5585 31.3435 94.4952 31.3646C94.4319 31.3857 94.3735 31.4192 94.3232 31.4632C94.273 31.5071 94.232 31.5605 94.2026 31.6204C94.1732 31.6803 94.1559 31.7454 94.1519 31.812Z" fill="#263238"/>
<path d="M93.848 31.0121C93.912 31.0801 94.3081 30.7881 94.8641 30.7881C95.4201 30.7881 95.8361 31.0681 95.8961 31.0001C95.9561 30.9321 95.8601 30.8481 95.6801 30.7161C95.4373 30.5505 95.1499 30.4626 94.8561 30.4641C94.5684 30.463 94.288 30.5541 94.0561 30.7241C93.8761 30.8561 93.816 30.9801 93.848 31.0121Z" fill="#263238"/>
<path d="M91.8161 35.1601C91.5216 35.0672 91.2165 35.0121 90.9081 34.9961C90.7641 34.9961 90.6321 34.9521 90.6081 34.8561C90.5936 34.7086 90.6258 34.5603 90.7001 34.4321L91.1241 33.3441C91.7121 31.7961 92.1361 30.5201 92.0721 30.4961C91.6111 31.386 91.2193 32.3101 90.9001 33.2601C90.7601 33.6601 90.6241 34.0081 90.5001 34.3561C90.4088 34.5278 90.3832 34.7269 90.4281 34.9161C90.4476 34.9666 90.4789 35.0117 90.5192 35.0479C90.5595 35.084 90.6078 35.1101 90.6601 35.1241C90.7399 35.1444 90.8217 35.1565 90.9041 35.1601C91.2069 35.1976 91.5132 35.1976 91.8161 35.1601Z" fill="#263238"/>
<path d="M91.4319 41.78C93.3404 41.809 95.2194 41.3077 96.8599 40.332C96.8599 40.332 95.5439 43.132 91.4839 42.732L91.4319 41.78Z" fill="#EB996E"/>
<path d="M92.0522 36.5082C92.1587 36.3741 92.2976 36.2693 92.4557 36.2036C92.6138 36.1378 92.786 36.1133 92.9562 36.1322C93.0799 36.1436 93.2001 36.18 93.3094 36.2391C93.4187 36.2982 93.5149 36.3789 93.5922 36.4762C93.6673 36.5687 93.7119 36.6823 93.7198 36.8012C93.7276 36.9201 93.6984 37.0385 93.6362 37.1402C93.5471 37.2413 93.4296 37.3133 93.2991 37.3468C93.1686 37.3804 93.031 37.3739 92.9042 37.3282C92.6395 37.2343 92.3961 37.0889 92.1882 36.9002C92.1261 36.8548 92.072 36.7994 92.0282 36.7362C92.0086 36.705 91.9983 36.669 91.9983 36.6322C91.9983 36.5954 92.0086 36.5594 92.0282 36.5282" fill="#EB996E"/>
<path d="M93.4638 35.5479C93.3718 35.5479 93.3718 36.1479 92.8518 36.5799C92.3318 37.0119 91.6838 36.9439 91.6798 37.0279C91.6758 37.1119 91.8238 37.1479 92.0798 37.1559C92.4366 37.1595 92.7835 37.0378 93.0598 36.8119C93.3233 36.5961 93.4926 36.2863 93.5318 35.9479C93.5718 35.6919 93.5038 35.5439 93.4638 35.5479Z" fill="#263238"/>
<path d="M93.5961 30.032C93.6521 30.184 94.2081 30.112 94.8641 30.188C95.5201 30.264 96.0641 30.448 96.1401 30.312C96.1801 30.248 96.0881 30.104 95.8721 29.956C95.5871 29.7752 95.2646 29.6617 94.9291 29.6243C94.5936 29.5869 94.254 29.6264 93.9361 29.74C93.7001 29.84 93.5721 29.96 93.5961 30.032Z" fill="#263238"/>
<path d="M88.5521 29.2879C88.6521 29.4119 89.0361 29.2879 89.5001 29.2879C89.9641 29.2879 90.3561 29.3719 90.4481 29.2399C90.4881 29.1759 90.4241 29.0479 90.2521 28.9279C90.0237 28.781 89.7554 28.7084 89.4841 28.7199C89.2112 28.7222 88.9462 28.812 88.7281 28.9759C88.5641 29.0919 88.5001 29.2239 88.5521 29.2879Z" fill="#263238"/>
<path d="M93.8401 22.676C92.4613 22.7429 91.1215 23.1555 89.9441 23.876C89.2826 24.2149 88.6946 24.6813 88.214 25.2483C87.7335 25.8154 87.3699 26.4719 87.1441 27.18C87.0875 27.3263 87.0611 27.4826 87.0666 27.6393C87.0721 27.7961 87.1094 27.9501 87.1761 28.092C87.3045 28.2552 87.4859 28.3685 87.6889 28.4123C87.8919 28.4561 88.1038 28.4277 88.2881 28.332C88.6515 28.1308 88.9614 27.8455 89.1921 27.5C89.2905 27.8744 89.5112 28.2052 89.8191 28.4398C90.1271 28.6744 90.5046 28.7993 90.8917 28.7947C91.2788 28.7901 91.6532 28.6563 91.9555 28.4144C92.2578 28.1726 92.4706 27.8367 92.5601 27.46C92.5907 27.8487 92.7699 28.2106 93.0604 28.4705C93.3509 28.7305 93.7304 28.8685 94.1201 28.856C94.51 28.8226 94.8815 28.6756 95.1886 28.4332C95.4958 28.1907 95.7251 27.8635 95.8481 27.492C95.9405 28.2017 96.1832 28.8836 96.5601 29.492C96.7528 29.7896 97.0321 30.0209 97.3605 30.1547C97.6888 30.2885 98.0503 30.3182 98.3961 30.24C98.249 30.8363 98.2586 31.4606 98.4241 32.052C98.6361 32.628 99.6241 45.036 100.208 44.852C100.792 44.668 100.632 32.052 100.764 31.468C101.051 30.3588 101.196 29.2177 101.196 28.072C101.234 26.8939 100.853 25.7404 100.121 24.8168C99.3882 23.8932 98.3519 23.2594 97.1961 23.028C96.04 22.762 94.8533 22.653 93.6681 22.704" fill="#263238"/>
<path d="M79.7282 38.7319C79.7282 38.7319 79.6841 38.6599 79.5681 38.5479C79.4014 38.3831 79.1875 38.274 78.9561 38.2359C78.777 38.2014 78.5928 38.2039 78.4146 38.2431C78.2365 38.2823 78.0682 38.3574 77.9201 38.4639C77.7384 38.6205 77.6002 38.8213 77.5189 39.047C77.4376 39.2726 77.416 39.5155 77.4561 39.7519C77.4923 40.0292 77.5968 40.2931 77.7601 40.5199C77.9456 40.7593 78.1875 40.9489 78.4642 41.0719C78.7727 41.2064 79.1056 41.2758 79.4421 41.2758C79.7787 41.2758 80.1116 41.2064 80.4202 41.0719C81.1098 40.7605 81.7046 40.2719 82.1441 39.6559C82.6306 39.0009 83.0051 38.2696 83.2522 37.4919C83.7802 35.8919 83.9241 34.2679 84.1441 32.8119C84.3082 31.5105 84.6529 30.2383 85.1681 29.0319C85.5229 28.2147 86.0495 27.4835 86.7121 26.8879C86.8965 26.7276 87.0931 26.5818 87.3001 26.4519C87.3687 26.4049 87.4426 26.3659 87.5202 26.3359C87.5202 26.3359 87.2281 26.5199 86.7681 26.9319C86.1359 27.5374 85.636 28.2675 85.3001 29.0759C84.8086 30.2755 84.483 31.5364 84.3321 32.8239C84.1201 34.2759 83.9841 35.9079 83.4441 37.5399C83.1912 38.3398 82.8059 39.0916 82.3041 39.7639C81.8388 40.4042 81.2141 40.9116 80.4921 41.2359C80.1603 41.3806 79.8022 41.4553 79.4402 41.4553C79.0781 41.4553 78.72 41.3806 78.3881 41.2359C78.0877 41.0967 77.8266 40.885 77.6282 40.6199C77.4509 40.3703 77.3394 40.08 77.3041 39.7759C77.2653 39.516 77.2951 39.2505 77.3905 39.0056C77.4859 38.7607 77.6437 38.5451 77.8481 38.3799C78.0094 38.2678 78.1924 38.1906 78.3853 38.1534C78.5782 38.1162 78.7767 38.1198 78.9681 38.1639C79.2101 38.2149 79.4299 38.3409 79.5962 38.5239C79.6544 38.5831 79.6994 38.654 79.7282 38.7319Z" fill="#263238"/>
<path d="M101.232 45.3802C101.232 45.3562 101.468 45.2522 101.86 44.9802C102.405 44.5853 102.87 44.0914 103.232 43.5242C103.768 42.6822 104.118 41.7359 104.26 40.7482C104.411 39.5319 104.358 38.2991 104.104 37.1002C103.856 35.8202 103.488 34.6242 103.172 33.5322C102.856 32.4402 102.584 31.4442 102.424 30.5962C102.293 29.926 102.216 29.2466 102.192 28.5642C102.192 28.3242 102.192 28.1362 102.192 28.0082C102.188 27.9435 102.195 27.8786 102.212 27.8162C102.232 27.8162 102.212 28.0842 102.264 28.5602C102.316 29.2327 102.413 29.9009 102.556 30.5602C102.736 31.3962 103.012 32.3802 103.356 33.4682C103.735 34.6509 104.053 35.8525 104.308 37.0682C104.569 38.288 104.617 39.5441 104.448 40.7802C104.296 41.7927 103.923 42.7594 103.356 43.6122C102.975 44.1861 102.481 44.6761 101.904 45.0522C101.748 45.1546 101.583 45.243 101.412 45.3162C101.354 45.3429 101.294 45.3643 101.232 45.3802Z" fill="#263238"/>
<path d="M101.956 42.776C101.913 42.808 101.864 42.8323 101.812 42.848C101.67 42.8996 101.522 42.9358 101.372 42.956C100.806 43.0141 100.236 42.8953 99.7401 42.616C99.0067 42.1938 98.4511 41.5203 98.1761 40.72C97.8463 39.7538 97.7383 38.7257 97.8601 37.712C97.9561 36.64 98.1521 35.644 98.2401 34.728C98.3281 33.812 98.3801 32.984 98.3961 32.288C98.4121 31.592 98.3961 31.028 98.3961 30.636C98.3788 30.435 98.3788 30.2329 98.3961 30.032C98.4405 30.2291 98.4659 30.43 98.4721 30.632C98.5041 31.032 98.5361 31.588 98.5401 32.292C98.5438 33.112 98.5064 33.9317 98.4281 34.748C98.3481 35.672 98.1601 36.676 98.0641 37.732C97.945 38.7147 98.0433 39.7115 98.3521 40.652C98.6062 41.4175 99.1235 42.068 99.8121 42.488C100.278 42.7689 100.816 42.9079 101.36 42.888C101.748 42.844 101.948 42.756 101.956 42.776Z" fill="#263238"/>
<path d="M75.792 46.4319C75.789 46.2958 75.8107 46.1602 75.856 46.0319C75.9818 45.6773 76.2136 45.3701 76.52 45.1519C77.0027 44.7999 77.5791 44.5994 78.176 44.5759C78.864 44.5119 79.644 44.6119 80.488 44.5759C81.411 44.4928 82.3008 44.1912 83.084 43.6959C83.9788 43.1192 84.7442 42.3633 85.332 41.4759C85.975 40.4903 86.4269 39.3925 86.664 38.2399C86.9186 36.9982 87.0246 35.7306 86.98 34.4639C86.98 33.1599 86.8 31.8959 86.724 30.6559C86.6072 29.4622 86.6828 28.2576 86.948 27.0879C87.194 26.091 87.7171 25.1842 88.4568 24.4721C89.1965 23.76 90.1226 23.2718 91.128 23.0639C91.8979 22.9109 92.6924 22.9341 93.452 23.1319C94.0203 23.2793 94.5608 23.5184 95.052 23.8399C95.3622 24.0411 95.6493 24.2758 95.908 24.5399C96 24.6319 96.056 24.7079 96.1 24.7559C96.144 24.8039 96.164 24.8319 96.16 24.8359C95.8097 24.4869 95.4236 24.1759 95.008 23.9079C94.5135 23.6026 93.9734 23.3785 93.408 23.2439C92.664 23.0642 91.8894 23.0519 91.14 23.2079C90.2359 23.4056 89.399 23.8358 88.712 24.4559C87.9185 25.1673 87.3605 26.1035 87.112 27.1399C86.8595 28.2898 86.7893 29.4722 86.904 30.6439C86.988 31.8719 87.148 33.1439 87.172 34.4599C87.2123 35.743 87.1022 37.0264 86.844 38.2839C86.5997 39.4608 86.1341 40.5806 85.472 41.5839C84.8662 42.4906 84.0773 43.2605 83.156 43.8439C82.3475 44.3475 81.4297 44.6494 80.48 44.7239C79.608 44.7719 78.836 44.6599 78.164 44.7239C77.5915 44.7416 77.0361 44.9235 76.564 45.2479C76.2609 45.4507 76.0266 45.7409 75.892 46.0799C75.808 46.2959 75.808 46.4319 75.792 46.4319Z" fill="#455A64"/>
<path d="M95.8441 21.824C95.8441 21.804 96.0401 21.892 96.2441 22.136C96.523 22.4609 96.6924 22.8654 96.7282 23.292C96.7645 23.7192 96.6666 24.1471 96.4481 24.516C96.2761 24.792 96.1122 24.916 96.0962 24.916C96.0802 24.916 96.1921 24.74 96.3161 24.464C96.4853 24.1115 96.5571 23.7201 96.5241 23.3304C96.491 22.9408 96.3543 22.5671 96.1282 22.248C95.9682 21.976 95.8241 21.848 95.8441 21.824Z" fill="#455A64"/>
<path d="M103.832 32.1961C103.782 32.0368 103.746 31.8736 103.724 31.7081C103.664 31.3881 103.58 30.9321 103.456 30.3681C103.332 29.8041 103.184 29.1321 102.984 28.4001C102.884 28.0321 102.772 27.6481 102.632 27.2601C102.5 26.8626 102.306 26.4886 102.056 26.1521C101.579 25.4913 100.926 24.9773 100.172 24.6681C99.5555 24.4205 98.8808 24.3552 98.2281 24.4801C97.785 24.5582 97.3629 24.727 96.9881 24.9761C96.86 25.0803 96.7265 25.1778 96.5881 25.2681C96.5881 25.2681 96.6121 25.2281 96.6681 25.1641C96.753 25.0711 96.8468 24.9867 96.9481 24.9121C97.3181 24.6279 97.7474 24.431 98.2041 24.3361C98.8855 24.1838 99.5967 24.2367 100.248 24.4881C101.041 24.8024 101.728 25.3367 102.228 26.0281C102.49 26.3807 102.693 26.7739 102.828 27.1921C102.968 27.5921 103.076 27.9921 103.176 28.3481C103.364 29.0921 103.504 29.7681 103.604 30.3481C103.704 30.9281 103.776 31.3801 103.808 31.7041C103.837 31.8663 103.846 32.0317 103.832 32.1961Z" fill="#455A64"/>
<path d="M96.2599 25.0522C95.8215 25.0038 95.3913 24.899 94.9799 24.7402C94.5339 24.5918 94.0763 24.4807 93.6119 24.4082C93.0493 24.3266 92.4752 24.3899 91.9439 24.5922C91.4126 24.7906 90.9415 25.1227 90.5759 25.5562C90.2784 25.9072 90.0565 26.3157 89.9239 26.7562C89.8167 27.1747 89.7589 27.6043 89.7519 28.0362C89.7061 27.9246 89.6843 27.8047 89.6879 27.6842C89.6682 27.3587 89.6992 27.0321 89.7799 26.7162C89.8966 26.2401 90.118 25.796 90.4279 25.4162C90.8085 24.9476 91.3068 24.5887 91.8719 24.3762C92.4355 24.1635 93.0449 24.1014 93.6399 24.1962C94.114 24.2859 94.5787 24.4198 95.0279 24.5962C95.7879 24.8882 96.2679 25.0242 96.2599 25.0522Z" fill="#455A64"/>
<path d="M176.788 160.68C177.144 159.456 177.9 158.28 179.076 157.764C180.252 157.248 181.708 157.536 182.956 157.992C184.204 158.448 185.432 159.052 186.756 159.132C188.08 159.212 189.58 158.588 189.976 157.32C190.348 156.12 189.628 154.856 188.732 153.988C187.781 153.075 186.615 152.415 185.343 152.07C184.07 151.725 182.731 151.705 181.448 152.013C180.166 152.321 178.982 152.947 178.005 153.832C177.027 154.717 176.289 155.834 175.856 157.08" fill="#263238"/>
<path d="M166.284 166C164.34 164.152 164.436 160.936 165.408 158.432C166.38 155.928 168.496 154.012 170.86 152.744C173.169 151.533 175.724 150.86 178.33 150.776C180.937 150.692 183.529 151.199 185.912 152.26C184.746 152.31 183.609 152.645 182.602 153.236C181.595 153.826 180.749 154.655 180.136 155.648C179.072 157.42 178.832 159.568 177.952 161.44C176.96 163.549 175.197 165.197 173.026 166.045C170.856 166.893 168.443 166.877 166.284 166Z" fill="#455A64"/>
<path d="M165.352 154.904C163.196 152.364 162.908 148.284 163.228 144.968C163.548 141.652 164.312 138.312 163.788 135.02C163.48 133.072 162.724 131.212 162.468 129.252C162.212 127.292 162.576 125.084 164.092 123.82C165.836 122.368 168.58 122.712 170.392 124.072C172.204 125.432 173.256 127.58 174.024 129.712C175.7 134.4 176.328 139.6 174.944 144.4C173.56 149.2 170.308 153.468 165.536 154.912" fill="#455A64"/>
<path d="M164.316 175.764C164.306 175.667 164.306 175.569 164.316 175.472C164.316 175.28 164.316 174.996 164.316 174.632C164.34 173.9 164.408 172.844 164.572 171.552C164.76 170.034 165.035 168.527 165.396 167.04C165.842 165.214 166.534 163.456 167.452 161.816C168.375 160.178 169.507 158.666 170.82 157.32C171.886 156.218 173.069 155.234 174.348 154.388C174.884 154.016 175.408 153.736 175.856 153.472C176.304 153.208 176.716 153.036 177.056 152.88L177.832 152.556C177.921 152.514 178.013 152.481 178.108 152.456C178.028 152.51 177.942 152.556 177.852 152.592L177.092 152.952C176.772 153.12 176.376 153.328 175.924 153.576C175.472 153.824 174.972 154.132 174.44 154.512C173.183 155.368 172.02 156.354 170.968 157.452C169.678 158.794 168.563 160.294 167.648 161.916C165.648 165.38 165.124 169.016 164.728 171.568C164.548 172.86 164.456 173.908 164.408 174.636C164.384 174.98 164.368 175.26 164.356 175.472C164.354 175.571 164.341 175.669 164.316 175.764Z" fill="#263238"/>
<path d="M145.74 144.876C141.74 147.276 141.768 149.468 142.436 151.536C143.104 153.604 145.544 155.036 147.572 154.264C148.72 153.824 149.548 152.828 150.26 151.828C150.972 150.828 151.632 149.756 152.628 149.028C153.624 148.3 155.06 148.036 156.06 148.748" fill="#263238"/>
<path d="M142.76 147.512C143.8 146.072 146.36 145.656 148 146.376C149.64 147.096 150.8 148.52 151.88 149.94C152.96 151.36 153.984 152.864 155.46 153.852C156.936 154.84 158.996 155.2 160.468 154.204C160.937 153.855 161.331 153.413 161.623 152.906C161.915 152.399 162.101 151.837 162.168 151.256C162.299 150.094 162.22 148.918 161.936 147.784C161.584 146.112 161.008 144.368 159.672 143.304C158.184 142.124 156.116 142.068 154.212 142.128C152.028 142.2 149.812 142.364 147.768 143.12C145.724 143.876 143.628 145.52 142.76 147.52" fill="#455A64"/>
<path d="M161.004 172.572C160.985 172.458 160.976 172.343 160.976 172.228L160.94 171.24C160.916 170.36 160.876 169.124 160.832 167.604C160.788 166.084 160.716 164.24 160.608 162.212C160.5 160.184 160.34 157.956 160.032 155.64C159.904 154.512 159.684 153.396 159.376 152.304C159.059 151.295 158.651 150.318 158.156 149.384C157.333 147.79 156.244 146.348 154.936 145.12C154.05 144.298 153.047 143.612 151.96 143.084C151.666 142.935 151.364 142.801 151.056 142.684C150.946 142.648 150.84 142.601 150.74 142.544C150.851 142.57 150.961 142.604 151.068 142.644C151.385 142.742 151.696 142.862 151.996 143.004C153.107 143.509 154.132 144.184 155.036 145.004C156.372 146.229 157.484 147.678 158.324 149.284C158.83 150.225 159.247 151.212 159.568 152.232C159.885 153.335 160.11 154.463 160.24 155.604C160.548 157.932 160.696 160.164 160.8 162.196C160.904 164.228 160.948 166.052 160.98 167.592C161.012 169.132 161.02 170.372 161.02 171.228V172.22C161.025 172.338 161.019 172.455 161.004 172.572Z" fill="#263238"/>
<path d="M162.44 174.372C162.246 173.816 162.098 173.244 161.996 172.664C161.719 171.08 161.656 169.465 161.808 167.864C162.05 165.489 162.559 163.149 163.324 160.888C164.144 158.324 165.252 155.58 166.2 152.636C166.667 151.205 167.049 149.748 167.344 148.272C167.606 146.895 167.794 145.505 167.908 144.108C168.091 141.738 168.135 139.359 168.04 136.984C167.972 134.956 167.868 133.316 167.8 132.184C167.768 131.632 167.744 131.192 167.728 130.88C167.728 130.74 167.728 130.628 167.728 130.54C167.721 130.502 167.721 130.462 167.728 130.424C167.73 130.461 167.73 130.499 167.728 130.536C167.728 130.624 167.748 130.736 167.764 130.876C167.792 131.188 167.828 131.624 167.876 132.18C167.968 133.312 168.096 134.952 168.184 136.98C168.299 139.361 168.27 141.747 168.096 144.124C167.987 145.529 167.801 146.927 167.54 148.312C167.248 149.801 166.866 151.27 166.396 152.712C165.444 155.668 164.328 158.404 163.504 160.96C162.734 163.207 162.214 165.532 161.952 167.892C161.787 169.484 161.827 171.09 162.072 172.672C162.168 173.232 162.256 173.664 162.336 173.952C162.368 174.088 162.392 174.196 162.416 174.284C162.427 174.313 162.435 174.342 162.44 174.372Z" fill="#263238"/>
<path d="M172.316 176.172H153.608L153.18 172.572H172.316V176.172Z" fill="#263238"/>
<path d="M155.616 175.764L157.956 186.568H168.12L170.308 175.764H155.616Z" fill="#263238"/>
<path d="M172.316 176.172C172.316 176.232 168.204 176.268 163.116 176.252C158.028 176.236 153.916 176.18 153.916 176.12C153.916 176.06 158.028 176.028 163.116 176.044C168.204 176.06 172.316 176.116 172.316 176.172Z" fill="#455A64"/>
<path d="M169.104 181.504C168.592 181.131 168.039 180.818 167.456 180.572C166.818 180.321 166.141 180.186 165.456 180.172C164.616 180.175 163.783 180.328 162.996 180.624C162.144 180.912 161.348 181.248 160.568 181.424C159.878 181.574 159.166 181.594 158.468 181.484C157.998 181.416 157.542 181.27 157.12 181.052C157.007 180.99 156.899 180.921 156.796 180.844C156.728 180.792 156.692 180.76 156.696 180.756C157.253 181.062 157.862 181.26 158.492 181.34C159.172 181.423 159.86 181.389 160.528 181.24C161.272 181.052 162.068 180.712 162.928 180.42C163.739 180.125 164.597 179.983 165.46 180C166.165 180.023 166.86 180.177 167.508 180.456C167.945 180.638 168.356 180.879 168.728 181.172C168.83 181.249 168.926 181.333 169.016 181.424C169.08 181.464 169.112 181.5 169.104 181.504Z" fill="#455A64"/>
<path d="M168.964 182.228C168.465 181.865 167.928 181.555 167.364 181.304C166.752 181.053 166.098 180.918 165.436 180.904C164.625 180.907 163.821 181.052 163.06 181.332C162.236 181.608 161.46 181.928 160.72 182.132C160.071 182.321 159.395 182.396 158.72 182.356C158.259 182.329 157.808 182.206 157.396 181.996C157.287 181.938 157.182 181.871 157.084 181.796C157.016 181.744 156.984 181.712 156.988 181.708C156.992 181.704 157.144 181.796 157.432 181.924C157.843 182.097 158.282 182.194 158.728 182.208C159.391 182.228 160.053 182.14 160.688 181.948C161.408 181.744 162.176 181.42 163.008 181.148C163.792 180.859 164.621 180.716 165.456 180.724C166.605 180.755 167.713 181.163 168.608 181.884C168.732 181.988 168.824 182.072 168.884 182.132C168.944 182.192 168.968 182.22 168.964 182.228Z" fill="white"/>
<path d="M169.3 180.8C168.768 180.417 168.2 180.088 167.604 179.816C166.953 179.537 166.259 179.37 165.552 179.324C164.685 179.306 163.824 179.459 163.016 179.772C162.196 180.095 161.357 180.369 160.504 180.592C159.787 180.717 159.053 180.717 158.336 180.592C157.853 180.514 157.383 180.364 156.944 180.148C156.827 180.086 156.715 180.015 156.608 179.936C156.536 179.88 156.5 179.848 156.504 179.844C156.508 179.84 156.672 179.936 156.98 180.076C157.422 180.26 157.886 180.385 158.36 180.448C159.06 180.548 159.772 180.533 160.468 180.404C161.24 180.236 162.068 179.872 162.948 179.576C163.781 179.253 164.671 179.102 165.564 179.132C166.291 179.189 167.002 179.375 167.664 179.68C168.109 179.879 168.527 180.133 168.908 180.436C169.013 180.517 169.113 180.604 169.208 180.696C169.264 180.748 169.3 180.8 169.3 180.8Z" fill="white"/>
<path d="M38.4999 169.296C37.6999 170.448 36.1279 170.064 35.3999 169.36C34.6719 168.656 34.3679 167.64 34.0879 166.668C33.4479 164.448 32.8039 162.12 33.2879 159.868C33.3976 159.176 33.6998 158.528 34.1599 158C34.3896 157.741 34.6836 157.546 35.0123 157.437C35.3409 157.327 35.6926 157.306 36.0319 157.376C36.8319 157.584 37.3159 158.356 37.6719 159.092C38.7145 161.267 39.2609 163.647 39.2719 166.06C39.2719 167.184 39.1439 168.36 38.5079 169.288" fill="#2491FF"/>
<g opacity="0.2">
<path d="M38.4999 169.296C37.6999 170.448 36.1279 170.064 35.3999 169.36C34.6719 168.656 34.3679 167.64 34.0879 166.668C33.4479 164.448 32.8039 162.12 33.2879 159.868C33.3976 159.176 33.6998 158.528 34.1599 158C34.3896 157.741 34.6836 157.546 35.0123 157.437C35.3409 157.327 35.6926 157.306 36.0319 157.376C36.8319 157.584 37.3159 158.356 37.6719 159.092C38.7145 161.267 39.2609 163.647 39.2719 166.06C39.2719 167.184 39.1439 168.36 38.5079 169.288" fill="#1E232C"/>
</g>
<path d="M35.4921 175.128C34.1399 174.495 32.6208 174.31 31.1561 174.6C30.3547 174.67 29.5999 175.007 29.0121 175.556C28.4801 176.148 28.3761 177.188 29.0121 177.696C29.4079 177.963 29.8849 178.084 30.3601 178.036C31.5081 178.036 32.7801 177.824 33.6961 178.512C34.2161 178.912 34.5641 179.56 35.1921 179.752C35.5043 179.825 35.8316 179.794 36.1246 179.664C36.4175 179.534 36.6603 179.312 36.8161 179.032C37.1143 178.457 37.1801 177.79 37.0001 177.168C36.9238 176.735 36.7478 176.325 36.4862 175.971C36.2245 175.617 35.8842 175.328 35.4921 175.128Z" fill="#2491FF"/>
<path d="M40.728 170.948C40.3135 170.407 40.0374 169.773 39.9238 169.101C39.8102 168.429 39.8624 167.739 40.076 167.092C40.5164 165.797 41.307 164.649 42.36 163.776C43.555 162.717 44.9449 161.902 46.452 161.376C47.0356 161.14 47.6633 161.034 48.292 161.064C48.606 161.081 48.9111 161.175 49.1803 161.337C49.4495 161.5 49.6747 161.726 49.836 161.996C50.264 162.816 49.836 163.812 49.404 164.624C48.6193 166.057 47.7218 167.425 46.72 168.716C45.92 169.756 44.992 170.78 43.764 171.248C42.536 171.716 41.26 171.648 40.612 170.812" fill="#2491FF"/>
<path d="M38.5678 186.668C38.524 186.498 38.4999 186.324 38.4958 186.148C38.4558 185.748 38.4119 185.288 38.3559 184.716C38.2999 184.144 38.1998 183.4 38.0358 182.624C37.8477 181.78 37.5922 180.952 37.2719 180.148C36.9599 179.347 36.5356 178.594 36.0119 177.912C35.583 177.357 35.0366 176.903 34.4118 176.584C33.9879 176.38 33.5343 176.245 33.0678 176.184C32.8926 176.174 32.7186 176.149 32.5479 176.108C32.7245 176.086 32.9032 176.086 33.0798 176.108C33.5648 176.143 34.0392 176.267 34.4798 176.472C35.1377 176.782 35.7142 177.241 36.1639 177.812C36.7115 178.502 37.1525 179.271 37.4719 180.092C37.7979 180.907 38.0509 181.749 38.2279 182.608C38.3644 183.308 38.4579 184.016 38.5078 184.728C38.5518 185.336 38.5718 185.824 38.5798 186.164C38.5947 186.332 38.5906 186.501 38.5678 186.668Z" fill="#263238"/>
<path d="M38.4679 185.572C38.4575 185.491 38.4575 185.409 38.4679 185.328V184.632C38.4679 184.032 38.4679 183.16 38.4399 182.08C38.3839 179.928 38.1999 176.952 37.8399 173.68C37.4799 170.408 36.9999 167.472 36.5639 165.36C36.4639 164.832 36.3599 164.356 36.2599 163.94C36.1599 163.524 36.0879 163.16 36.0119 162.872C35.9359 162.584 35.8919 162.372 35.8479 162.196C35.8256 162.118 35.8121 162.037 35.8079 161.956C35.8459 162.028 35.8742 162.105 35.8919 162.184L36.0919 162.848C36.1839 163.136 36.2759 163.496 36.3799 163.912C36.4839 164.328 36.6039 164.8 36.7159 165.328C37.3119 168.078 37.7592 170.858 38.0559 173.656C38.4159 176.932 38.5759 179.916 38.5919 182.076C38.5919 183.156 38.5919 184.028 38.5519 184.632C38.5519 184.912 38.5199 185.144 38.5119 185.324C38.5086 185.408 38.4938 185.492 38.4679 185.572Z" fill="#263238"/>
<path d="M38.456 179.82C38.4369 179.578 38.4369 179.334 38.456 179.092C38.484 178.628 38.548 177.952 38.68 177.128C39.0355 174.977 39.652 172.878 40.516 170.876C41.3451 168.852 42.5366 166.996 44.032 165.4C44.2912 165.127 44.5678 164.87 44.86 164.632C44.984 164.524 45.096 164.416 45.212 164.332L45.532 164.112C45.7245 163.962 45.9292 163.828 46.144 163.712C45.4423 164.266 44.7745 164.862 44.144 165.496C42.7022 167.109 41.5432 168.953 40.716 170.952C40.2431 172.045 39.8423 173.167 39.516 174.312C39.204 175.364 38.996 176.332 38.836 177.148C38.676 177.964 38.6 178.632 38.548 179.092C38.5336 179.337 38.5028 179.58 38.456 179.82Z" fill="#263238"/>
</svg>
