<svg width="61" height="60" viewBox="0 0 61 60" fill="none" xmlns="http://www.w3.org/2000/svg">
<rect x="0.5" width="60" height="60" rx="30" fill="#FF3B30"/>
<path d="M22.509 36.1216L24.1836 35.6466C25.6949 35.218 26.75 33.7283 26.75 32.0231C26.75 32.0231 26.75 29.9548 30.5 29.9548C34.2499 29.9548 34.25 32.0231 34.25 32.0231C34.25 32.0231 34.25 32.0231 34.25 32.0231C34.25 33.7283 35.3051 35.218 36.8164 35.6466L38.491 36.1216C40.773 36.7688 43 34.8878 43 32.313C43 30.7659 42.6543 29.2163 41.6464 28.129C39.9497 26.2986 36.5085 23.75 30.5 23.75C24.4915 23.75 21.0503 26.2986 19.3536 28.129C18.3457 29.2163 18 30.7659 18 32.313C18 34.8878 20.227 36.7688 22.509 36.1216Z" fill="#FDFDFD"/>
</svg>
