<svg width="81" height="80" viewBox="0 0 81 80" fill="none" xmlns="http://www.w3.org/2000/svg">
<rect x="0.5" width="80" height="80" rx="40" fill="#FF3B30"/>
<path d="M29.9119 48.1111L32.1308 47.4818C34.1332 46.9138 35.5312 44.9399 35.5312 42.6806C35.5312 42.6806 35.5313 39.9402 40.5 39.9402C45.4687 39.9402 45.4688 42.6805 45.4688 42.6806C45.4688 42.6806 45.4688 42.6806 45.4688 42.6806C45.4688 44.94 46.8668 46.9138 48.8692 47.4818L51.0881 48.1111C54.1118 48.9687 57.0625 46.4763 57.0625 43.0648C57.0625 41.0148 56.6044 38.9616 55.269 37.5209C53.0209 35.0957 48.4612 31.7188 40.5 31.7188C32.5388 31.7188 27.9791 35.0957 25.731 37.5209C24.3956 38.9616 23.9375 41.0148 23.9375 43.0648C23.9375 46.4763 26.8882 48.9687 29.9119 48.1111Z" fill="#FDFDFD"/>
</svg>
