<svg width="20" height="20" viewBox="0 0 20 20" fill="none" xmlns="http://www.w3.org/2000/svg">
<path d="M9.24745 16.0727L13.2932 14.0499C16.8274 12.2827 18.5946 11.3992 18.5946 9.99996C18.5946 8.60075 16.8274 7.71718 13.2932 5.95005L9.24746 3.9272C6.39497 2.50095 4.96872 1.78783 4.14188 2.00673C3.35529 2.21497 2.74095 2.82931 2.53271 3.6159C2.31381 4.44274 3.02693 5.86899 4.45318 8.72148C4.68218 9.1795 4.79669 9.4085 4.84414 9.64817C4.89013 9.88044 4.89013 10.1195 4.84414 10.3517C4.79669 10.5914 4.68218 10.8204 4.45318 11.2784C3.02693 14.1309 2.31381 15.5572 2.53271 16.384C2.74095 17.1706 3.35529 17.7849 4.14188 17.9932C4.96872 18.2121 6.39498 17.499 9.24745 16.0727Z" stroke="white" stroke-width="1.22098"/>
<path d="M11.8389 10.6101C12.1761 10.612 12.4509 10.3402 12.4528 10.003C12.4547 9.66589 12.1828 9.39105 11.8457 9.38918L11.8389 10.6101ZM5.33548 10.5741L11.8389 10.6101L11.8457 9.38918L5.34225 9.35314L5.33548 10.5741Z" fill="white"/>
</svg>
