<svg width="31" height="30" viewBox="0 0 31 30" fill="none" xmlns="http://www.w3.org/2000/svg">
<circle cx="15.4997" cy="9.78949" r="3.78949" stroke="#1E232C" stroke-width="1.5"/>
<path d="M21.1846 12.6316C22.7542 12.6316 24.0267 11.5713 24.0267 10.2632C24.0267 8.95516 22.7542 7.89478 21.1846 7.89478" stroke="#1E232C" stroke-width="1.5" stroke-linecap="round"/>
<path d="M9.81714 12.6316C8.24748 12.6316 6.97502 11.5713 6.97502 10.2632C6.97502 8.95516 8.24748 7.89478 9.81714 7.89478" stroke="#1E232C" stroke-width="1.5" stroke-linecap="round"/>
<ellipse cx="15.5014" cy="20.2104" rx="5.68424" ry="3.78949" stroke="#1E232C" stroke-width="1.5"/>
<path d="M23.0796 22.1055C24.7415 21.7411 25.9217 20.8181 25.9217 19.7371C25.9217 18.6561 24.7415 17.7331 23.0796 17.3687" stroke="#1E232C" stroke-width="1.5" stroke-linecap="round"/>
<path d="M7.92017 22.1055C6.25824 21.7411 5.07805 20.8181 5.07805 19.7371C5.07805 18.6561 6.25824 17.7331 7.92017 17.3687" stroke="#1E232C" stroke-width="1.5" stroke-linecap="round"/>
</svg>
