<svg width="30" height="30" viewBox="0 0 30 30" fill="none" xmlns="http://www.w3.org/2000/svg">
<path d="M19.374 9.375C19.374 11.7912 17.4153 13.75 14.999 13.75C12.5828 13.75 10.624 11.7912 10.624 9.375C10.624 6.95875 12.5828 5 14.999 5C17.4153 5 19.374 6.95875 19.374 9.375Z" fill="#2491FF"/>
<path d="M22.5 20.6252C22.5 23.0415 19.1421 25.0002 15 25.0002C10.8579 25.0002 7.5 23.0415 7.5 20.6252C7.5 18.209 10.8579 16.2502 15 16.2502C19.1421 16.2502 22.5 18.209 22.5 20.6252Z" fill="#2491FF"/>
<path d="M9.90305 6.25024C10.1249 6.25024 10.3414 6.27201 10.5506 6.31345C10.0411 7.21831 9.75049 8.26284 9.75049 9.37524C9.75049 10.4606 10.0271 11.4813 10.5137 12.3707C10.316 12.4075 10.1119 12.4268 9.90305 12.4268C8.13503 12.4268 6.70177 11.0441 6.70177 9.33853C6.70177 7.63292 8.13503 6.25024 9.90305 6.25024Z" fill="#2491FF"/>
<path d="M7.80966 23.7327C7.09976 22.8841 6.62549 21.8428 6.62549 20.6252C6.62549 19.4449 7.0712 18.4302 7.74521 17.5962C5.36436 17.7808 3.50049 19.083 3.50049 20.662C3.50049 22.2558 5.39712 23.5675 7.80966 23.7327Z" fill="#2491FF"/>
<path d="M20.2493 9.37524C20.2493 10.4606 19.9726 11.4813 19.486 12.3707C19.6837 12.4075 19.8879 12.4268 20.0967 12.4268C21.8647 12.4268 23.298 11.0441 23.298 9.33853C23.298 7.63292 21.8647 6.25024 20.0967 6.25024C19.8749 6.25024 19.6583 6.27201 19.4492 6.31345C19.9587 7.21831 20.2493 8.26284 20.2493 9.37524Z" fill="#2491FF"/>
<path d="M22.1901 23.7327C24.6027 23.5675 26.4993 22.2558 26.4993 20.662C26.4993 19.083 24.6354 17.7808 22.2546 17.5962C22.9286 18.4302 23.3743 19.4449 23.3743 20.6252C23.3743 21.8428 22.9 22.8841 22.1901 23.7327Z" fill="#2491FF"/>
</svg>
