<svg width="61" height="60" viewBox="0 0 61 60" fill="none" xmlns="http://www.w3.org/2000/svg">
<rect x="0.5" width="60" height="60" rx="30" fill="#DADADA"/>
<path d="M38 30C38 28.3431 39.3431 27 41 27C42.6569 27 44 28.3431 44 30C44 31.6569 42.6569 33 41 33C39.3431 33 38 31.6569 38 30Z" fill="#1C274C"/>
<path d="M27.5 30C27.5 28.3431 28.8431 27 30.5 27C32.1569 27 33.5 28.3431 33.5 30C33.5 31.6569 32.1569 33 30.5 33C28.8431 33 27.5 31.6569 27.5 30Z" fill="#1C274C"/>
<path d="M17 30C17 28.3431 18.3431 27 20 27C21.6569 27 23 28.3431 23 30C23 31.6569 21.6569 33 20 33C18.3431 33 17 31.6569 17 30Z" fill="#1C274C"/>
</svg>
