<svg width="30" height="30" viewBox="0 0 30 30" fill="none" xmlns="http://www.w3.org/2000/svg">
<path d="M2.5 14.375C2.5 10.2656 2.5 8.21097 3.63495 6.82803C3.84272 6.57486 4.07486 6.34272 4.32803 6.13495C5.71097 5 7.76565 5 11.875 5C15.9844 5 18.039 5 19.422 6.13495C19.6751 6.34272 19.9073 6.57486 20.1151 6.82803C21.25 8.21097 21.25 10.2656 21.25 14.375V15.625C21.25 19.7344 21.25 21.789 20.1151 23.172C19.9073 23.4251 19.6751 23.6573 19.422 23.8651C18.039 25 15.9844 25 11.875 25C7.76565 25 5.71097 25 4.32803 23.8651C4.07486 23.6573 3.84272 23.4251 3.63495 23.172C2.5 21.789 2.5 19.7344 2.5 15.625V14.375Z" stroke="#1E232C" stroke-width="1.875"/>
<path d="M21.25 11.875L22.0729 11.4635C24.5053 10.2474 25.7215 9.63927 26.6107 10.1889C27.5 10.7384 27.5 12.0982 27.5 14.8176V15.1824C27.5 17.9018 27.5 19.2616 26.6107 19.8112C25.7215 20.3608 24.5053 19.7527 22.0729 18.5365L21.25 18.125V11.875Z" stroke="#1E232C" stroke-width="1.875"/>
<path d="M13.6875 17.875C14.2053 17.875 14.625 17.4553 14.625 16.9375C14.625 16.4197 14.2053 16 13.6875 16H12.2008L15.6004 12.6004C15.9665 12.2343 15.9665 11.6407 15.6004 11.2746C15.2343 10.9085 14.6407 10.9085 14.2746 11.2746L10.875 14.6742V13.1875C10.875 12.6697 10.4553 12.25 9.9375 12.25C9.41973 12.25 9 12.6697 9 13.1875V16.9375C9 17.4553 9.41973 17.875 9.9375 17.875H13.6875Z" fill="#1E232C"/>
</svg>
