<svg width="30" height="30" viewBox="0 0 30 30" fill="none" xmlns="http://www.w3.org/2000/svg">
<path d="M23.75 6.25L18.75 11.25M18.75 11.25V7.5M18.75 11.25H22.5" stroke="#1E232C" stroke-width="1.875" stroke-linecap="round" stroke-linejoin="round"/>
<path d="M18.8759 18.784L18.1962 18.1384H18.1962L18.8759 18.784ZM19.4452 18.1846L20.1249 18.8303L19.4452 18.1846ZM22.466 17.7654L21.9983 18.5779H21.9984L22.466 17.7654ZM24.8542 19.14L24.3865 19.9525L24.8542 19.14ZM25.5271 23.448L26.2068 24.0937L25.5271 23.448ZM23.7514 25.3175L23.0717 24.6719V24.6719L23.7514 25.3175ZM22.0953 26.2039L22.1874 27.1368H22.1874L22.0953 26.2039ZM9.7692 20.594L10.4489 19.9483L9.7692 20.594ZM3.75361 8.70742L2.81746 8.75767L2.81746 8.75767L3.75361 8.70742ZM11.8469 10.6289L12.5266 11.2745V11.2745L11.8469 10.6289ZM12.0428 7.11638L12.8083 6.57515H12.8083L12.0428 7.11638ZM10.4666 4.88702L9.70108 5.42825L9.70108 5.42825L10.4666 4.88702ZM6.57681 4.5108L7.25655 5.15645V5.15645L6.57681 4.5108ZM4.61481 6.57642L3.93507 5.93078H3.93507L4.61481 6.57642ZM13.8289 16.3199L14.5086 15.6742L13.8289 16.3199ZM19.5556 19.4296L20.1249 18.8303L18.7655 17.539L18.1962 18.1384L19.5556 19.4296ZM21.9984 18.5779L24.3865 19.9525L25.3218 18.3275L22.9337 16.9529L21.9984 18.5779ZM24.8473 22.8024L23.0717 24.6719L24.4311 25.9631L26.2068 24.0937L24.8473 22.8024ZM22.0033 25.2709C20.2095 25.448 15.5292 25.2969 10.4489 19.9483L9.08946 21.2396C14.6262 27.0688 19.9076 27.3619 22.1874 27.1368L22.0033 25.2709ZM10.4489 19.9483C5.60379 14.8473 4.79106 10.5444 4.68976 8.65717L2.81746 8.75767C2.94153 11.0692 3.923 15.8003 9.08946 21.2396L10.4489 19.9483ZM12.1681 11.652L12.5266 11.2745L11.1672 9.98325L10.8086 10.3607L12.1681 11.652ZM12.8083 6.57515L11.2321 4.34579L9.70108 5.42825L11.2773 7.6576L12.8083 6.57515ZM5.89707 3.86516L3.93507 5.93078L5.29455 7.22206L7.25655 5.15645L5.89707 3.86516ZM11.4884 11.0063C10.8086 10.3607 10.8078 10.3616 10.8069 10.3625C10.8066 10.3628 10.8057 10.3638 10.8051 10.3644C10.8039 10.3657 10.8027 10.367 10.8015 10.3683C10.799 10.3709 10.7965 10.3737 10.7939 10.3766C10.7886 10.3823 10.7831 10.3886 10.7772 10.3953C10.7655 10.4088 10.7527 10.4241 10.7389 10.4415C10.7115 10.4762 10.6804 10.5189 10.6478 10.5699C10.5824 10.6721 10.5115 10.8066 10.4514 10.9754C10.3293 11.3186 10.2627 11.7731 10.3459 12.3407C10.5093 13.4558 11.24 14.9555 13.1492 16.9655L14.5086 15.6742C12.7241 13.7954 12.2845 12.6383 12.2011 12.0689C12.1608 11.7942 12.2017 11.6495 12.2179 11.604C12.227 11.5785 12.2329 11.5714 12.2271 11.5805C12.2243 11.5849 12.2187 11.5931 12.2092 11.6051C12.2045 11.6111 12.1988 11.618 12.192 11.6258C12.1886 11.6297 12.1849 11.6338 12.1809 11.6382C12.179 11.6404 12.1769 11.6426 12.1748 11.6449C12.1737 11.6461 12.1726 11.6472 12.1715 11.6484C12.1709 11.649 12.1701 11.6499 12.1698 11.6502C12.169 11.6511 12.1681 11.652 11.4884 11.0063ZM13.1492 16.9655C15.0527 18.9696 16.4904 19.7575 17.5873 19.9356C18.1501 20.027 18.6057 19.954 18.9507 19.818C19.1194 19.7514 19.2528 19.6733 19.3529 19.6023C19.4029 19.5669 19.4444 19.5333 19.478 19.5038C19.4948 19.4891 19.5097 19.4754 19.5226 19.4629C19.529 19.4567 19.535 19.4508 19.5405 19.4452C19.5433 19.4425 19.5459 19.4398 19.5484 19.4372C19.5497 19.4359 19.5509 19.4346 19.5521 19.4333C19.5527 19.4327 19.5536 19.4318 19.5539 19.4315C19.5548 19.4306 19.5556 19.4296 18.8759 18.784C18.1962 18.1384 18.197 18.1375 18.1979 18.1366C18.1981 18.1363 18.199 18.1354 18.1996 18.1348C18.2007 18.1336 18.2018 18.1325 18.2029 18.1314C18.2051 18.1291 18.2072 18.1269 18.2093 18.1248C18.2135 18.1206 18.2175 18.1167 18.2212 18.113C18.2288 18.1057 18.2356 18.0995 18.2416 18.0943C18.2535 18.0838 18.2624 18.077 18.2682 18.0729C18.2799 18.0646 18.2787 18.0675 18.2628 18.0737C18.2386 18.0833 18.125 18.1234 17.8878 18.0849C17.3847 18.0032 16.2988 17.559 14.5086 15.6742L13.1492 16.9655ZM11.2321 4.34579C9.96507 2.55381 7.4298 2.25148 5.89707 3.86516L7.25655 5.15645C7.9101 4.46839 9.06064 4.52244 9.70108 5.42825L11.2321 4.34579ZM4.68976 8.65717C4.66297 8.15805 4.88032 7.65818 5.29455 7.22206L3.93507 5.93078C3.26526 6.63596 2.75616 7.61558 2.81746 8.75767L4.68976 8.65717ZM23.0717 24.6719C22.7229 25.0391 22.3579 25.2359 22.0033 25.2709L22.1874 27.1368C23.1213 27.0447 23.8769 26.5466 24.4311 25.9631L23.0717 24.6719ZM12.5266 11.2745C13.7361 10.0012 13.8217 8.00848 12.8083 6.57515L11.2773 7.6576C11.805 8.40393 11.7241 9.39692 11.1672 9.98325L12.5266 11.2745ZM24.3865 19.9525C25.4125 20.5431 25.6133 21.996 24.8473 22.8024L26.2068 24.0937C27.8381 22.3763 27.363 19.5023 25.3218 18.3275L24.3865 19.9525ZM20.1249 18.8303C20.6068 18.323 21.3575 18.209 21.9983 18.5779L22.9337 16.9529C21.5606 16.1625 19.8577 16.3891 18.7655 17.539L20.1249 18.8303Z" fill="#1E232C"/>
</svg>
