<svg width="61" height="60" viewBox="0 0 61 60" fill="none" xmlns="http://www.w3.org/2000/svg">
<rect x="0.5" width="60" height="60" rx="30" fill="#DADADA"/>
<path fill-rule="evenodd" clip-rule="evenodd" d="M30.5 17.5C29.1739 17.5 27.9021 18.0268 26.9645 18.9645C26.0268 19.9021 25.5 21.1739 25.5 22.5V28.75C25.5 30.0761 26.0268 31.3479 26.9645 32.2855C27.9021 33.2232 29.1739 33.75 30.5 33.75C31.8261 33.75 33.0979 33.2232 34.0355 32.2855C34.9732 31.3479 35.5 30.0761 35.5 28.75V22.5C35.5 21.1739 34.9732 19.9021 34.0355 18.9645C33.0979 18.0268 31.8261 17.5 30.5 17.5ZM21.75 27.5C22.0815 27.5 22.3995 27.6317 22.6339 27.8661C22.8683 28.1005 23 28.4185 23 28.75C23 30.7391 23.7902 32.6468 25.1967 34.0533C26.6032 35.4598 28.5109 36.25 30.5 36.25C32.4891 36.25 34.3968 35.4598 35.8033 34.0533C37.2098 32.6468 38 30.7391 38 28.75C38 28.4185 38.1317 28.1005 38.3661 27.8661C38.6005 27.6317 38.9185 27.5 39.25 27.5C39.5815 27.5 39.8995 27.6317 40.1339 27.8661C40.3683 28.1005 40.5 28.4185 40.5 28.75C40.5002 31.1858 39.6114 33.538 38.0003 35.365C36.3892 37.1919 34.1667 38.368 31.75 38.6725V41.25C31.75 41.5815 31.6183 41.8995 31.3839 42.1339C31.1495 42.3683 30.8315 42.5 30.5 42.5C30.1685 42.5 29.8505 42.3683 29.6161 42.1339C29.3817 41.8995 29.25 41.5815 29.25 41.25V38.6725C26.8333 38.368 24.6108 37.1919 22.9997 35.365C21.3886 33.538 20.4998 31.1858 20.5 28.75C20.5 28.4185 20.6317 28.1005 20.8661 27.8661C21.1005 27.6317 21.4185 27.5 21.75 27.5Z" fill="#1E232C"/>
</svg>
