<svg width="20" height="20" viewBox="0 0 20 20" fill="none" xmlns="http://www.w3.org/2000/svg">
<path d="M5 6.66675C5 3.90532 7.23858 1.66675 10 1.66675C12.7614 1.66675 15 3.90532 15 6.66675V10.8334C15 13.5948 12.7614 15.8334 10 15.8334C7.23858 15.8334 5 13.5948 5 10.8334V6.66675Z" stroke="white" stroke-width="1.26453"/>
<path d="M8.3335 5.41675C8.3335 5.41675 8.72744 5.00008 10.0002 5.00008C11.2729 5.00008 11.6668 5.41675 11.6668 5.41675" stroke="white" stroke-width="1.26453" stroke-linecap="round"/>
<path d="M8.3335 7.9165C8.3335 7.9165 8.72744 7.49984 10.0002 7.49984C11.2729 7.49984 11.6668 7.9165 11.6668 7.9165" stroke="white" stroke-width="1.26453" stroke-linecap="round"/>
<path d="M17.5 9.1665V10.8332C17.5 14.9753 14.1421 18.3332 10 18.3332C5.85786 18.3332 2.5 14.9753 2.5 10.8332V9.1665" stroke="white" stroke-width="1.26453" stroke-linecap="round"/>
</svg>
