<svg width="28" height="28" viewBox="0 0 28 28" fill="none" xmlns="http://www.w3.org/2000/svg">
<path d="M15.1275 23.7399L15.9881 24.2493H15.9881L15.1275 23.7399ZM15.6899 22.7897L14.8294 22.2803L15.6899 22.7897ZM12.3102 22.7897L11.4497 23.2991L11.4497 23.2991L12.3102 22.7897ZM12.8726 23.7399L13.7332 23.2306L12.8726 23.7399ZM4.01988 18.0603L4.94376 17.6776H4.94376L4.01988 18.0603ZM9.63174 21.2538L9.61451 22.2536L9.63174 21.2538ZM6.82736 20.8678L6.44468 21.7917H6.44468L6.82736 20.8678ZM23.9803 18.0603L24.9042 18.443L24.9042 18.443L23.9803 18.0603ZM18.3684 21.2538L18.3512 20.2539L18.3684 21.2538ZM21.1728 20.8678L21.5555 21.7917L21.1728 20.8678ZM21.8981 4.38944L21.3756 5.24208L21.8981 4.38944ZM23.6108 6.10206L24.4634 5.57956V5.57956L23.6108 6.10206ZM6.10206 4.38944L5.57956 3.5368V3.5368L6.10206 4.38944ZM4.38944 6.10206L3.5368 5.57956H3.5368L4.38944 6.10206ZM11.3055 21.4804L11.8082 20.616L11.8082 20.6159L11.3055 21.4804ZM15.9881 24.2493L16.5505 23.2991L14.8294 22.2803L14.267 23.2306L15.9881 24.2493ZM11.4497 23.2991L12.0121 24.2493L13.7332 23.2306L13.1708 22.2803L11.4497 23.2991ZM14.267 23.2306C14.2135 23.3209 14.1201 23.3751 14.0001 23.3751C13.8801 23.3751 13.7867 23.3209 13.7332 23.2306L12.0121 24.2493C12.9006 25.7504 15.0996 25.7504 15.9881 24.2493L14.267 23.2306ZM12.4438 4.625H15.5564V2.625H12.4438V4.625ZM23.3752 12.4438V13.4813H25.3752V12.4438H23.3752ZM4.625 13.4813V12.4438H2.625V13.4813H4.625ZM2.625 13.4813C2.625 14.6762 2.62446 15.6224 2.67668 16.3878C2.72951 17.1622 2.83968 17.8242 3.096 18.443L4.94376 17.6776C4.8052 17.3431 4.71793 16.9242 4.67204 16.2517C4.62554 15.5702 4.625 14.7036 4.625 13.4813H2.625ZM9.64897 20.2539C8.34642 20.2315 7.70222 20.1478 7.21004 19.9439L6.44468 21.7917C7.32264 22.1553 8.31217 22.2312 9.61451 22.2536L9.64897 20.2539ZM3.096 18.443C3.724 19.9591 4.92855 21.1637 6.44468 21.7917L7.21004 19.9439C6.18398 19.5189 5.36877 18.7037 4.94376 17.6776L3.096 18.443ZM23.3752 13.4813C23.3752 14.7036 23.3747 15.5702 23.3282 16.2517C23.2823 16.9242 23.195 17.3431 23.0564 17.6776L24.9042 18.443C25.1605 17.8242 25.2707 17.1622 25.3235 16.3878C25.3757 15.6224 25.3752 14.6762 25.3752 13.4813H23.3752ZM18.3856 22.2536C19.688 22.2312 20.6776 22.1553 21.5555 21.7917L20.7902 19.9439C20.298 20.1478 19.6538 20.2315 18.3512 20.2539L18.3856 22.2536ZM23.0564 17.6776C22.6314 18.7037 21.8162 19.5189 20.7902 19.9439L21.5555 21.7917C23.0716 21.1637 24.2762 19.9591 24.9042 18.443L23.0564 17.6776ZM15.5564 4.625C17.2738 4.625 18.4917 4.62606 19.4384 4.71606C20.3702 4.80466 20.9354 4.97233 21.3756 5.24208L22.4206 3.5368C21.6134 3.04211 20.7059 2.82756 19.6277 2.72504C18.5644 2.62394 17.2351 2.625 15.5564 2.625V4.625ZM25.3752 12.4438C25.3752 10.7651 25.3762 9.43581 25.2751 8.3725C25.1726 7.29432 24.9581 6.38682 24.4634 5.57956L22.7581 6.62456C23.0279 7.06475 23.1955 7.63003 23.2841 8.56181C23.3741 9.50848 23.3752 10.7264 23.3752 12.4438H25.3752ZM21.3756 5.24208C21.9391 5.58736 22.4128 6.0611 22.7581 6.62456L24.4634 5.57956C23.9532 4.747 23.2532 4.047 22.4206 3.5368L21.3756 5.24208ZM12.4438 2.625C10.7651 2.625 9.43581 2.62394 8.3725 2.72504C7.29432 2.82756 6.38682 3.04211 5.57956 3.5368L6.62456 5.24208C7.06475 4.97233 7.63003 4.80466 8.56181 4.71606C9.50848 4.62606 10.7264 4.625 12.4438 4.625V2.625ZM4.625 12.4438C4.625 10.7264 4.62606 9.50848 4.71606 8.56181C4.80466 7.63003 4.97233 7.06475 5.24208 6.62456L3.5368 5.57956C3.04211 6.38682 2.82756 7.29432 2.72504 8.3725C2.62394 9.43581 2.625 10.7651 2.625 12.4438H4.625ZM5.57956 3.5368C4.74699 4.04699 4.04699 4.74699 3.5368 5.57956L5.24208 6.62456C5.58736 6.0611 6.0611 5.58736 6.62456 5.24208L5.57956 3.5368ZM13.1708 22.2803C12.9622 21.9281 12.7713 21.6033 12.5838 21.3461C12.384 21.072 12.1453 20.812 11.8082 20.616L10.8027 22.3448C10.816 22.3525 10.8616 22.3787 10.9675 22.5241C11.0857 22.6863 11.2219 22.9143 11.4497 23.2991L13.1708 22.2803ZM9.61451 22.2536C10.0742 22.2616 10.3507 22.2673 10.558 22.2903C10.7468 22.3112 10.7927 22.339 10.8027 22.3448L11.8082 20.6159C11.4678 20.418 11.1181 20.3401 10.7781 20.3024C10.4567 20.2669 10.0715 20.2612 9.64897 20.2539L9.61451 22.2536ZM16.5505 23.2991C16.7782 22.9143 16.9144 22.6863 17.0327 22.5241C17.1386 22.3787 17.1842 22.3525 17.1974 22.3448L16.1919 20.6159C15.8548 20.812 15.6162 21.072 15.4164 21.3461C15.2289 21.6033 15.0379 21.9281 14.8294 22.2803L16.5505 23.2991ZM18.3512 20.2539C17.9286 20.2612 17.5434 20.2669 17.222 20.3024C16.8821 20.3401 16.5323 20.418 16.1919 20.6159L17.1974 22.3448C17.2074 22.339 17.2534 22.3112 17.4422 22.2903C17.6495 22.2673 17.9259 22.2616 18.3856 22.2536L18.3512 20.2539Z" fill="white"/>
<path d="M13.9985 9.33325V16.3333M10.4998 12.8333L17.4998 12.8333" stroke="white" stroke-width="1.75" stroke-linecap="round"/>
</svg>
