<svg width="30" height="30" viewBox="0 0 30 30" fill="none" xmlns="http://www.w3.org/2000/svg">
<path d="M2.5 14.375C2.5 10.2656 2.5 8.21097 3.63495 6.82803C3.84272 6.57486 4.07486 6.34272 4.32803 6.13495C5.71097 5 7.76565 5 11.875 5C15.9844 5 18.039 5 19.422 6.13495C19.6751 6.34272 19.9073 6.57486 20.1151 6.82803C21.25 8.21097 21.25 10.2656 21.25 14.375V15.625C21.25 19.7344 21.25 21.789 20.1151 23.172C19.9073 23.4251 19.6751 23.6573 19.422 23.8651C18.039 25 15.9844 25 11.875 25C7.76565 25 5.71097 25 4.32803 23.8651C4.07486 23.6573 3.84272 23.4251 3.63495 23.172C2.5 21.789 2.5 19.7344 2.5 15.625V14.375Z" stroke="#1E232C" stroke-width="1.875"/>
<path d="M11.1875 11C10.6697 11 10.25 11.4197 10.25 11.9375C10.25 12.4553 10.6697 12.875 11.1875 12.875H12.6742L9.27459 16.2746C8.90847 16.6407 8.90847 17.2343 9.27459 17.6004C9.6407 17.9665 10.2343 17.9665 10.6004 17.6004L14 14.2008V15.6875C14 16.2053 14.4197 16.625 14.9375 16.625C15.4553 16.625 15.875 16.2053 15.875 15.6875V11.9375C15.875 11.4197 15.4553 11 14.9375 11H11.1875Z" fill="#1E232C"/>
<path d="M21.25 11.875L22.0729 11.4635C24.5053 10.2474 25.7215 9.63927 26.6107 10.1889C27.5 10.7384 27.5 12.0982 27.5 14.8176V15.1824C27.5 17.9018 27.5 19.2616 26.6107 19.8112C25.7215 20.3608 24.5053 19.7527 22.0729 18.5365L21.25 18.125V11.875Z" stroke="#1E232C" stroke-width="1.875"/>
</svg>
