<svg width="81" height="80" viewBox="0 0 81 80" fill="none" xmlns="http://www.w3.org/2000/svg">
<rect x="0.5" width="80" height="80" rx="40" fill="#34C759"/>
<path d="M37.2294 28.8604L38.3111 30.7986C39.2873 32.5477 38.8954 34.8423 37.3579 36.3797C37.3579 36.3798 37.3579 36.3797 37.3579 36.3798C37.3577 36.3799 35.4932 38.2448 38.8743 41.6259C42.2542 45.0058 44.1191 43.1436 44.1204 43.1422C44.1205 43.1422 44.1204 43.1422 44.1205 43.1422C45.6579 41.6048 47.9525 41.2129 49.7016 42.1891L51.6398 43.2708C54.281 44.7448 54.5929 48.4488 52.2714 50.7704C50.8764 52.1654 49.1674 53.2509 47.2783 53.3225C44.098 53.4431 38.6972 52.6382 33.2796 47.2206C27.862 41.8029 27.0571 36.4021 27.1777 33.2219C27.2493 31.3327 28.3348 29.6238 29.7298 28.2288C32.0513 25.9072 35.7554 26.2191 37.2294 28.8604Z" fill="white"/>
</svg>
