<svg width="130" height="130" viewBox="0 0 130 130" fill="none" xmlns="http://www.w3.org/2000/svg">
<rect width="130" height="130" rx="65" fill="#F1F1F3"/>
<path fill-rule="evenodd" clip-rule="evenodd" d="M65 59.3125C66.3462 59.3125 67.4375 60.4038 67.4375 61.75V65.8125H71.5C72.8462 65.8125 73.9375 66.9038 73.9375 68.25C73.9375 69.5962 72.8462 70.6875 71.5 70.6875H67.4375V74.75C67.4375 76.0962 66.3462 77.1875 65 77.1875C63.6538 77.1875 62.5625 76.0962 62.5625 74.75V70.6875H58.5C57.1538 70.6875 56.0625 69.5962 56.0625 68.25C56.0625 66.9038 57.1538 65.8125 58.5 65.8125H62.5625V61.75C62.5625 60.4038 63.6538 59.3125 65 59.3125Z" fill="#BEBEBE"/>
<path fill-rule="evenodd" clip-rule="evenodd" d="M57.7778 94.25H72.2222C82.3656 94.25 87.4372 94.25 91.0805 91.8599C92.6576 90.8252 94.0118 89.4957 95.0657 87.9472C97.5 84.3702 97.5 79.3907 97.5 69.4318C97.5 59.4729 97.5 54.4934 95.0657 50.9165C94.0118 49.3679 92.6576 48.0384 91.0805 47.0037C88.7395 45.4679 85.8087 44.919 81.3215 44.7228C79.1802 44.7228 77.3366 43.1297 76.9167 41.0682C76.2868 37.9759 73.5213 35.75 70.3094 35.75H59.6906C56.4787 35.75 53.7132 37.9759 53.0833 41.0682C52.6634 43.1297 50.8198 44.7228 48.6785 44.7228C44.1913 44.919 41.2605 45.4679 38.9195 47.0037C37.3424 48.0384 35.9882 49.3679 34.9343 50.9165C32.5 54.4934 32.5 59.4729 32.5 69.4318C32.5 79.3907 32.5 84.3702 34.9343 87.9472C35.9882 89.4957 37.3424 90.8252 38.9195 91.8599C42.5628 94.25 47.6344 94.25 57.7778 94.25ZM78 68.25C78 75.4297 72.1797 81.25 65 81.25C57.8203 81.25 52 75.4297 52 68.25C52 61.0703 57.8203 55.25 65 55.25C72.1797 55.25 78 61.0703 78 68.25ZM84.5 56.0625C83.1538 56.0625 82.0625 57.1538 82.0625 58.5C82.0625 59.8462 83.1538 60.9375 84.5 60.9375H87.75C89.0962 60.9375 90.1875 59.8462 90.1875 58.5C90.1875 57.1538 89.0962 56.0625 87.75 56.0625H84.5Z" fill="#BEBEBE"/>
</svg>
