<svg width="25" height="24" viewBox="0 0 25 24" fill="none" xmlns="http://www.w3.org/2000/svg">
<path d="M11.798 2.19493C12.1926 2.04729 12.6238 2.02804 13.03 2.13993L13.202 2.19493L20.202 4.81993C20.5569 4.95303 20.8667 5.18424 21.0953 5.48664C21.3239 5.78903 21.4618 6.15016 21.493 6.52793L21.5 6.69293V12.0559C21.5 13.6764 21.0624 15.2667 20.2336 16.6591C19.4048 18.0515 18.2154 19.1944 16.791 19.9669L16.525 20.1059L13.171 21.7829C12.9863 21.8751 12.7846 21.9282 12.5785 21.9389C12.3723 21.9496 12.1662 21.9176 11.973 21.8449L11.829 21.7829L8.475 20.1059C7.02561 19.3812 5.79878 18.2786 4.924 16.9145C4.04923 15.5505 3.55898 13.9755 3.505 12.3559L3.5 12.0559V6.69293C3.50001 6.31406 3.60763 5.94299 3.81033 5.62291C4.01304 5.30282 4.3025 5.0469 4.645 4.88493L4.798 4.81993L11.798 2.19493ZM12.5 4.06793L5.5 6.69293V12.0559C5.50003 13.3109 5.83745 14.5429 6.47696 15.6227C7.11646 16.7026 8.03451 17.5906 9.135 18.1939L9.37 18.3169L12.5 19.8819L15.63 18.3169C16.7527 17.7557 17.7039 16.9029 18.3839 15.8478C19.0638 14.7927 19.4476 13.5742 19.495 12.3199L19.5 12.0559V6.69293L12.5 4.06793ZM15.933 8.62893C16.113 8.44959 16.3544 8.34546 16.6084 8.33771C16.8623 8.32995 17.1097 8.41915 17.3003 8.58718C17.4908 8.75522 17.6103 8.98949 17.6344 9.24241C17.6585 9.49533 17.5854 9.74794 17.43 9.94894L17.347 10.0429L12.113 15.2779C11.9223 15.4686 11.6683 15.5825 11.3992 15.5982C11.13 15.6139 10.8645 15.5301 10.653 15.3629L10.557 15.2779L8.153 12.8739C7.97175 12.6944 7.86597 12.4524 7.85732 12.1974C7.84867 11.9424 7.9378 11.6938 8.10647 11.5024C8.27513 11.3109 8.51058 11.1912 8.76462 11.1677C9.01866 11.1442 9.27208 11.2187 9.473 11.3759L9.567 11.4589L11.335 13.2269L15.933 8.62893Z" fill="#1E232C"/>
</svg>
