<svg width="21" height="20" viewBox="0 0 21 20" fill="none" xmlns="http://www.w3.org/2000/svg">
<path d="M8 13.3333C8.70865 13.8585 9.57047 14.1666 10.5 14.1666C11.4295 14.1666 12.2914 13.8585 13 13.3333" stroke="#909090" stroke-width="1.25" stroke-linecap="round"/>
<ellipse cx="12.9998" cy="8.75" rx="0.833333" ry="1.25" fill="#909090"/>
<ellipse cx="7.99984" cy="8.75" rx="0.833333" ry="1.25" fill="#909090"/>
<path d="M12.9998 18.3334H10.4998C6.57147 18.3334 4.60728 18.3334 3.38689 17.113C2.1665 15.8926 2.1665 13.9285 2.1665 10.0001C2.1665 6.07171 2.1665 4.10752 3.38689 2.88714C4.60728 1.66675 6.57147 1.66675 10.4998 1.66675C14.4282 1.66675 16.3924 1.66675 17.6128 2.88714C18.8332 4.10752 18.8332 6.07171 18.8332 10.0001V12.5001M12.9998 18.3334C16.2215 18.3334 18.8332 15.7217 18.8332 12.5001M12.9998 18.3334C12.9998 16.7823 12.9998 16.0068 13.2038 15.3792C13.6159 14.1107 14.6104 13.1162 15.8789 12.704C16.5066 12.5001 17.2821 12.5001 18.8332 12.5001" stroke="#909090" stroke-width="1.25"/>
</svg>
