<svg width="61" height="60" viewBox="0 0 61 60" fill="none" xmlns="http://www.w3.org/2000/svg">
<rect x="0.5" width="60" height="60" rx="30" fill="#DADADA"/>
<path d="M18.0037 29.6443C18.0504 27.3416 18.0737 26.1902 18.8387 25.2045C18.9783 25.0246 19.1831 24.8109 19.3548 24.6659C20.2955 23.8718 21.5374 23.8718 24.0213 23.8718C24.9088 23.8718 25.3525 23.8718 25.7754 23.7557C25.8633 23.7315 25.9503 23.7037 26.0361 23.6723C26.4492 23.5209 26.8197 23.2605 27.5606 22.7395C30.484 20.6842 31.9456 19.6566 33.1725 20.103C33.4077 20.1886 33.6354 20.3121 33.8387 20.4645C34.8993 21.2593 34.9799 23.1084 35.141 26.8067C35.2007 28.1761 35.2414 29.3481 35.2414 30C35.2414 30.6519 35.2007 31.8239 35.141 33.1933C34.9799 36.8916 34.8993 38.7407 33.8387 39.5355C33.6354 39.6879 33.4077 39.8114 33.1725 39.897C31.9456 40.3434 30.484 39.3158 27.5606 37.2605C26.8197 36.7395 26.4492 36.4791 26.0361 36.3277C25.9503 36.2963 25.8633 36.2685 25.7754 36.2444C25.3525 36.1282 24.9088 36.1282 24.0213 36.1282C21.5374 36.1282 20.2955 36.1282 19.3548 35.3341C19.1831 35.1891 18.9783 34.9754 18.8387 34.7955C18.0737 33.8098 18.0504 32.6584 18.0037 30.3557C18.0013 30.2347 18 30.116 18 30C18 29.884 18.0013 29.7653 18.0037 29.6443Z" fill="#1E232C"/>
<path fill-rule="evenodd" clip-rule="evenodd" d="M39.8619 21.9402C40.2277 21.6152 40.7713 21.6679 41.0761 22.0579L40.4138 22.6464C41.0761 22.0579 41.0757 22.0575 41.0761 22.0579L41.0774 22.0596L41.0788 22.0615L41.0822 22.0659L41.0909 22.0773C41.0974 22.086 41.1056 22.0969 41.1151 22.1102C41.1343 22.1366 41.1594 22.1722 41.1894 22.217C41.2494 22.3066 41.3294 22.4333 41.4224 22.5986C41.6085 22.9293 41.8463 23.4136 42.0805 24.063C42.5497 25.3638 43 27.3142 43 30.0003C43 32.6864 42.5497 34.6367 42.0805 35.9376C41.8463 36.5869 41.6085 37.0713 41.4224 37.402C41.3294 37.5672 41.2494 37.694 41.1894 37.7836C41.1594 37.8284 41.1343 37.864 41.1151 37.8904C41.1056 37.9036 41.0974 37.9146 41.0909 37.9233L41.0822 37.9346L41.0788 37.9391L41.0774 37.941C41.077 37.9414 41.0761 37.9427 40.4138 37.3542L41.0761 37.9427C40.7713 38.3327 40.2277 38.3854 39.8619 38.0603C39.4979 37.7369 39.4472 37.1613 39.7472 36.7713C39.7479 36.7704 39.7492 36.7685 39.7512 36.7659C39.7573 36.7575 39.7693 36.7406 39.7864 36.715C39.8206 36.6639 39.8753 36.5781 39.944 36.4561C40.0812 36.2123 40.2744 35.8233 40.4713 35.2776C40.8641 34.1885 41.2759 32.4619 41.2759 30.0003C41.2759 27.5387 40.8641 25.8121 40.4713 24.7229C40.2744 24.1773 40.0812 23.7883 39.944 23.5445C39.8753 23.4225 39.8206 23.3367 39.7864 23.2856C39.7693 23.26 39.7573 23.2431 39.7512 23.2347C39.7492 23.232 39.7479 23.2302 39.7472 23.2293C39.7472 23.2292 39.7472 23.2293 39.7472 23.2293" fill="#1E232C"/>
<path fill-rule="evenodd" clip-rule="evenodd" d="M37.6964 25.5199C38.1126 25.2734 38.6374 25.4333 38.8687 25.8771L38.1151 26.3235C38.8687 25.8771 38.8685 25.8767 38.8687 25.8771L38.8695 25.8787L38.8704 25.8804L38.8723 25.8841L38.8767 25.8929L38.8878 25.9153C38.8961 25.9326 38.9063 25.9544 38.9181 25.9807C38.9417 26.0334 38.9715 26.1045 39.0053 26.1947C39.073 26.375 39.1564 26.6311 39.2375 26.9685C39.3999 27.6437 39.5519 28.6398 39.5519 30.0004C39.5519 31.361 39.3999 32.3572 39.2375 33.0324C39.1564 33.3697 39.073 33.6258 39.0053 33.8062C38.9715 33.8963 38.9417 33.9674 38.9181 34.0202C38.9063 34.0465 38.8961 34.0683 38.8878 34.0855L38.8767 34.108L38.8723 34.1167L38.8704 34.1205L38.8695 34.1222C38.8693 34.1226 38.8687 34.1238 38.1151 33.6774L38.8687 34.1238C38.6374 34.5676 38.1126 34.7275 37.6964 34.4809C37.2838 34.2365 37.1328 33.6842 37.3557 33.2423L37.3614 33.2297C37.3693 33.2121 37.3844 33.1769 37.4045 33.1234C37.4446 33.0165 37.5048 32.836 37.5674 32.5758C37.6924 32.056 37.8277 31.2137 37.8277 30.0004C37.8277 28.7872 37.6924 27.9448 37.5674 27.4251C37.5048 27.1649 37.4446 26.9844 37.4045 26.8775C37.3844 26.824 37.3693 26.7888 37.3614 26.7711L37.3557 26.7586C37.1328 26.3166 37.2838 25.7644 37.6964 25.5199Z" fill="#1E232C"/>
</svg>
