<svg width="31" height="30" viewBox="0 0 31 30" fill="none" xmlns="http://www.w3.org/2000/svg">
<g clip-path="url(#clip0_256_4160)">
<path d="M25.334 12.1299L25.3538 12.1861L25.4271 12.4289L25.4885 12.6469L25.5147 12.7465L25.5576 12.9267C26.1142 15.4381 25.7079 18.0669 24.4192 20.2931C23.1333 22.5262 21.0548 24.1942 18.5962 24.9661L18.4229 25.0176L18.21 25.0725L17.9024 25.1455C17.7937 25.1702 17.6811 25.1723 17.5716 25.1516C17.462 25.1308 17.358 25.0878 17.2659 25.025C17.1737 24.9623 17.0955 24.8812 17.0361 24.7869C16.9767 24.6926 16.9374 24.5871 16.9206 24.4769C16.8861 24.2508 16.9378 24.0199 17.0654 23.83C17.193 23.6402 17.3873 23.5052 17.6097 23.4518L17.8573 23.3896C18.0118 23.3489 18.1447 23.3099 18.2559 23.2724C20.2304 22.6058 21.8934 21.2412 22.9328 19.4349C23.9782 17.63 24.328 15.5053 23.9163 13.4605L23.8867 13.3262L23.8472 13.1696L23.7978 12.9902L23.7386 12.7885C23.6723 12.5685 23.6911 12.3316 23.7912 12.1248C23.8914 11.918 24.0656 11.7564 24.2793 11.672C24.3786 11.6328 24.4847 11.6135 24.5914 11.6153C24.6982 11.617 24.8036 11.6398 24.9015 11.6824C24.9995 11.7249 25.0881 11.7863 25.1623 11.8631C25.2365 11.9399 25.2949 12.0305 25.334 12.1299ZM6.65169 11.6656C6.67028 11.6713 6.68859 11.6776 6.70661 11.6845C6.91986 11.7676 7.0941 11.9278 7.1948 12.1333C7.2955 12.3388 7.3153 12.5747 7.25029 12.7941C7.17305 13.0542 7.11727 13.2706 7.08294 13.4434C6.67303 15.4865 7.02322 17.609 8.06773 19.4122C9.10799 21.2201 10.7731 22.5854 12.7497 23.2514L12.881 23.293L12.9557 23.3145L13.123 23.3599L13.4208 23.4333C13.6445 23.4859 13.8403 23.6207 13.9693 23.8109C14.0983 24.0011 14.1511 24.2329 14.1172 24.4602C14.0855 24.6733 13.9703 24.8651 13.7971 24.9934C13.624 25.1216 13.407 25.1759 13.1938 25.1442L13.1346 25.1334L12.8874 25.0755L12.6686 25.0197L12.4772 24.9661L12.3914 24.9403C9.93788 24.1664 7.86427 22.4997 6.58089 20.27C5.28976 18.0399 4.88432 15.4058 5.44505 12.8907L5.47809 12.7534L5.521 12.5924L5.60424 12.3071L5.63686 12.1998C5.66838 12.0981 5.71963 12.0035 5.78769 11.9216C5.85575 11.8396 5.93928 11.7719 6.03352 11.7223C6.12776 11.6726 6.23086 11.642 6.33692 11.6322C6.44299 11.6224 6.54995 11.634 6.65169 11.6656ZM15.5196 8.26707C19.3115 8.26707 22.3852 11.3407 22.3852 15.1327C22.3852 18.9247 19.3115 21.9984 15.5196 21.9984C11.7276 21.9984 8.65389 18.9247 8.65389 15.1327C8.65389 11.3407 11.728 8.26707 15.5196 8.26707ZM15.5196 9.98349C12.6759 9.98349 10.3703 12.2891 10.3703 15.1327C10.3703 17.9764 12.6759 20.282 15.5196 20.282C18.3637 20.282 20.6688 17.9764 20.6688 15.1327C20.6688 12.2891 18.3637 9.98349 15.5196 9.98349ZM15.5196 4.83424C18.0965 4.83108 20.5805 5.79696 22.4783 7.54017L22.5809 7.63757L22.6989 7.75515L22.8319 7.89332L22.9804 8.05166C23.0561 8.13339 23.1142 8.22986 23.151 8.33504C23.1878 8.44022 23.2026 8.55185 23.1943 8.66298C23.1861 8.77411 23.155 8.88234 23.103 8.98093C23.0511 9.07951 22.9794 9.16634 22.8924 9.23599C22.7138 9.37909 22.488 9.44987 22.2596 9.43429C22.0313 9.41871 21.8171 9.31792 21.6596 9.15188C21.5663 9.05319 21.4798 8.96494 21.4 8.88712L21.2498 8.7438L21.1812 8.68244C19.6167 7.30579 17.6035 6.54773 15.5196 6.55065C13.4337 6.54763 11.4187 7.307 9.85366 8.68587L9.80474 8.72964L9.69618 8.83263L9.57303 8.95492L9.36062 9.17591C9.0345 9.52306 8.49641 9.56211 8.12351 9.26602C8.03989 9.19964 7.97016 9.11742 7.91832 9.02407C7.86648 8.93073 7.83355 8.82808 7.82139 8.722C7.80924 8.61592 7.81811 8.50849 7.84749 8.40584C7.87687 8.30319 7.92619 8.20733 7.99264 8.12375L8.03126 8.07826L8.20504 7.89332L8.36296 7.73112C8.43791 7.65588 8.50713 7.58937 8.57064 7.53158C10.4672 5.79391 12.9473 4.83132 15.5196 4.83424Z" fill="#1E232C"/>
</g>
<defs>
<clipPath id="clip0_256_4160">
<rect width="30" height="30" fill="white" transform="translate(0.5)"/>
</clipPath>
</defs>
</svg>
