<svg width="30" height="30" viewBox="0 0 30 30" fill="none" xmlns="http://www.w3.org/2000/svg">
<path d="M19.376 9.375C19.376 11.7912 17.4172 13.75 15.001 13.75C12.5847 13.75 10.626 11.7912 10.626 9.375C10.626 6.95875 12.5847 5 15.001 5C17.4172 5 19.376 6.95875 19.376 9.375Z" fill="white"/>
<path d="M22.501 20.625C22.501 23.0412 19.1431 25 15.001 25C10.8588 25 7.50098 23.0412 7.50098 20.625C7.50098 18.2088 10.8588 16.25 15.001 16.25C19.1431 16.25 22.501 18.2088 22.501 20.625Z" fill="white"/>
<path d="M8.90256 6.25C9.12439 6.25 9.34095 6.27177 9.55007 6.3132C9.04062 7.21807 8.75 8.2626 8.75 9.375C8.75 10.4603 9.02664 11.481 9.51324 12.3705C9.31556 12.4073 9.1114 12.4266 8.90256 12.4266C7.13454 12.4266 5.70128 11.0439 5.70128 9.33829C5.70128 7.63267 7.13454 6.25 8.90256 6.25Z" fill="white"/>
<path d="M6.80917 23.7325C6.09928 22.8839 5.625 21.8425 5.625 20.625C5.625 19.4447 6.07072 18.43 6.74473 17.5959C4.36387 17.7806 2.5 19.0828 2.5 20.6617C2.5 22.2555 4.39663 23.5673 6.80917 23.7325Z" fill="white"/>
<path d="M21.2483 9.375C21.2483 10.4603 20.9717 11.481 20.4851 12.3705C20.6827 12.4073 20.8869 12.4266 21.0957 12.4266C22.8638 12.4266 24.297 11.0439 24.297 9.33829C24.297 7.63267 22.8638 6.25 21.0957 6.25C20.8739 6.25 20.6574 6.27177 20.4482 6.3132C20.9577 7.21807 21.2483 8.2626 21.2483 9.375Z" fill="white"/>
<path d="M23.1891 23.7325C25.6017 23.5673 27.4983 22.2555 27.4983 20.6617C27.4983 19.0828 25.6344 17.7806 23.2536 17.5959C23.9276 18.43 24.3733 19.4447 24.3733 20.625C24.3733 21.8425 23.899 22.8839 23.1891 23.7325Z" fill="white"/>
</svg>
