<svg width="30" height="30" viewBox="0 0 30 30" fill="none" xmlns="http://www.w3.org/2000/svg">
<circle cx="11.2495" cy="7.5" r="5" fill="white"/>
<ellipse cx="11.25" cy="21.2512" rx="8.75" ry="5" fill="white"/>
<path d="M26.2494 21.2506C26.2494 23.3217 23.705 25.0006 20.5984 25.0006C21.5136 24.0002 22.143 22.7445 22.143 21.2524C22.143 19.7586 21.5122 18.5016 20.5952 17.5007C23.7018 17.5007 26.2494 19.1796 26.2494 21.2506Z" fill="white"/>
<path d="M22.4994 7.50098C22.4994 9.57204 20.8205 11.251 18.7494 11.251C18.2978 11.251 17.8648 11.1711 17.4639 11.0248C18.0552 9.98471 18.393 8.78159 18.393 7.49958C18.393 6.21852 18.0557 5.01623 17.4652 3.97664C17.8658 3.83063 18.2983 3.75098 18.7494 3.75098C20.8205 3.75098 22.4994 5.42991 22.4994 7.50098Z" fill="white"/>
</svg>
