<svg width="22" height="24" viewBox="0 0 22 24" fill="none" xmlns="http://www.w3.org/2000/svg">
<circle cx="11.999" cy="6" r="4" fill="#1E232C"/>
<path fill-rule="evenodd" clip-rule="evenodd" d="M16.499 22C14.8491 22 14.0241 22 13.5116 21.4874C12.999 20.9749 12.999 20.1499 12.999 18.5C12.999 16.8501 12.999 16.0251 13.5116 15.5126C14.0241 15 14.8491 15 16.499 15C18.1489 15 18.9739 15 19.4865 15.5126C19.999 16.0251 19.999 16.8501 19.999 18.5C19.999 20.1499 19.999 20.9749 19.4865 21.4874C18.9739 22 18.1489 22 16.499 22ZM17.0824 16.9444C17.0824 16.6223 16.8212 16.3611 16.499 16.3611C16.1769 16.3611 15.9157 16.6223 15.9157 16.9444V17.9167H14.9435C14.6213 17.9167 14.3601 18.1778 14.3601 18.5C14.3601 18.8222 14.6213 19.0833 14.9435 19.0833H15.9157V20.0556C15.9157 20.3777 16.1769 20.6389 16.499 20.6389C16.8212 20.6389 17.0824 20.3777 17.0824 20.0556V19.0833H18.0546C18.3767 19.0833 18.6379 18.8222 18.6379 18.5C18.6379 18.1778 18.3767 17.9167 18.0546 17.9167H17.0824V16.9444Z" fill="#1E232C"/>
<path d="M15.4142 13.5074C14.4041 13.1842 13.2395 13 11.9995 13C8.13352 13 4.99951 14.7909 4.99951 17C4.99951 19.1406 7.94195 20.8884 11.6416 20.9949C11.6145 20.8686 11.5935 20.7432 11.577 20.6201C11.4993 20.0424 11.4994 19.3365 11.4995 18.586V18.414C11.4994 17.6635 11.4993 16.9576 11.577 16.3799C11.6634 15.737 11.87 15.0333 12.4514 14.4519C13.0329 13.8705 13.7365 13.6639 14.3794 13.5774C14.6914 13.5355 15.0407 13.5162 15.4142 13.5074Z" fill="#1E232C"/>
</svg>
