<svg width="308" height="308" viewBox="0 0 308 308" fill="none" xmlns="http://www.w3.org/2000/svg">
<path d="M32.8513 137.879V167.226C32.8513 169.776 33.8644 172.222 35.6677 174.025C37.471 175.828 39.9168 176.841 42.4671 176.841H147.686C150.235 176.84 152.679 175.826 154.481 174.023C156.283 172.22 157.296 169.775 157.296 167.226V142.432L170.398 128.67L42.504 128.27C41.2387 128.265 39.9848 128.51 38.8143 128.99C37.6438 129.471 36.5797 130.178 35.6829 131.071C34.7862 131.964 34.0745 133.024 33.5886 134.193C33.1027 135.361 32.8521 136.614 32.8513 137.879Z" fill="#F5F5F5"/>
<path d="M141.785 146.047L46.311 145.604L46.3172 142.672L141.797 143.109L141.785 146.047Z" fill="#E0E0E0"/>
<path d="M141.785 155.7L46.311 155.263L46.3172 152.324L141.797 152.768L141.785 155.7Z" fill="#E0E0E0"/>
<path d="M104.014 161.99L104 164.922L141.778 165.106L141.793 162.174L104.014 161.99Z" fill="#E0E0E0"/>
<path d="M130.346 239.273V268.619C130.346 271.169 131.359 273.615 133.162 275.419C134.965 277.222 137.411 278.235 139.961 278.235H245.168C247.717 278.233 250.162 277.219 251.963 275.416C253.765 273.613 254.778 271.168 254.778 268.619V243.825L267.88 230.064L139.98 229.663C138.716 229.661 137.464 229.908 136.296 230.389C135.128 230.871 134.066 231.578 133.171 232.471C132.276 233.363 131.566 234.424 131.081 235.591C130.596 236.758 130.347 238.009 130.346 239.273Z" fill="#F5F5F5"/>
<path d="M239.741 246.677L144.261 246.24L144.267 243.302L239.747 243.745L239.741 246.677Z" fill="#E0E0E0"/>
<path d="M239.741 256.33L144.261 255.893L144.267 252.954L239.747 253.398L239.741 256.33Z" fill="#E0E0E0"/>
<path d="M201.961 262.613L201.947 265.545L239.726 265.73L239.74 262.798L201.961 262.613Z" fill="#E0E0E0"/>
<path d="M89.092 27.3442H151.148C152.618 27.3442 154.028 27.9283 155.068 28.968C156.108 30.0077 156.692 31.4179 156.692 32.8882V63.2386C156.692 64.7089 156.108 66.1191 155.068 67.1588C154.028 68.1985 152.618 68.7826 151.148 68.7826H98.4922C97.0218 68.7826 95.6117 68.1985 94.572 67.1588C93.5323 66.1191 92.9482 64.7089 92.9482 63.2386V31.1819L89.092 27.3442Z" fill="#F5F5F5"/>
<path d="M125.048 56.8506V76.3162C125.048 78.0071 124.377 79.6288 123.181 80.8245C121.985 82.0201 120.364 82.6918 118.673 82.6918H48.9045C48.0654 82.6943 47.234 82.5312 46.458 82.212C45.682 81.8927 44.9766 81.4236 44.3821 80.8314C43.7876 80.2392 43.3158 79.5356 42.9935 78.7608C42.6713 77.986 42.505 77.1553 42.5042 76.3162V59.869L33.8433 50.7399L118.673 50.475C120.364 50.475 121.985 51.1467 123.181 52.3424C124.377 53.5381 125.048 55.1597 125.048 56.8506Z" fill="#E0E0E0"/>
<path d="M52.8157 62.2653L116.141 61.9758L116.134 60.0292L52.8096 60.3249L52.8157 62.2653Z" fill="#F5F5F5"/>
<path d="M52.8157 68.6717L116.141 68.376L116.134 66.4356L52.8096 66.7251L52.8157 68.6717Z" fill="#F5F5F5"/>
<path d="M77.5113 73.2239H52.4524V75.1705H77.5113V73.2239Z" fill="#F5F5F5"/>
<path d="M257.266 147.101V166.566C257.266 168.257 256.594 169.879 255.399 171.075C254.203 172.27 252.582 172.942 250.891 172.942H181.104C179.412 172.942 177.79 172.27 176.594 171.075C175.397 169.88 174.724 168.258 174.722 166.566V150.119L166.037 140.99L250.866 140.725C251.705 140.723 252.536 140.886 253.312 141.205C254.088 141.524 254.794 141.993 255.388 142.586C255.983 143.178 256.455 143.881 256.777 144.656C257.099 145.431 257.265 146.262 257.266 147.101Z" fill="#E0E0E0"/>
<path d="M185.016 152.522L248.347 152.226L248.334 150.279L185.01 150.575L185.016 152.522Z" fill="#F5F5F5"/>
<path d="M185.016 158.922L248.347 158.632L248.334 156.686L185.01 156.975L185.016 158.922Z" fill="#F5F5F5"/>
<path d="M209.268 164.127H184.209V166.074H209.268V164.127Z" fill="#F5F5F5"/>
<path d="M197.49 243.72C187.061 233.563 186.888 217.848 189.599 204.204C190.054 201.925 190.215 199.467 191.619 197.631C193.024 195.796 195.802 194.841 197.699 196.147C199.27 197.225 199.689 199.325 200.372 201.118C201.284 203.511 202.856 205.596 204.906 207.13C206.243 208.128 207.986 208.886 209.538 208.331C211.694 207.561 212.378 204.869 212.736 202.59C213.401 198.336 214.07 194.083 214.744 189.833C215.101 187.547 215.477 185.219 216.536 183.174C217.596 181.129 219.499 179.373 221.766 179.121C224.033 178.868 226.509 180.556 226.602 182.866C226.532 183.822 226.398 184.773 226.201 185.712C226.109 186.667 226.38 187.788 227.236 188.176C228.092 188.564 229.121 188.096 229.91 187.56C232.638 185.644 234.721 182.946 236.686 180.242C238.651 177.537 240.603 174.753 243.154 172.591C245.704 170.429 248.975 168.926 252.27 169.277C255.566 169.628 258.72 172.209 259.016 175.56C259.311 178.911 256.909 181.862 254.445 184.129C250.786 187.491 246.662 190.309 242.199 192.494C241.398 192.888 240.529 193.307 240.117 194.108C239.371 195.549 240.566 197.293 241.965 198.038C243.572 198.882 245.439 199.005 247.182 199.51C248.926 200.015 250.724 201.106 251.125 202.898C251.673 205.362 249.326 207.5 247.145 208.787C242.78 211.362 238.004 213.167 233.027 214.122C231.252 214.46 229.398 214.707 227.852 215.668C226.306 216.629 225.16 218.538 225.715 220.275C226.269 222.013 228.277 222.875 230.088 222.838C231.899 222.801 233.624 222.099 235.404 221.742C238.731 221.076 242.741 221.951 244.299 224.988C245.328 226.984 245.039 229.479 244.022 231.493C242.919 233.459 241.432 235.183 239.649 236.563C233.661 241.626 226.46 245.316 218.778 246.646C211.097 247.977 204.259 247.558 197.471 243.733" fill="#2491FF"/>
<path d="M195.642 253.872C197.314 247.61 199.583 241.523 202.418 235.694C205.922 228.589 209.829 221.691 214.122 215.033L217.473 209.779C218.575 208.054 219.666 206.342 220.842 204.74C223.105 201.657 225.538 198.701 228.129 195.888C230.593 193.184 232.996 190.714 235.281 188.416C237.567 186.118 239.735 184.03 241.798 182.207C245.034 179.308 248.494 176.672 252.147 174.322C253.441 173.49 254.463 172.874 255.16 172.474L255.96 172.012C256.054 171.953 256.153 171.903 256.256 171.864C256.175 171.933 256.089 171.995 255.997 172.049L255.221 172.542C254.537 172.967 253.533 173.601 252.258 174.457C248.647 176.851 245.222 179.516 242.014 182.428C239.969 184.276 237.819 186.365 235.546 188.662C233.273 190.96 230.871 193.449 228.437 196.147C225.872 198.954 223.462 201.898 221.218 204.968C220.054 206.563 218.97 208.263 217.867 209.988C216.764 211.713 215.655 213.469 214.522 215.243C210.243 221.89 206.335 228.768 202.818 235.848C199.97 241.647 197.673 247.7 195.956 253.928" fill="#263238"/>
<path d="M220.984 204.74C220.93 204.406 220.909 204.068 220.922 203.73C220.922 203.083 220.922 202.14 220.922 200.982C220.972 198.66 221.15 195.438 221.354 191.921C221.557 188.404 221.699 185.194 221.711 182.872C221.711 181.714 221.711 180.778 221.711 180.131C221.684 179.794 221.696 179.455 221.748 179.12C221.824 179.45 221.868 179.786 221.877 180.125C221.939 180.741 221.982 181.708 222.013 182.872C222.074 185.194 222.013 188.416 221.779 191.946C221.545 195.475 221.372 198.586 221.218 200.995C221.163 202.079 221.113 202.997 221.07 203.736C221.081 204.073 221.052 204.41 220.984 204.74Z" fill="#263238"/>
<path d="M251.186 204.062C250.789 204.085 250.391 204.069 249.997 204.013C249.234 203.958 248.149 203.865 246.763 203.804C244.028 203.656 240.252 203.582 236.076 203.68C231.899 203.779 228.129 204.044 225.401 204.296C224.039 204.42 222.937 204.549 222.179 204.635C221.784 204.704 221.384 204.735 220.984 204.728C221.366 204.607 221.757 204.52 222.154 204.469C222.912 204.333 224.002 204.161 225.37 203.995C228.099 203.65 231.881 203.348 236.07 203.237C239.642 203.139 243.218 203.223 246.782 203.489C248.149 203.594 249.246 203.724 250.016 203.834C250.413 203.872 250.805 203.948 251.186 204.062Z" fill="#263238"/>
<path d="M202.892 235.213C202.892 235.213 202.83 235.084 202.75 234.825C202.67 234.567 202.553 234.142 202.418 233.68C202.14 232.688 201.771 231.216 201.34 229.448C200.477 225.856 199.442 220.867 198.37 215.335C197.299 209.803 196.307 204.814 195.518 201.21C195.13 199.461 194.81 198.019 194.576 196.948C194.471 196.486 194.391 196.097 194.323 195.783C194.284 195.649 194.264 195.51 194.262 195.371C194.331 195.494 194.38 195.627 194.41 195.765C194.496 196.073 194.601 196.449 194.736 196.904C195.013 197.896 195.383 199.368 195.814 201.142C196.676 204.728 197.717 209.723 198.783 215.255C199.849 220.787 200.847 225.776 201.635 229.38C202.023 231.129 202.344 232.571 202.578 233.643C202.682 234.105 202.763 234.487 202.83 234.801C202.869 234.935 202.889 235.074 202.892 235.213Z" fill="#263238"/>
<path d="M243.887 229.041C243.754 229.09 243.615 229.121 243.474 229.134L242.279 229.331L237.887 229.996C234.191 230.563 229.072 231.407 223.423 232.337C217.775 233.267 212.65 234.068 208.929 234.554C207.081 234.801 205.559 234.986 204.518 235.09L203.286 235.207C203.148 235.229 203.006 235.229 202.867 235.207C203.001 235.162 203.14 235.131 203.28 235.115L204.469 234.918L208.861 234.252C212.557 233.686 217.682 232.848 223.331 231.912C228.98 230.975 234.105 230.181 237.825 229.694C239.673 229.448 241.189 229.263 242.236 229.158L243.468 229.047C243.606 229.023 243.748 229.021 243.887 229.041Z" fill="#263238"/>
<path d="M93.8661 105.207C92.9375 104.432 92.2301 103.426 91.8157 102.29C91.4014 101.154 91.2948 99.929 91.5069 98.7386C91.7408 97.5544 92.2075 96.4283 92.88 95.4259C93.5526 94.4234 94.4175 93.5645 95.4246 92.899C96.3425 92.283 97.4821 91.7655 98.5539 92.0797C99.0451 92.2588 99.4798 92.5655 99.8132 92.9682C100.147 93.3709 100.367 93.8552 100.451 94.3712C100.607 95.4114 100.484 96.4743 100.094 97.4512C98.9235 100.827 97.1741 103.882 93.8661 105.225" fill="#455A64"/>
<path d="M90.7429 110.972C88.8452 109.274 86.57 108.053 84.106 107.411C81.642 106.768 79.0602 106.722 76.5749 107.276C75.3429 107.566 73.8953 108.231 73.692 109.506C73.4887 110.781 74.6222 111.872 75.7433 112.525C78.1097 113.838 80.812 114.423 83.5097 114.203C86.2074 113.984 88.7799 112.971 90.9031 111.293" fill="#455A64"/>
<path d="M72.6879 84.275C73.7343 84.0335 74.8184 84.0039 75.8763 84.188C76.9343 84.3721 77.9447 84.7661 78.8479 85.3468C80.6621 86.5303 82.1796 88.1153 83.2831 89.9791C85.5131 93.5027 86.3015 98.2458 86.4001 102.416C81.7678 102.231 77.8131 98.5908 75.9281 96.6134C72.9343 93.4965 69.4231 86.049 72.651 84.2934" fill="#455A64"/>
<path d="M97.7468 117.274C97.3252 116.715 96.9385 116.131 96.5887 115.525C95.39 113.175 94.5136 110.674 93.983 108.09C93.4606 105.472 93.6608 102.761 94.5621 100.248C94.8436 99.4957 95.2182 98.7818 95.677 98.1226C95.8329 97.8711 96.026 97.6447 96.2499 97.4512C95.7146 98.3828 95.2532 99.3549 94.8701 100.359C94.0887 102.833 93.9405 105.463 94.4389 108.009C94.9761 110.559 95.8028 113.039 96.9029 115.401" fill="#263238"/>
<path d="M97.79 117.33L95.3753 114.219C93.3486 111.588 90.5335 107.96 87.3673 103.993C84.201 100.026 81.2997 96.4779 79.193 93.9154L76.729 90.8354C76.4045 90.4775 76.1118 90.0921 75.8542 89.6834C76.2177 90.0013 76.5554 90.3474 76.8645 90.7183C77.4805 91.4082 78.386 92.4123 79.4763 93.669C81.6508 96.1822 84.6014 99.7058 87.7677 103.673C90.9339 107.64 93.6998 111.305 95.6648 113.991C96.6504 115.334 97.4327 116.455 97.9625 117.188" fill="#263238"/>
<path d="M79.4641 110.005C79.716 109.881 79.9865 109.797 80.2649 109.759C80.5818 109.672 80.9052 109.61 81.232 109.574C81.6623 109.503 82.0963 109.456 82.5318 109.432C83.6687 109.361 84.81 109.404 85.9383 109.562C87.317 109.767 88.6697 110.121 89.9731 110.615C91.2705 111.134 92.5095 111.788 93.6691 112.568C94.6055 113.214 95.4744 113.953 96.2624 114.773C96.5702 115.083 96.8602 115.41 97.131 115.753C97.3536 116.001 97.5594 116.265 97.747 116.541C98.0488 116.991 98.0057 117.2 97.9811 117.219C97.3803 116.448 96.7387 115.71 96.0592 115.007C95.2554 114.238 94.3855 113.542 93.4596 112.925C92.3184 112.191 91.1072 111.572 89.8437 111.077C88.5697 110.594 87.2513 110.237 85.9075 110.011C84.8078 109.836 83.6943 109.762 82.5811 109.79C80.6345 109.808 79.4641 110.092 79.4641 110.005Z" fill="#263238"/>
<path d="M182.792 267.184L111.644 266.851C107.539 266.827 103.612 265.174 100.725 262.257C97.8374 259.34 96.2258 255.396 96.2438 251.291L96.9953 72.9159C97.0133 68.8087 98.6608 64.8765 101.576 61.9831C104.491 59.0898 108.436 57.472 112.543 57.4851L183.691 57.8116C187.796 57.8393 191.722 59.4935 194.609 62.4115C197.496 65.3295 199.108 69.2732 199.091 73.3779L198.352 251.747C198.334 255.857 196.685 259.792 193.767 262.686C190.849 265.581 186.902 267.199 182.792 267.184Z" fill="#263238"/>
<path d="M183.568 63.9716L169.77 63.9038C169.32 63.9119 168.876 64.0084 168.464 64.188C168.051 64.3675 167.678 64.6266 167.366 64.9504C167.053 65.2742 166.808 65.6563 166.643 66.075C166.479 66.4936 166.398 66.9406 166.406 67.3904V69.8914C166.414 70.3412 166.334 70.7881 166.169 71.2068C166.005 71.6255 165.759 72.0076 165.447 72.3314C165.134 72.6551 164.761 72.9142 164.349 73.0938C163.936 73.2734 163.493 73.3699 163.043 73.3779L136.154 73.2547C135.247 73.2289 134.386 72.8442 133.761 72.1848C133.136 71.5255 132.799 70.6454 132.822 69.7374V67.2364C132.845 66.3274 132.506 65.4463 131.88 64.7868C131.254 64.1273 130.392 63.7432 129.483 63.719H124.635L112.562 63.6636C109.682 63.6521 106.915 64.7843 104.87 66.8114C102.824 68.8384 101.667 71.5946 101.652 74.4744L100.919 248.574C100.908 251.453 102.039 254.218 104.065 256.262C106.091 258.306 108.846 259.463 111.724 259.478L182.73 259.804C184.156 259.811 185.568 259.536 186.888 258.997C188.207 258.457 189.407 257.663 190.42 256.66C191.432 255.657 192.237 254.464 192.788 253.149C193.34 251.835 193.627 250.425 193.633 249L194.366 74.8933C194.377 73.4664 194.106 72.0515 193.568 70.7297C193.031 69.4079 192.238 68.2052 191.235 67.1906C190.231 66.1759 189.038 65.3692 187.722 64.8169C186.407 64.2645 184.995 63.9772 183.568 63.9716Z" fill="#FAFAFA"/>
<path d="M143.405 243.111C143.45 243.411 143.402 243.717 143.268 243.989C143.134 244.262 142.919 244.486 142.654 244.632C142.388 244.779 142.084 244.84 141.782 244.809C141.48 244.777 141.195 244.654 140.966 244.455C140.736 244.257 140.573 243.992 140.498 243.698C140.423 243.404 140.44 243.094 140.547 242.81C140.654 242.526 140.845 242.282 141.095 242.11C141.345 241.937 141.641 241.846 141.945 241.848C142.305 241.826 142.66 241.945 142.932 242.181C143.205 242.417 143.375 242.751 143.405 243.111Z" fill="#455A64"/>
<path d="M147.945 243.135C147.989 243.435 147.94 243.741 147.805 244.013C147.669 244.284 147.454 244.508 147.188 244.653C146.922 244.799 146.618 244.859 146.316 244.827C146.015 244.794 145.731 244.67 145.502 244.471C145.273 244.272 145.111 244.008 145.036 243.714C144.962 243.42 144.98 243.11 145.087 242.827C145.194 242.543 145.385 242.299 145.635 242.127C145.885 241.955 146.181 241.864 146.485 241.866C146.846 241.844 147.201 241.965 147.474 242.202C147.747 242.439 147.916 242.775 147.945 243.135Z" fill="#455A64"/>
<path d="M152.485 243.154C152.53 243.454 152.482 243.76 152.348 244.033C152.214 244.305 151.999 244.529 151.733 244.676C151.468 244.822 151.163 244.884 150.862 244.852C150.56 244.82 150.275 244.697 150.046 244.498C149.816 244.3 149.653 244.036 149.578 243.742C149.503 243.447 149.52 243.138 149.627 242.853C149.734 242.569 149.925 242.325 150.175 242.153C150.425 241.981 150.721 241.889 151.025 241.891C151.385 241.867 151.741 241.986 152.014 242.223C152.287 242.459 152.456 242.793 152.485 243.154Z" fill="#455A64"/>
<path d="M122.904 147.902C124.062 148.068 193.855 161.755 193.855 161.755V147.902H122.904Z" fill="#EBEBEB"/>
<path d="M100.944 235.866C100.944 235.866 176.872 225.123 176.207 225.456C175.541 225.789 100.944 225.456 100.944 225.456V235.866Z" fill="#EBEBEB"/>
<path d="M189.112 32.5926C189.198 32.5926 189.272 36.4302 189.272 41.1611C189.272 45.892 189.198 49.7358 189.112 49.7358C189.026 49.7358 188.952 45.8982 188.952 41.1611C188.952 36.4241 189.026 32.5926 189.112 32.5926Z" fill="#263238"/>
<path d="M219.499 52.323C219.536 52.4031 216.05 54.017 211.719 55.9266C207.389 57.8362 203.847 59.327 203.81 59.2407C203.773 59.1545 207.259 57.5467 211.59 55.6371C215.92 53.7275 219.462 52.2368 219.499 52.323Z" fill="#263238"/>
<path d="M218.729 22.3978C218.693 22.5161 218.639 22.6282 218.569 22.7304C218.427 22.9645 218.255 23.2663 218.039 23.6359C217.577 24.4244 216.894 25.5517 216.031 26.9315C214.306 29.7035 211.824 33.4611 209.009 37.5637C206.194 41.6662 203.693 45.4054 201.919 48.1404C201.05 49.4771 200.342 50.6044 199.824 51.3806L199.245 52.2553C199.184 52.3626 199.109 52.4619 199.023 52.551C199.069 52.4354 199.125 52.3241 199.19 52.2183C199.331 51.9842 199.504 51.6824 199.72 51.3128C200.175 50.5243 200.865 49.4032 201.728 48.0172C203.452 45.2452 205.935 41.4876 208.744 37.385C211.553 33.2825 214.066 29.568 215.84 26.8145L217.935 23.5682L218.514 22.6934C218.577 22.5891 218.649 22.4902 218.729 22.3978Z" fill="#263238"/>
<path d="M261.326 94.9194H122.448C121.735 94.9194 121.029 95.06 120.37 95.3331C119.711 95.6062 119.113 96.0065 118.609 96.5111C118.105 97.0157 117.705 97.6147 117.433 98.2739C117.16 98.933 117.021 99.6394 117.021 100.353V143.429C117.021 144.143 117.16 144.849 117.433 145.508C117.705 146.167 118.105 146.766 118.609 147.271C119.113 147.775 119.711 148.176 120.37 148.449C121.029 148.722 121.735 148.863 122.448 148.863H132.797C133.629 153.359 134.602 159.033 134.602 159.033L143.965 148.863H261.326C262.039 148.863 262.745 148.722 263.404 148.449C264.063 148.176 264.661 147.775 265.165 147.271C265.669 146.766 266.069 146.167 266.341 145.508C266.614 144.849 266.753 144.143 266.753 143.429V100.353C266.753 99.6394 266.614 98.933 266.341 98.2739C266.069 97.6147 265.669 97.0157 265.165 96.5111C264.661 96.0065 264.063 95.6062 263.404 95.3331C262.745 95.06 262.039 94.9194 261.326 94.9194Z" fill="#2491FF"/>
<path d="M204.025 118.272C204.025 118.358 187.498 118.432 167.115 118.432C146.731 118.432 130.198 118.358 130.198 118.272C130.198 118.186 146.725 118.106 167.115 118.106C187.504 118.106 204.025 118.198 204.025 118.272Z" fill="#F5F5F5"/>
<path d="M204.025 111.668C204.025 111.755 187.498 111.829 167.115 111.829C146.731 111.829 130.198 111.755 130.198 111.668C130.198 111.582 146.725 111.508 167.115 111.508C187.504 111.508 204.025 111.576 204.025 111.668Z" fill="#F5F5F5"/>
<path d="M204.025 124.839C204.025 124.925 187.498 124.999 167.115 124.999C146.731 124.999 130.198 124.925 130.198 124.839C130.198 124.752 146.725 124.678 167.115 124.678C187.504 124.678 204.025 124.746 204.025 124.839Z" fill="#F5F5F5"/>
<path d="M178.554 131.621C178.554 131.707 167.731 131.781 154.376 131.781C141.021 131.781 130.198 131.707 130.198 131.621C130.198 131.534 141.021 131.461 154.376 131.461C167.731 131.461 178.554 131.528 178.554 131.621Z" fill="#F5F5F5"/>
<path d="M198.574 172.369H58.5632C58.0633 172.368 57.5682 172.466 57.1063 172.657C56.6444 172.848 56.2248 173.129 55.8717 173.483C55.5185 173.836 55.2387 174.256 55.0484 174.719C54.858 175.181 54.7608 175.676 54.7625 176.176V221.76C54.7625 222.768 55.1629 223.735 55.8757 224.448C56.5884 225.16 57.5552 225.561 58.5632 225.561H160.252L169.492 235.62C169.492 235.62 170.46 229.965 171.279 225.561H198.555C199.563 225.561 200.53 225.16 201.243 224.448C201.956 223.735 202.356 222.768 202.356 221.76V176.176C202.358 175.678 202.261 175.184 202.072 174.723C201.883 174.262 201.605 173.843 201.253 173.489C200.902 173.136 200.485 172.855 200.025 172.663C199.565 172.471 199.072 172.371 198.574 172.369Z" fill="#455A64"/>
<path d="M193.085 195.888C193.085 195.974 176.558 196.048 156.168 196.048C135.779 196.048 119.251 195.974 119.251 195.888C119.251 195.802 135.779 195.728 156.168 195.728C176.558 195.728 193.085 195.777 193.085 195.888Z" fill="#F5F5F5"/>
<path d="M193.085 189.248C193.085 189.334 176.558 189.408 156.168 189.408C135.779 189.408 119.251 189.334 119.251 189.248C119.251 189.161 135.779 189.087 156.168 189.087C176.558 189.087 193.085 189.155 193.085 189.248Z" fill="#F5F5F5"/>
<path d="M193.085 202.418C193.085 202.504 176.558 202.578 156.168 202.578C135.779 202.578 119.251 202.504 119.251 202.418C119.251 202.331 135.779 202.257 156.168 202.257C176.558 202.257 193.085 202.331 193.085 202.418Z" fill="#F5F5F5"/>
<path d="M167.614 209.2C167.614 209.292 156.791 209.36 143.436 209.36C130.081 209.36 119.251 209.292 119.251 209.2C119.251 209.107 130.081 209.04 143.436 209.04C156.791 209.04 167.614 209.114 167.614 209.2Z" fill="#F5F5F5"/>
<path d="M226.411 76.6489C226.497 75.5154 225.487 73.957 224.563 73.0576C224.028 72.5751 223.645 71.9466 223.462 71.2494C223.279 70.5522 223.304 69.8168 223.534 69.1337C223.91 67.7354 224.797 67.8401 225.148 67.0146C225.319 66.3765 225.387 65.7154 225.351 65.0558C225.425 64.4986 225.612 63.9624 225.901 63.4807C226.191 62.9991 226.576 62.5823 227.034 62.2563C227.492 61.9303 228.012 61.7021 228.562 61.586C229.112 61.4699 229.68 61.4684 230.23 61.5815C230.536 60.4883 231.164 59.5124 232.031 58.7804C232.899 58.0483 233.966 57.5941 235.095 57.4765C236.225 57.3589 237.363 57.5835 238.363 58.1211C239.362 58.6587 240.178 59.4845 240.702 60.4912C241.34 60.1672 242.048 60.0052 242.763 60.0197C243.478 60.0341 244.179 60.2245 244.803 60.574C245.427 60.9236 245.955 61.4214 246.341 62.0237C246.727 62.6259 246.959 63.314 247.016 64.027C247.663 63.6146 248.436 63.4497 249.195 63.5629C249.953 63.6761 250.645 64.0598 251.143 64.643C251.611 65.2532 251.888 65.9876 251.941 66.7545C251.993 67.5214 251.819 68.2868 251.439 68.955C251.049 69.6179 250.513 70.1838 249.873 70.6105C249.233 71.0372 248.505 71.3136 247.743 71.419C246.215 71.6131 244.664 71.3314 243.302 70.6121C241.945 69.8976 240.713 68.9677 239.655 67.8586" fill="#263238"/>
<path d="M236.483 147.44C251.21 147.44 263.149 135.779 263.149 121.395C263.149 107.011 251.21 95.3506 236.483 95.3506C221.755 95.3506 209.816 107.011 209.816 121.395C209.816 135.779 221.755 147.44 236.483 147.44Z" fill="#E0E0E0"/>
<path d="M263.26 121.414L260.309 113.849L249.733 120.496L259.157 135.027C259.157 135.027 262.989 130.05 263.26 121.414Z" fill="#EB996E"/>
<path d="M234.08 105.028C235.902 105.039 237.658 104.348 238.985 103.099C240.312 101.85 241.108 100.139 241.207 98.3198C241.361 95.1843 241.497 92.1598 241.497 92.1598C241.497 92.1598 247.312 91.7409 247.848 86.049C248.384 80.3572 248.464 67.2056 248.464 67.2056C245.309 65.5496 241.771 64.7588 238.212 64.9135C234.652 65.0682 231.197 66.163 228.197 68.0865L227.643 68.4376L226.971 97.8824C226.965 98.8195 227.144 99.7486 227.499 100.616C227.853 101.484 228.376 102.272 229.037 102.937C229.698 103.601 230.484 104.128 231.349 104.487C232.215 104.846 233.143 105.03 234.08 105.028Z" fill="#FFBE9D"/>
<path d="M237.394 75.9651C237.547 76.0191 237.681 76.1171 237.779 76.2467C237.877 76.3764 237.934 76.532 237.944 76.6941C237.953 76.8562 237.915 77.0175 237.834 77.158C237.752 77.2984 237.631 77.4117 237.485 77.4836C237.34 77.5556 237.176 77.583 237.015 77.5624C236.854 77.5419 236.703 77.4743 236.58 77.3681C236.457 77.2619 236.368 77.1218 236.325 76.9654C236.281 76.809 236.284 76.6432 236.335 76.4887C236.406 76.2791 236.558 76.1064 236.756 76.0083C236.955 75.9101 237.184 75.8946 237.394 75.9651Z" fill="#263238"/>
<path d="M239.008 76.2608C238.909 76.3532 238.392 75.885 237.579 75.8358C236.766 75.7865 236.187 76.1561 236.107 76.0514C236.026 75.9466 236.168 75.8296 236.427 75.6571C236.781 75.4336 237.198 75.3299 237.616 75.3614C238.032 75.3896 238.427 75.5516 238.743 75.8234C238.959 76.0329 239.039 76.2177 239.008 76.2608Z" fill="#263238"/>
<path d="M246.08 75.9651C246.233 76.0191 246.367 76.1171 246.465 76.2467C246.562 76.3764 246.62 76.532 246.629 76.6941C246.639 76.8562 246.601 77.0175 246.519 77.158C246.438 77.2984 246.317 77.4117 246.171 77.4836C246.026 77.5556 245.862 77.583 245.701 77.5624C245.54 77.5419 245.388 77.4743 245.266 77.3681C245.143 77.2619 245.054 77.1218 245.01 76.9654C244.967 76.809 244.97 76.6432 245.02 76.4887C245.092 76.2791 245.243 76.1064 245.442 76.0083C245.641 75.9101 245.87 75.8946 246.08 75.9651Z" fill="#263238"/>
<path d="M247.78 76.2731C247.687 76.3717 247.164 75.9035 246.351 75.8542C245.538 75.805 244.959 76.1746 244.879 76.0698C244.798 75.9651 244.94 75.8481 245.205 75.6756C245.557 75.4513 245.972 75.3475 246.388 75.3799C246.805 75.4093 247.202 75.5712 247.521 75.8419C247.755 76.0514 247.829 76.2362 247.78 76.2731Z" fill="#263238"/>
<path d="M241.805 82.427C242.225 82.2972 242.665 82.2409 243.104 82.2606C243.314 82.2606 243.48 82.2237 243.505 82.1128C243.534 81.9022 243.499 81.6878 243.406 81.4968C243.246 80.9609 243.08 80.4188 242.907 79.8521C242.23 77.5113 241.78 75.5894 241.897 75.5401C242.014 75.4908 242.667 77.3881 243.345 79.7166C243.505 80.2833 243.653 80.8315 243.807 81.3674C243.918 81.6417 243.934 81.9458 243.85 82.2298C243.813 82.3066 243.758 82.3738 243.691 82.4261C243.624 82.4785 243.545 82.5146 243.462 82.5317C243.343 82.5463 243.223 82.5463 243.104 82.5317C242.668 82.5709 242.229 82.5355 241.805 82.427Z" fill="#263238"/>
<path d="M241.472 92.0858C238.818 91.9216 236.272 90.9765 234.154 89.3693C234.154 89.3693 235.589 93.6135 241.367 93.5642L241.472 92.0858Z" fill="#EB996E"/>
<path d="M227.47 76.8029C227.475 76.5793 227.394 76.3624 227.242 76.1981C227.09 76.0337 226.881 75.9347 226.657 75.922C225.585 75.8727 223.824 76.2608 223.577 79.193C223.257 83.3818 227.347 82.4146 227.366 82.273C227.384 82.1313 227.452 78.4353 227.47 76.8029Z" fill="#FFBE9D"/>
<path d="M226.491 80.6282C226.491 80.6282 226.411 80.6775 226.281 80.7206C226.195 80.7567 226.101 80.7753 226.007 80.7753C225.913 80.7753 225.82 80.7567 225.733 80.7206C225.473 80.5295 225.269 80.272 225.142 79.9752C225.016 79.6783 224.971 79.3529 225.012 79.0328C225.028 78.6729 225.125 78.3212 225.296 78.0041C225.349 77.8743 225.432 77.7593 225.54 77.6691C225.647 77.579 225.775 77.5163 225.912 77.4866C225.998 77.4694 226.088 77.4836 226.164 77.5265C226.241 77.5694 226.3 77.6382 226.331 77.7207C226.38 77.8378 226.331 77.924 226.368 77.9302C226.405 77.9363 226.466 77.8686 226.442 77.6899C226.426 77.5848 226.374 77.4886 226.294 77.4189C226.186 77.3225 226.044 77.2717 225.9 77.2772C225.721 77.2999 225.552 77.3686 225.408 77.4766C225.265 77.5847 225.152 77.7282 225.08 77.8932C224.869 78.2392 224.75 78.6338 224.735 79.039C224.687 79.4114 224.751 79.7896 224.917 80.1262C225.084 80.4627 225.346 80.7424 225.672 80.9301C225.783 80.9703 225.902 80.9856 226.02 80.975C226.138 80.9643 226.253 80.928 226.355 80.8685C226.472 80.733 226.503 80.6406 226.491 80.6282Z" fill="#EB996E"/>
<path d="M235.238 74.0247C235.447 74.2958 236.174 74.1726 237.123 74.1294C238.072 74.0863 238.805 74.0925 238.971 73.7968C239.137 73.5011 238.256 72.7927 237.037 72.8974C235.817 73.0022 235.004 73.7475 235.238 74.0247Z" fill="#263238"/>
<path d="M244.466 73.7475C244.577 74.111 245.273 74.2218 246.043 74.2157C246.813 74.2095 247.503 74.074 247.607 73.7044C247.712 73.3348 246.991 72.8358 246.024 72.8482C245.057 72.8605 244.349 73.3902 244.466 73.7475Z" fill="#263238"/>
<path d="M249.246 68.992C249.246 68.992 245.79 70.6675 241.3 68.4253C238.349 66.953 234.918 66.2323 234.16 66.8237C233.402 67.415 233.242 70.4581 230.322 71.3451C230.322 71.3451 230.52 77.1355 228.21 76.9322C225.9 76.729 227.341 67.76 227.341 67.76L232.996 65.0003L239.156 63.8361L244.965 64.6554L249.462 65.8874L249.246 68.992Z" fill="#263238"/>
<path d="M210.555 102.552C216.598 96.3362 227.23 97.0077 227.23 97.0077L236.045 103.322L241.041 97.5005C244.583 97.9828 248.021 99.0464 251.217 100.648L251.556 100.753V100.821C255.424 102.921 260.894 107.96 266.112 112.845L259.872 118.635L252.96 124.795C252.976 124.835 252.976 124.879 252.96 124.919C252.893 125.294 253.921 133.727 254.981 140.134C251.973 143.101 248.287 145.29 244.243 146.513C240.199 147.735 235.918 147.954 231.77 147.15C228.943 146.651 227.575 145.967 224.957 145.302C223.071 144.802 221.384 143.732 220.129 142.238C218.873 140.745 218.109 138.9 217.941 136.955C217.473 131.584 217.115 124.931 217.115 124.931" fill="#455A64"/>
<path d="M246.566 98.5908C246.721 98.9103 246.849 99.242 246.948 99.5826C247.176 100.199 247.478 101.166 247.842 102.33C248.568 104.658 249.499 107.874 250.373 111.527C251.248 115.18 251.907 118.463 252.32 120.865C252.529 122.097 252.683 123.046 252.776 123.724C252.842 124.071 252.881 124.423 252.893 124.777C252.784 124.439 252.704 124.093 252.652 123.742C252.511 123.021 252.326 122.067 252.098 120.908C251.624 118.518 250.934 115.223 250.059 111.601C249.184 107.979 248.297 104.72 247.632 102.398L246.831 99.6195C246.719 99.2832 246.631 98.9395 246.566 98.5908Z" fill="#263238"/>
<path d="M252.24 120.798C252.184 120.73 254.821 118.488 258.129 115.796C261.437 113.104 264.159 110.972 264.215 111.04C264.27 111.108 261.64 113.35 258.332 116.042C255.024 118.734 252.301 120.865 252.24 120.798Z" fill="#263238"/>
<path opacity="0.2" d="M218.532 111.077L213.136 128.861L215.15 129.908L217.134 124.882C217.134 124.882 219.154 114.311 218.532 111.077Z" fill="black"/>
<g opacity="0.2">
<path d="M245.981 98.6031C248.895 100.137 241.589 103.833 238.293 103.734L240.69 97.4142C240.69 97.4142 245.002 98.0857 245.981 98.6031Z" fill="black"/>
</g>
<path d="M226.362 97.4142V92.7018C226.362 92.7018 235.558 95.0734 235.891 100.574C235.891 100.574 237.061 94.4882 241.805 94.1987L242.476 102.755L236.932 107.56H231.37L226.941 103.734L226.362 97.7962" fill="#455A64"/>
<path d="M237.967 126.976C237.935 126.64 237.935 126.302 237.967 125.966C237.967 125.313 237.967 124.37 237.998 123.206C237.998 120.884 237.93 117.662 237.641 114.132C237.351 110.603 236.883 107.412 236.495 105.12C236.298 104.018 236.131 103.106 236.008 102.41C235.928 102.081 235.879 101.744 235.86 101.406C235.976 101.725 236.066 102.052 236.131 102.385C236.292 103.001 236.495 103.938 236.717 105.083C237.287 108.068 237.698 111.08 237.949 114.108C238.198 117.136 238.284 120.175 238.207 123.212C238.177 124.377 238.133 125.319 238.078 125.972C238.065 126.309 238.028 126.644 237.967 126.976Z" fill="#263238"/>
<path d="M235.472 98.9912C235.288 98.9602 235.1 98.9772 234.924 99.0405C234.473 99.295 234.14 99.7181 234 100.217C233.24 101.86 232.648 103.575 232.232 105.336L232.183 105.545L231.998 105.435C231.45 105.102 230.883 104.745 230.316 104.363C229.284 103.66 228.289 102.903 227.335 102.096C226.901 101.734 226.554 101.279 226.319 100.765C226.133 100.313 226.029 99.831 226.011 99.3423C225.992 98.6507 226.06 97.9595 226.214 97.2849C226.251 97.033 226.319 96.7867 226.417 96.5518C226.409 96.804 226.383 97.0552 226.337 97.3034C226.233 97.9735 226.2 98.6529 226.238 99.33C226.268 99.7873 226.378 100.236 226.565 100.654C226.791 101.133 227.121 101.554 227.532 101.886C228.401 102.613 229.411 103.365 230.495 104.104C231.062 104.486 231.616 104.849 232.164 105.182L231.93 105.281C232.342 103.511 232.962 101.797 233.778 100.174C233.904 99.8895 234.065 99.6225 234.259 99.3793C234.41 99.1914 234.614 99.0521 234.844 98.9789C235.312 98.831 235.485 98.985 235.472 98.9912Z" fill="#263238"/>
<path d="M241.805 94.1987C241.86 94.4391 241.889 94.685 241.891 94.9318L242.039 96.9399C242.106 97.7838 242.211 98.7879 242.384 99.8906C242.532 100.482 242.569 101.096 242.494 101.702C242.261 102.336 241.829 102.879 241.262 103.248C240.543 103.695 239.866 104.208 239.242 104.782L238.996 105.059V104.689C238.884 103.08 238.419 101.515 237.634 100.106C237.049 99.0528 236.569 98.5169 236.606 98.4861C236.642 98.4553 236.753 98.597 236.969 98.8495C237.278 99.2128 237.559 99.6 237.807 100.008C238.663 101.424 239.176 103.021 239.304 104.671L239.033 104.578C239.666 103.981 240.357 103.448 241.096 102.989C241.597 102.66 241.98 102.182 242.193 101.622C242.257 101.057 242.224 100.486 242.094 99.9337C241.94 98.8187 241.86 97.8023 241.817 96.9522C241.774 96.1022 241.768 95.4122 241.774 94.9379C241.753 94.6912 241.763 94.4428 241.805 94.1987Z" fill="#263238"/>
<path d="M271.416 95.3814C271.04 95.8188 257.488 113.96 257.488 113.96L259.398 115.044L273.295 97.1802L271.416 95.3814Z" fill="#263238"/>
<path d="M217.005 109.697C217.005 109.697 231.253 130.21 232.115 130.61C233.803 131.405 253.293 114.564 255.153 112.95C255.412 112.605 255.942 111.884 257.001 110.449C257.001 110.449 258.541 103.414 260.18 103.95C261.819 104.486 259.281 107.529 260.353 110.202C261.424 112.876 266.315 106.506 266.513 105.927L267.775 104.276C267.775 104.276 269.1 108.028 269.007 109.599C268.718 114.619 263.968 120.588 263.968 120.588C263.968 120.588 242.636 147.015 228.025 147.834C223.818 148.068 216.321 136.13 211.337 127.173C209.882 124.558 209.434 121.5 210.077 118.577C210.721 115.654 212.411 113.068 214.83 111.305L217.005 109.697Z" fill="#FFBE9D"/>
<path d="M266.586 110.486C266.859 109.855 267.163 109.238 267.498 108.638C267.773 108.006 268.081 107.389 268.422 106.79C268.034 108.123 267.408 109.375 266.574 110.486H266.586Z" fill="#EB996E"/>
<path d="M214.596 99.6873C214.596 99.6873 199.301 105.127 210.672 130.845L228.327 120.188L225.813 114.176L214.596 99.6873Z" fill="#455A64"/>
<path d="M213.426 100.137C214.046 100.079 214.671 100.131 215.274 100.291C215.978 100.474 216.653 100.758 217.276 101.135C218.099 101.648 218.849 102.269 219.506 102.983C221.173 104.846 222.571 106.934 223.657 109.186C224.951 111.687 226.158 114.539 227.397 117.527C227.766 118.426 228.136 119.307 228.481 120.145L228.536 120.28L228.407 120.348C223.3 123.132 218.853 125.738 215.711 127.691C214.134 128.664 212.884 129.465 212.015 130.019L211.029 130.635C210.917 130.713 210.797 130.781 210.672 130.838C210.77 130.743 210.877 130.659 210.992 130.586C211.208 130.426 211.528 130.192 211.953 129.902C212.791 129.286 214.029 128.485 215.588 127.487C218.705 125.485 223.14 122.837 228.253 120.046L228.179 120.243C227.834 119.405 227.464 118.525 227.095 117.625C225.863 114.638 224.631 111.792 223.399 109.297C222.333 107.069 220.97 104.997 219.345 103.137C218.71 102.429 217.986 101.808 217.189 101.289C216.58 100.907 215.921 100.61 215.231 100.408C214.638 100.267 214.034 100.176 213.426 100.137Z" fill="#263238"/>
<path d="M246.32 62.0066C246.359 62.0924 246.384 62.1839 246.394 62.2776C246.441 62.5397 246.457 62.8063 246.443 63.0722C246.384 64.0726 245.969 65.0188 245.273 65.7395C244.744 66.2672 244.083 66.6424 243.358 66.8256C242.634 67.0088 241.874 66.9933 241.158 66.7806C240.291 66.5499 239.54 66.0055 239.051 65.2529C238.792 64.8376 238.682 64.3469 238.737 63.8607C238.765 63.6073 238.847 63.3628 238.978 63.1439C239.109 62.925 239.285 62.7367 239.495 62.5918C239.713 62.4539 239.963 62.3728 240.221 62.3556C240.479 62.3383 240.738 62.3856 240.973 62.4932C241.43 62.6869 241.792 63.0518 241.983 63.5096C242.135 63.9367 242.178 64.395 242.106 64.8427C242.035 65.2904 241.853 65.7131 241.577 66.0722C241.114 66.6708 240.455 67.0869 239.716 67.2469C238.976 67.407 238.204 67.3007 237.536 66.9469C237.053 66.6943 236.542 66.4999 236.014 66.3678C235.619 66.2789 235.206 66.3222 234.838 66.491C234.529 66.6575 234.237 66.8512 233.963 67.0701C233.963 67.0701 234.018 66.99 234.142 66.8545C234.217 66.7698 234.302 66.6934 234.394 66.6266C234.515 66.5264 234.647 66.4416 234.788 66.374C235.169 66.1838 235.6 66.1191 236.02 66.1892C236.569 66.3077 237.101 66.4939 237.603 66.7436C237.889 66.8694 238.186 66.9664 238.49 67.0331C238.818 67.0944 239.154 67.0944 239.482 67.0331C240.22 66.916 240.883 66.5161 241.33 65.9182C241.574 65.5999 241.734 65.2258 241.796 64.83C241.859 64.4342 241.821 64.029 241.688 63.6513C241.614 63.4603 241.501 63.2869 241.357 63.1423C241.212 62.9977 241.038 62.8851 240.847 62.8119C240.656 62.7388 240.452 62.7066 240.247 62.7174C240.043 62.7283 239.843 62.782 239.661 62.8751C239.491 62.9969 239.348 63.153 239.242 63.3334C239.136 63.5138 239.069 63.7144 239.045 63.9223C239.001 64.3377 239.096 64.7559 239.316 65.1112C239.763 65.7992 240.447 66.299 241.238 66.5157C241.906 66.7205 242.617 66.7434 243.297 66.582C243.977 66.4207 244.601 66.081 245.106 65.5978C245.784 64.9231 246.208 64.0355 246.308 63.0846C246.334 62.7258 246.338 62.3658 246.32 62.0066Z" fill="#455A64"/>
<path d="M242.987 85.2359C242.987 85.2729 242.803 85.3591 242.464 85.3714C242.02 85.3774 241.581 85.2765 241.184 85.077C240.787 84.8776 240.445 84.5856 240.185 84.2257C240 83.9423 239.944 83.739 239.981 83.7206C240.387 84.1303 240.84 84.4901 241.33 84.7924C241.863 85.0063 242.419 85.1552 242.987 85.2359Z" fill="#263238"/>
<path d="M226.836 82.544C226.867 82.544 227.039 82.815 226.836 83.2401C226.772 83.3601 226.684 83.466 226.578 83.5517C226.472 83.6374 226.351 83.7011 226.22 83.739C226.052 83.7766 225.878 83.7732 225.712 83.7293C225.545 83.6853 225.392 83.602 225.265 83.4865C225.126 83.373 225.015 83.2289 224.942 83.0653C224.868 82.9017 224.833 82.7233 224.84 82.544C224.851 82.2731 224.95 82.0133 225.123 81.8048C225.419 81.4598 225.739 81.4229 225.739 81.4598C225.739 81.4968 225.518 81.6138 225.32 81.9403C225.194 82.1296 225.14 82.3577 225.167 82.5836C225.194 82.8095 225.301 83.0182 225.468 83.1723C225.559 83.2547 225.667 83.3157 225.784 83.3509C225.901 83.386 226.025 83.3945 226.146 83.3756C226.349 83.3299 226.529 83.2116 226.651 83.043C226.848 82.7904 226.787 82.544 226.836 82.544Z" fill="#263238"/>
<path d="M247.336 64.064C247.539 64.4067 247.641 64.7994 247.632 65.1974C247.681 66.1703 247.351 67.1243 246.713 67.8601C246.075 68.5959 245.177 69.0566 244.207 69.146C243.814 69.2132 243.41 69.1662 243.043 69.0105C243.043 68.955 243.492 69.0105 244.176 68.9181C245.064 68.7816 245.874 68.3359 246.465 67.6595C247.056 66.9832 247.388 66.1199 247.404 65.2221C247.422 64.5198 247.281 64.0948 247.336 64.064Z" fill="#455A64"/>
<path d="M226.503 115.623C226.54 115.703 222.481 117.792 217.43 120.286C212.378 122.781 208.257 124.746 208.19 124.666C208.122 124.586 212.206 122.498 217.257 119.997C222.308 117.496 226.466 115.543 226.503 115.623Z" fill="#E0E0E0"/>
<path d="M222.801 108.638C222.844 108.712 219.228 110.738 214.725 113.153C210.222 115.568 206.539 117.465 206.502 117.385C206.465 117.305 210.075 115.284 214.577 112.87C219.08 110.455 222.758 108.558 222.801 108.638Z" fill="#E0E0E0"/>
<path d="M219.222 102.989C218.647 103.387 218.044 103.744 217.417 104.055L212.994 106.519L208.596 109.032C208.005 109.408 207.387 109.742 206.748 110.03C207.292 109.585 207.873 109.187 208.485 108.841C209.582 108.145 211.115 107.221 212.84 106.242C214.565 105.262 216.154 104.437 217.319 103.858C217.927 103.514 218.564 103.224 219.222 102.989Z" fill="#E0E0E0"/>
<path d="M232.756 101.64C232.339 101.621 231.931 101.511 231.561 101.32C230.658 100.915 229.826 100.368 229.097 99.6996C228.366 99.0321 227.694 98.3024 227.088 97.519C226.812 97.2173 226.578 96.8795 226.392 96.5149C226.429 96.5149 226.75 96.8167 227.261 97.3773C227.772 97.9378 228.462 98.7017 229.312 99.4594C230.028 100.11 230.825 100.665 231.684 101.11C232.318 101.461 232.768 101.603 232.756 101.64Z" fill="#E0E0E0"/>
<path d="M241.737 98.3136C241.533 99.0562 241.084 99.7077 240.462 100.162C239.91 100.7 239.19 101.033 238.423 101.104C239.061 100.744 239.678 100.347 240.271 99.9152C240.786 99.4062 241.275 98.8716 241.737 98.3136Z" fill="#E0E0E0"/>
<path d="M257.759 107.584C257.647 107.619 257.531 107.64 257.414 107.646L256.422 107.769C255.56 107.868 254.309 107.985 252.769 108.108C249.689 108.354 245.377 108.595 240.677 108.767C235.977 108.94 231.671 108.995 228.567 108.97C227.02 108.97 225.764 108.927 224.901 108.896L223.904 108.847C223.787 108.847 223.671 108.833 223.559 108.804C223.673 108.789 223.789 108.789 223.904 108.804H224.901L228.567 108.773C231.647 108.742 235.959 108.644 240.665 108.478C245.371 108.311 249.659 108.096 252.751 107.911L256.41 107.677L257.408 107.615C257.523 107.589 257.641 107.579 257.759 107.584Z" fill="#E0E0E0"/>
<path d="M252.893 114.89C252.56 114.966 252.222 115.02 251.882 115.05C251.223 115.13 250.275 115.229 249.104 115.34C246.757 115.555 243.511 115.777 239.92 115.925C236.328 116.073 233.07 116.104 230.68 116.079C229.503 116.079 228.548 116.042 227.889 116.017C227.547 116.02 227.205 115.993 226.867 115.937C227.206 115.897 227.548 115.88 227.889 115.888L230.68 115.851C233.033 115.851 236.285 115.746 239.87 115.605C243.456 115.463 246.708 115.272 249.055 115.112L251.839 114.921C252.189 114.878 252.541 114.867 252.893 114.89Z" fill="#E0E0E0"/>
<path d="M241.848 123.896C241.178 124.051 240.496 124.148 239.809 124.186C238.54 124.315 236.79 124.457 234.85 124.555C232.91 124.654 231.154 124.685 229.879 124.678C229.192 124.711 228.504 124.684 227.822 124.598C228.5 124.495 229.186 124.445 229.873 124.45L234.832 124.235L239.76 123.958C240.453 123.889 241.151 123.869 241.848 123.896Z" fill="#E0E0E0"/>
<path d="M227.735 102.521C227.735 102.613 225.844 102.632 223.516 102.73C221.187 102.829 219.308 102.958 219.296 102.866C222.081 102.374 224.919 102.257 227.735 102.521Z" fill="#E0E0E0"/>
<path d="M253.718 102.188C251.899 102.338 250.072 102.383 248.248 102.324C246.421 102.372 244.592 102.312 242.772 102.145C244.593 101.991 246.421 101.944 248.248 102.003C250.073 101.955 251.9 102.017 253.718 102.188Z" fill="#E0E0E0"/>
<path d="M254.667 139.672C254.493 139.801 254.305 139.908 254.106 139.992C253.737 140.183 253.188 140.436 252.505 140.725C250.708 141.465 248.854 142.056 246.961 142.493C245.068 142.925 243.144 143.203 241.207 143.325C240.468 143.368 239.864 143.38 239.445 143.368C239.239 143.377 239.032 143.363 238.829 143.325C238.829 143.275 239.741 143.238 241.213 143.097C243.13 142.912 245.033 142.606 246.911 142.179C248.794 141.747 250.646 141.189 252.455 140.51C253.792 139.992 254.648 139.623 254.667 139.672Z" fill="#E0E0E0"/>
<path d="M88.2667 223.516C102.994 223.516 114.933 212.125 114.933 198.075C114.933 184.024 102.994 172.634 88.2667 172.634C73.5392 172.634 61.6001 184.024 61.6001 198.075C61.6001 212.125 73.5392 223.516 88.2667 223.516Z" fill="#E0E0E0"/>
<path d="M82.8334 136.752C78.6077 136.974 76.9445 141.384 76.4393 142.37C76.0055 143.391 75.7754 144.488 75.7617 145.598C75.7488 146.709 75.47 147.801 74.9486 148.782C74.0185 150.267 72.0596 151.037 71.5298 152.706C70.9138 154.598 72.4723 156.618 72.0596 158.558C71.8378 159.599 71.0801 160.456 70.8276 161.484C70.5946 162.584 70.8001 163.731 71.4005 164.681C72.7865 167.072 75.6693 168.267 78.429 168.377C81.1887 168.488 83.8868 167.651 86.5294 166.837" fill="#263238"/>
<path d="M101.449 142.222C101.287 142.689 101.258 143.192 101.367 143.674C101.476 144.157 101.718 144.599 102.065 144.951C102.774 145.631 103.541 146.25 104.356 146.799C104.764 147.08 105.112 147.438 105.38 147.853C105.649 148.269 105.832 148.733 105.921 149.22C106.001 150.119 105.545 151.019 105.668 151.912C105.989 154.222 109.666 154.912 109.857 157.228C109.993 158.774 108.404 160.197 108.847 161.682C109.087 162.238 109.398 162.762 109.771 163.24C110.818 164.977 110.11 167.367 108.594 168.71C107.079 170.053 104.985 170.527 102.964 170.62C101.264 170.694 99.3298 170.416 98.3319 169.043C97.4141 167.78 97.605 166.067 97.7837 164.521C98.6399 157.302 98.4921 150.008 98.3504 142.74" fill="#263238"/>
<path d="M83.9485 175.628C83.9793 171.833 83.9485 167.842 83.9485 167.842C83.9485 167.842 79.076 166.973 78.1335 160.591C77.2403 154.499 78.7495 141.403 78.7495 141.403C85.815 138.612 93.7737 139.69 98.7202 145.376L97.944 176.176C97.8578 179.749 94.71 182.521 90.8847 182.398C87.0224 182.268 83.9177 179.256 83.9485 175.628Z" fill="#FFBE9D"/>
<path d="M80.0798 151.456C80.0747 151.669 80.153 151.876 80.2979 152.032C80.4428 152.189 80.643 152.283 80.856 152.294C80.9601 152.303 81.065 152.291 81.1646 152.26C81.2642 152.228 81.3565 152.177 81.4362 152.109C81.5159 152.042 81.5813 151.959 81.6287 151.866C81.6761 151.773 81.7045 151.671 81.7122 151.567C81.7157 151.353 81.6361 151.146 81.4902 150.99C81.3443 150.834 81.1434 150.74 80.9299 150.729C80.8261 150.72 80.7216 150.731 80.6223 150.763C80.5231 150.795 80.4312 150.846 80.352 150.914C80.2728 150.981 80.2079 151.064 80.1612 151.157C80.1145 151.25 80.0868 151.352 80.0798 151.456Z" fill="#263238"/>
<path d="M78.7678 150.828C78.8664 150.932 79.4885 150.483 80.3694 150.495C82.0264 150.735 81.9956 150.988 81.9833 150.846C82.0326 150.803 81.934 150.606 81.6507 150.403C81.2757 150.132 80.8256 149.986 80.3632 149.984C79.9047 149.979 79.4563 150.119 79.082 150.384C78.8109 150.587 78.7185 150.778 78.7678 150.828Z" fill="#263238"/>
<path d="M89.0859 151.721C89.0809 151.933 89.1593 152.139 89.3044 152.295C89.4495 152.45 89.6497 152.543 89.8621 152.552C89.966 152.563 90.0709 152.552 90.1705 152.52C90.2701 152.489 90.3624 152.438 90.4418 152.37C90.5211 152.302 90.586 152.219 90.6325 152.125C90.6789 152.032 90.706 151.93 90.7122 151.826C90.7173 151.612 90.639 151.406 90.4941 151.249C90.3492 151.093 90.149 150.999 89.936 150.988C89.8319 150.979 89.7272 150.992 89.6279 151.024C89.5286 151.057 89.4368 151.108 89.3577 151.177C89.2786 151.245 89.2139 151.328 89.1672 151.421C89.1206 151.515 89.0929 151.617 89.0859 151.721Z" fill="#263238"/>
<path d="M87.9402 151.129C88.0387 151.24 88.667 150.784 89.5418 150.797C90.4165 150.809 91.0633 151.259 91.1618 151.154C91.2604 151.049 91.1064 150.914 90.8292 150.704C90.4519 150.435 89.9994 150.29 89.5356 150.292C89.0775 150.284 88.6287 150.422 88.2543 150.686C87.9833 150.92 87.8909 151.08 87.9402 151.129Z" fill="#263238"/>
<path d="M84.6691 157.443C84.2096 157.287 83.7309 157.193 83.2461 157.166C83.0244 157.166 82.8088 157.092 82.7718 156.938C82.7588 156.706 82.8145 156.474 82.932 156.273L83.6157 154.573C84.2457 153.128 84.7626 151.637 85.1619 150.113C85.0633 150.076 84.2133 152.016 83.2585 154.425C83.0305 155.041 82.8149 155.595 82.6055 156.138C82.4585 156.406 82.4126 156.719 82.4761 157.018C82.5072 157.099 82.5568 157.171 82.6211 157.229C82.6853 157.287 82.7623 157.329 82.8457 157.351C82.9674 157.389 83.0941 157.408 83.2215 157.406C83.7006 157.48 84.1869 157.492 84.6691 157.443Z" fill="#263238"/>
<path d="M83.9424 167.842C86.9427 167.923 89.9067 167.17 92.5048 165.667C92.5048 165.667 90.3857 170.022 84.0101 169.363L83.9424 167.842Z" fill="#EB996E"/>
<path d="M85.0079 159.544C85.1785 159.336 85.3989 159.174 85.6488 159.074C85.8987 158.974 86.1699 158.938 86.4371 158.971C86.6401 158.989 86.8371 159.049 87.0154 159.148C87.1937 159.246 87.3492 159.381 87.4719 159.544C87.5875 159.693 87.6548 159.874 87.6647 160.062C87.6746 160.25 87.6267 160.437 87.5274 160.597C87.3829 160.752 87.196 160.861 86.9901 160.91C86.7841 160.96 86.5682 160.947 86.3693 160.875C85.9561 160.723 85.5771 160.49 85.2543 160.191C85.1568 160.118 85.0733 160.028 85.0079 159.926C84.9751 159.878 84.9575 159.821 84.9575 159.763C84.9575 159.704 84.9751 159.648 85.0079 159.599" fill="#EB996E"/>
<path d="M87.2564 158.078C87.1086 158.078 87.0963 159.027 86.2709 159.692C85.4454 160.357 84.4229 160.246 84.4229 160.376C84.4229 160.505 84.6508 160.567 85.0758 160.579C85.6367 160.598 86.1858 160.415 86.622 160.061C87.0389 159.726 87.3104 159.243 87.3797 158.712C87.4228 158.312 87.318 158.072 87.2564 158.078Z" fill="#263238"/>
<path d="M95.9483 140.83C93.6198 144.156 87.4413 147.575 83.0123 148.37C83.5235 147.692 86.2401 146.017 86.7575 145.339C84.7555 146.83 81.885 148.838 79.23 148.967C78.9168 149.013 78.597 148.964 78.3122 148.826C78.1631 148.706 78.0438 148.554 77.9637 148.381C77.8835 148.208 77.8446 148.018 77.8502 147.828C77.6991 145.901 77.7611 143.963 78.035 142.05C78.2457 140.433 79.0679 138.958 80.3327 137.929C82.039 136.61 84.4722 136.29 86.7699 136.235C88.6929 136.11 90.6217 136.369 92.4432 136.998C94.205 137.688 95.7142 139.062 95.9729 140.694" fill="#263238"/>
<path d="M102.638 155.731C102.93 154.324 103.135 152.9 103.254 151.468C103.445 148.179 102.496 136.068 91.1556 137.017L90.6936 140.473C90.6936 140.473 88.9442 152.294 96.2808 152.38C96.7739 155.019 98.0637 157.444 99.9768 159.328C99.9768 159.328 101.899 159.273 102.589 155.731" fill="#263238"/>
<path d="M96.2993 152.38C96.9845 152.245 97.6933 152.298 98.3506 152.534C99.0089 152.782 99.5425 153.28 99.8352 153.92C100.091 154.573 100.091 155.299 99.8352 155.953C99.5714 156.6 99.1674 157.18 98.6525 157.653C98.3131 158.018 97.8903 158.294 97.4205 158.46C97.1834 158.542 96.9298 158.563 96.6824 158.522C96.4351 158.481 96.2018 158.379 96.0037 158.226" fill="#FFBE9D"/>
<path d="M96.6257 156.519C96.5456 156.519 96.8413 156.957 97.4634 156.797C97.6309 156.744 97.7859 156.657 97.9193 156.543C98.0527 156.429 98.1616 156.289 98.2396 156.131C98.4324 155.785 98.5539 155.404 98.5969 155.01C98.6558 154.58 98.5574 154.142 98.3197 153.778C98.2236 153.626 98.0934 153.499 97.9394 153.406C97.7855 153.312 97.6119 153.257 97.4326 153.242C96.8166 153.242 96.5887 153.661 96.6565 153.674C96.7242 153.686 96.9583 153.501 97.3772 153.606C97.6335 153.705 97.8451 153.894 97.973 154.138C98.1009 154.381 98.1365 154.663 98.0733 154.93C97.9932 155.632 97.716 156.273 97.3402 156.427C96.9645 156.581 96.6688 156.464 96.6257 156.519Z" fill="#EB996E"/>
<path d="M97.5373 139.586C98.4165 140.085 99.456 140.219 100.433 139.962C101.411 139.704 102.249 139.073 102.767 138.206C103.126 137.661 103.255 136.997 103.124 136.358C102.979 135.94 102.727 135.568 102.393 135.279C102.059 134.989 101.655 134.792 101.221 134.707C100.601 134.545 99.9506 134.538 99.3274 134.688C98.7042 134.837 98.1275 135.138 97.6482 135.563C97.1794 136.002 96.8439 136.565 96.6805 137.186C96.517 137.807 96.5322 138.461 96.7242 139.074C96.9418 139.677 97.3418 140.196 97.8684 140.56C98.3951 140.925 99.0222 141.116 99.6625 141.107" fill="#263238"/>
<path d="M98.5599 157.967C97.9108 158.398 97.3189 158.909 96.7981 159.489C96.277 160.078 96.0053 160.846 96.0405 161.632C96.1359 162.057 96.1834 162.491 96.1821 162.926C95.9948 163.496 95.6905 164.02 95.2889 164.466C94.9169 165.148 94.7718 165.93 94.8748 166.7C94.9778 167.47 95.3236 168.187 95.8618 168.747C96.9801 169.847 98.4886 170.458 100.057 170.447C100.959 170.524 101.862 170.308 102.632 169.831C103.691 169.092 104.098 167.7 104.129 166.4" fill="#263238"/>
<path d="M99.3361 142.13C99.1792 142.55 98.9545 142.941 98.6708 143.288C98.0446 144.173 97.3099 144.976 96.484 145.678C95.6643 146.388 94.7601 146.994 93.7921 147.483C93.4089 147.707 92.9933 147.872 92.5601 147.969C93.869 147.225 95.1172 146.378 96.293 145.438C97.3921 144.416 98.4095 143.31 99.3361 142.13Z" fill="#455A64"/>
<path d="M100.513 142.062C100.53 142.589 100.461 143.115 100.309 143.62C100.006 144.854 99.5198 146.035 98.8679 147.125C98.2118 148.213 97.3957 149.195 96.4471 150.039C96.0715 150.41 95.6389 150.717 95.1658 150.951C96.4828 149.781 97.6349 148.439 98.5907 146.959C99.4529 145.423 100.1 143.775 100.513 142.062Z" fill="#455A64"/>
<path d="M75.8913 147.224C75.9837 147.224 76.1069 148.284 76.5073 149.546C76.9077 150.809 77.3327 151.776 77.2465 151.819C76.2932 150.482 75.816 148.864 75.8913 147.224Z" fill="#455A64"/>
<path d="M103.063 168.993C103.342 169.177 103.666 169.281 103.999 169.295C104.387 169.29 104.764 169.17 105.083 168.95C105.493 168.649 105.783 168.213 105.903 167.718C106.05 167.111 106.05 166.477 105.903 165.87C105.773 165.199 105.515 164.509 105.287 163.751C105.008 162.962 104.913 162.119 105.009 161.287C105.151 160.388 105.736 159.655 106.02 158.823C106.154 158.426 106.207 158.006 106.176 157.589C106.146 157.171 106.032 156.763 105.841 156.39C105.491 155.683 104.889 155.131 104.153 154.844C103.792 154.709 103.438 154.555 103.094 154.382C102.75 154.212 102.458 153.952 102.25 153.63C101.944 153.032 101.812 152.36 101.868 151.69C101.909 151.168 101.889 150.643 101.806 150.125C101.738 149.741 101.58 149.377 101.344 149.066C101.132 148.806 100.84 148.624 100.513 148.548C100.602 148.527 100.695 148.527 100.784 148.548C101.039 148.615 101.269 148.757 101.443 148.955C101.704 149.277 101.89 149.654 101.985 150.058C102.09 150.587 102.127 151.127 102.096 151.665C102.052 152.287 102.185 152.908 102.478 153.458C102.823 154.025 103.537 154.259 104.264 154.548C105.069 154.855 105.728 155.453 106.112 156.224C106.323 156.634 106.451 157.082 106.486 157.542C106.522 158.003 106.466 158.465 106.322 158.903C106.001 159.784 105.435 160.486 105.311 161.293C105.218 162.085 105.304 162.887 105.564 163.64C105.779 164.38 106.032 165.088 106.18 165.784C106.317 166.436 106.298 167.112 106.124 167.755C105.978 168.296 105.644 168.768 105.182 169.086C104.83 169.316 104.413 169.428 103.993 169.406C103.73 169.394 103.474 169.311 103.254 169.166C103.179 169.123 103.114 169.064 103.063 168.993Z" fill="#455A64"/>
<path d="M98.6156 168.556C98.6156 168.556 98.6957 168.753 98.9913 168.895C99.1985 168.981 99.4284 168.995 99.6448 168.936C99.8612 168.877 100.052 168.748 100.186 168.568C100.345 168.268 100.42 167.93 100.403 167.591C100.385 167.251 100.277 166.923 100.088 166.64C99.7367 165.944 99.0406 165.26 98.8558 164.244C98.8054 163.997 98.8096 163.741 98.8682 163.495C98.9267 163.249 99.0381 163.019 99.1946 162.821C99.4965 162.452 99.8537 162.205 100.082 161.903C100.476 161.327 100.631 160.62 100.513 159.932C100.437 159.457 100.319 158.989 100.162 158.534C100.09 158.369 100.04 158.195 100.014 158.016C100.014 158.016 100.131 158.176 100.273 158.491C100.488 158.939 100.643 159.413 100.735 159.901C100.813 160.273 100.818 160.657 100.747 161.03C100.676 161.403 100.531 161.759 100.322 162.076C100.057 162.433 99.7059 162.692 99.4472 163.018C99.3178 163.182 99.226 163.373 99.1781 163.576C99.1302 163.779 99.1274 163.99 99.17 164.195C99.3178 165.076 99.9708 165.747 100.347 166.505C100.549 166.836 100.656 167.216 100.656 167.604C100.656 167.992 100.549 168.373 100.347 168.704C100.253 168.826 100.135 168.926 100 168.999C99.8657 169.073 99.7171 169.117 99.5642 169.129C99.3391 169.156 99.1112 169.113 98.9113 169.006C98.6033 168.784 98.6033 168.55 98.6156 168.556Z" fill="#455A64"/>
<path d="M74.4681 166.936C74.2793 166.792 74.1096 166.624 73.963 166.437C73.5233 165.956 73.1617 165.41 72.8911 164.817C72.7087 164.393 72.6204 163.935 72.6324 163.474C72.6353 162.928 72.8267 162.399 73.1745 161.977C73.5564 161.54 74.1108 161.306 74.4435 160.893C74.6047 160.666 74.7114 160.406 74.7552 160.131C74.799 159.856 74.7787 159.575 74.696 159.31C74.5457 158.74 74.3199 158.193 74.0246 157.684C73.7356 157.179 73.5277 156.633 73.4086 156.064C73.3087 155.525 73.4213 154.969 73.7227 154.511C73.9917 154.146 74.3064 153.817 74.6591 153.532C75.1686 153.163 75.5395 152.634 75.7124 152.029C75.7542 151.805 75.7542 151.575 75.7124 151.351C75.7124 151.351 75.7617 151.4 75.8048 151.511C75.8666 151.683 75.8856 151.867 75.8603 152.047C75.727 152.702 75.3644 153.287 74.8377 153.698C74.5128 153.982 74.2214 154.303 73.9691 154.653C73.7138 155.058 73.6255 155.546 73.7227 156.014C73.8495 156.55 74.0572 157.063 74.3387 157.536C74.6497 158.068 74.888 158.64 75.0471 159.236C75.1382 159.548 75.1567 159.877 75.1012 160.197C75.0457 160.517 74.9176 160.821 74.7268 161.084C74.3079 161.577 73.7535 161.792 73.4332 162.168C73.1214 162.533 72.9451 162.994 72.9343 163.474C72.9154 163.894 72.9847 164.314 73.1375 164.706C73.3795 165.291 73.703 165.838 74.0985 166.332C74.2409 166.521 74.3647 166.723 74.4681 166.936Z" fill="#455A64"/>
<path d="M100.155 140.386C99.7153 139.789 99.2113 139.242 98.6524 138.754C98.0317 138.35 97.3687 138.015 96.675 137.756C97.4592 137.769 98.219 138.03 98.8447 138.503C99.4704 138.976 99.9294 139.635 100.155 140.386Z" fill="#2491FF"/>
<path d="M101.024 134.491C101.061 134.491 101.264 134.713 101.431 135.187C101.644 135.818 101.663 136.499 101.486 137.141C101.31 137.783 100.945 138.358 100.439 138.791C100.045 139.117 99.7489 139.216 99.7305 139.185C99.712 139.154 99.9584 138.976 100.279 138.631C100.705 138.19 101.014 137.65 101.178 137.059C101.341 136.468 101.354 135.846 101.215 135.249C101.13 135.002 101.066 134.749 101.024 134.491Z" fill="#455A64"/>
<path opacity="0.3" d="M69.762 210.265C69.762 210.265 85.0696 224.803 94.1679 222.167C103.266 219.53 105.952 212.711 105.952 212.711L106.174 210.247L105.262 209.631L70.224 206.834L69.762 210.265Z" fill="black"/>
<path d="M60.7129 196.652L63.6635 189.112L74.2402 195.759L64.8155 210.29C64.8155 210.29 60.9839 205.288 60.7129 196.652Z" fill="#EB996E"/>
<path d="M72.6448 175.745C77.5728 173.17 83.9423 172.431 83.9423 172.431C85.7903 176.127 91.6238 176.601 95.1535 174.075L98.1349 172.061C98.5463 172.055 98.9577 172.074 99.3669 172.117C102.767 172.436 105.974 173.842 108.513 176.126C111.051 178.411 112.786 181.452 113.461 184.8C114.049 187.427 114.299 190.118 114.206 192.808C113.818 199.541 106.851 200.151 106.851 200.151C106.851 200.151 106.494 206.797 106.02 212.175C105.918 214.048 105.293 215.855 104.216 217.392C103.139 218.928 101.654 220.132 99.9275 220.867C97.4876 222.087 94.8631 222.897 92.1597 223.263C87.9395 223.924 83.6217 223.539 79.5847 222.143C75.5478 220.747 71.9148 218.382 69.0043 215.255C70.0638 208.849 71.074 200.551 71.0001 200.175C70.9881 200.135 70.9881 200.092 71.0001 200.052L64.0948 193.923L60.177 190.634C60.177 190.634 68.801 177.882 72.6325 175.788" fill="#2491FF"/>
<path d="M81.2074 179.872C80.6863 179.576 80.1002 179.413 79.501 179.398C78.8607 179.396 78.2392 179.614 77.7393 180.014C77.4553 180.274 77.1917 180.557 76.9508 180.858C76.676 181.226 76.2819 181.487 75.8358 181.597C75.3742 181.655 74.9082 181.531 74.5361 181.252C74.1788 181.024 73.877 180.778 73.5628 180.599C73.2927 180.44 72.9906 180.343 72.6784 180.315C72.3662 180.288 72.0518 180.33 71.7579 180.439C71.3462 180.579 70.9816 180.83 70.7046 181.166C70.5136 181.406 70.4458 181.566 70.415 181.554C70.4382 181.386 70.5039 181.227 70.606 181.092C70.8641 180.699 71.239 180.397 71.6778 180.229C72.0024 180.09 72.3546 180.028 72.7072 180.047C73.0597 180.067 73.4031 180.167 73.7106 180.34C74.0556 180.525 74.3636 180.778 74.7024 180.987C75.0109 181.219 75.3965 181.325 75.7804 181.283C76.1539 181.187 76.4852 180.97 76.7229 180.667C76.9728 180.354 77.2512 180.065 77.5545 179.804C78.1101 179.375 78.7998 179.157 79.501 179.188C79.9645 179.204 80.4169 179.333 80.8193 179.564C81.1026 179.736 81.2197 179.872 81.2074 179.872Z" fill="#FAFAFA"/>
<path d="M88.2236 189.112C87.8257 188.662 87.3217 188.319 86.7575 188.114C86.1586 187.909 85.5084 187.909 84.9095 188.114C84.5606 188.273 84.223 188.457 83.8993 188.662C83.5202 188.922 83.0636 189.044 82.6057 189.007C82.1491 188.915 81.7468 188.647 81.4846 188.262C81.2197 187.935 81.0102 187.603 80.77 187.332C80.5649 187.095 80.3098 186.908 80.0232 186.782C79.7367 186.656 79.4257 186.596 79.113 186.605C78.6782 186.609 78.2526 186.73 77.881 186.956C77.6222 187.122 77.5052 187.252 77.4806 187.233C77.4559 187.215 77.5606 187.061 77.8132 186.851C78.2843 186.497 78.8699 186.33 79.4569 186.383C80.0439 186.435 80.5907 186.703 80.9918 187.135C81.2566 187.424 81.4722 187.751 81.7248 188.065C81.9467 188.377 82.2756 188.596 82.6488 188.681C83.0373 188.701 83.422 188.596 83.7453 188.379C84.0826 188.162 84.4393 187.976 84.811 187.825C85.4772 187.597 86.2031 187.617 86.8561 187.88C87.2929 188.04 87.6826 188.307 87.9895 188.656C88.1743 188.909 88.2359 189.075 88.2236 189.112Z" fill="#FAFAFA"/>
<path d="M103.814 175.622C103.242 175.444 102.636 175.408 102.046 175.517C101.419 175.65 100.857 175.994 100.451 176.49C100.233 176.804 100.037 177.134 99.8658 177.476C99.673 177.895 99.3427 178.237 98.9295 178.443C98.4893 178.59 98.0099 178.566 97.5866 178.375C97.1924 178.227 96.8413 178.049 96.4963 177.938C96.1979 177.841 95.8817 177.812 95.5706 177.853C95.2596 177.893 94.9614 178.002 94.6976 178.172C94.3278 178.398 94.0257 178.719 93.8229 179.102C93.6874 179.373 93.6504 179.552 93.6258 179.546C93.6011 179.539 93.6258 179.361 93.712 179.047C93.9351 178.501 94.3527 178.057 94.884 177.801C95.4153 177.545 96.0227 177.495 96.5887 177.661C96.9645 177.771 97.3217 177.944 97.6913 178.079C98.0411 178.243 98.4406 178.265 98.8063 178.141C99.1527 177.963 99.4301 177.675 99.5948 177.322C99.7693 176.965 99.9755 176.625 100.211 176.305C100.666 175.769 101.297 175.411 101.991 175.295C102.447 175.21 102.918 175.242 103.359 175.388C103.528 175.425 103.685 175.506 103.814 175.622Z" fill="#FAFAFA"/>
<path d="M96.6197 185.724C96.3133 185.385 95.9372 185.116 95.517 184.936C95.0637 184.759 94.5634 184.744 94.1002 184.892C93.8254 184.998 93.5597 185.126 93.3056 185.274C92.9965 185.466 92.6315 185.546 92.2707 185.502C91.9146 185.416 91.6057 185.195 91.4083 184.886C91.2173 184.621 91.0695 184.356 90.897 184.141C90.7507 183.953 90.5641 183.8 90.3509 183.693C90.1377 183.586 89.9033 183.529 89.665 183.525C89.2094 183.528 88.7652 183.667 88.3899 183.925C88.3899 183.925 88.4515 183.79 88.6486 183.636C89.0249 183.373 89.4858 183.259 89.9413 183.317C90.3968 183.375 90.8143 183.601 91.1126 183.95C91.3097 184.184 91.4699 184.449 91.6485 184.689C91.8008 184.936 92.0405 185.116 92.32 185.194C92.8867 185.293 93.4041 184.782 93.9955 184.615C94.5241 184.461 95.0904 184.503 95.5909 184.732C96.4595 185.12 96.6566 185.736 96.6197 185.724Z" fill="#FAFAFA"/>
<path d="M80.7575 194.237C80.4479 193.899 80.07 193.63 79.6487 193.449C79.1933 193.278 78.693 193.269 78.2319 193.424C77.9576 193.531 77.692 193.658 77.4373 193.806C77.1244 194.005 76.7516 194.088 76.3839 194.04C76.0304 193.951 75.7241 193.731 75.5277 193.424C75.3306 193.159 75.1827 192.894 75.0164 192.685C74.8692 192.498 74.6824 192.345 74.4694 192.239C74.2564 192.132 74.0225 192.074 73.7844 192.069C73.3284 192.068 72.8832 192.208 72.5093 192.469C72.5093 192.469 72.5647 192.334 72.768 192.18C73.0628 191.963 73.4184 191.844 73.7844 191.841C74.0616 191.83 74.3374 191.884 74.5906 191.997C74.8438 192.11 75.0675 192.28 75.2443 192.494C75.4414 192.728 75.5954 192.993 75.7802 193.233C75.9296 193.48 76.1675 193.661 76.4455 193.738C77.0122 193.837 77.5358 193.325 78.1272 193.159C78.6537 193.005 79.2182 193.047 79.7165 193.276C80.5912 193.633 80.7883 194.249 80.7575 194.237Z" fill="#FAFAFA"/>
<path d="M95.5847 194.434C95.1879 194.204 94.7429 194.069 94.2849 194.04C93.7988 194.022 93.3211 194.17 92.9297 194.459C92.7081 194.647 92.5021 194.853 92.3137 195.075C92.0824 195.355 91.7633 195.548 91.4082 195.623C91.0409 195.65 90.6773 195.535 90.3918 195.303C90.1208 195.118 89.899 194.915 89.6649 194.767C89.4653 194.638 89.2397 194.556 89.0043 194.525C88.7689 194.494 88.5296 194.516 88.3036 194.588C87.8731 194.74 87.4978 195.017 87.2256 195.383C87.2256 195.383 87.2256 195.235 87.3796 195.019C87.5911 194.72 87.8903 194.494 88.2358 194.373C88.4942 194.273 88.7721 194.234 89.0478 194.26C89.3236 194.286 89.5896 194.375 89.8251 194.52C90.0838 194.674 90.3179 194.878 90.5705 195.044C90.7921 195.23 91.0768 195.322 91.3651 195.303C91.9318 195.217 92.2583 194.564 92.7634 194.212C93.2142 193.898 93.7623 193.754 94.3096 193.806C94.5557 193.808 94.7981 193.866 95.0188 193.975C95.2396 194.083 95.433 194.24 95.5847 194.434Z" fill="#FAFAFA"/>
<path d="M90.6875 201.198C90.2873 200.975 89.8442 200.841 89.3878 200.804C88.8998 200.786 88.4203 200.934 88.0264 201.223C87.8062 201.412 87.6003 201.618 87.4104 201.839C87.1798 202.119 86.8603 202.312 86.5049 202.387C86.1387 202.413 85.776 202.301 85.4885 202.073C85.2175 201.882 84.9957 201.678 84.7616 201.537C84.563 201.406 84.3376 201.322 84.102 201.29C83.8663 201.258 83.6266 201.279 83.4003 201.352C82.9686 201.501 82.5925 201.778 82.3223 202.147C82.336 202.014 82.3873 201.888 82.4701 201.783C82.7421 201.404 83.1472 201.143 83.6042 201.05C84.0611 200.958 84.5362 201.041 84.9341 201.284C85.199 201.438 85.4331 201.641 85.6856 201.808C85.9073 201.993 86.1919 202.086 86.4803 202.066C87.047 201.98 87.3735 201.327 87.8786 200.976C88.3303 200.663 88.8776 200.519 89.4247 200.57C89.6685 200.575 89.9081 200.634 90.1263 200.743C90.3446 200.851 90.5362 201.007 90.6875 201.198Z" fill="#FAFAFA"/>
<path d="M80.3449 217.99C80.0299 217.655 79.6479 217.391 79.2238 217.214C78.7653 217.052 78.2654 217.052 77.807 217.214C77.534 217.326 77.2704 217.46 77.0185 217.614C76.7127 217.808 76.3494 217.891 75.9898 217.848C75.6312 217.764 75.3196 217.543 75.1212 217.232C74.9241 216.974 74.7701 216.709 74.5976 216.499C74.4496 216.313 74.2626 216.161 74.0498 216.055C73.837 215.949 73.6035 215.89 73.3656 215.883C72.9088 215.89 72.4652 216.038 72.0967 216.308C72.0967 216.308 72.1521 216.167 72.3492 216.007C72.6447 215.79 72.9995 215.67 73.3656 215.662C73.6408 215.645 73.916 215.693 74.1702 215.799C74.4243 215.906 74.6506 216.07 74.8317 216.278C75.0288 216.512 75.189 216.777 75.3738 217.011C75.5284 217.255 75.7709 217.432 76.0514 217.503C76.6181 217.596 77.1294 217.078 77.7208 216.887C78.2473 216.729 78.8132 216.764 79.3162 216.986C80.1663 217.386 80.3757 217.996 80.3449 217.99Z" fill="#FAFAFA"/>
<path d="M92.4493 221.563C92.0574 221.333 91.6203 221.19 91.1681 221.144C90.6822 221.121 90.2025 221.262 89.8067 221.544C89.5849 221.733 89.3789 221.939 89.1907 222.16C88.9556 222.435 88.6342 222.622 88.279 222.69C87.9127 222.716 87.5505 222.599 87.2688 222.364C86.9977 222.173 86.776 221.963 86.5481 221.815C86.35 221.684 86.1253 221.597 85.89 221.562C85.6548 221.527 85.4146 221.544 85.1867 221.612C84.7551 221.758 84.3773 222.031 84.1025 222.394C84.1025 222.394 84.1025 222.247 84.2565 222.037C84.4751 221.749 84.7758 221.535 85.1189 221.421C85.3799 221.329 85.6581 221.297 85.9332 221.327C86.2083 221.357 86.4731 221.448 86.7082 221.594C86.9669 221.754 87.201 221.957 87.4474 222.13C87.6694 222.316 87.9527 222.412 88.2421 222.401C88.8088 222.314 89.1476 221.674 89.6527 221.329C90.1089 221.022 90.6581 220.885 91.205 220.941C91.4451 220.948 91.6808 221.007 91.8956 221.115C92.1105 221.222 92.2994 221.375 92.4493 221.563Z" fill="#FAFAFA"/>
<path d="M52.5571 170.632C52.9267 171.069 66.4726 189.18 66.4726 189.18L64.5691 190.264L50.666 172.4L52.5571 170.632Z" fill="#263238"/>
<path d="M105.416 183.568C105.416 183.568 92.7142 205.479 91.8641 205.88C90.1701 206.674 70.6799 189.827 68.8195 188.219C68.567 187.874 68.0372 187.153 66.9715 185.718C66.9715 185.718 65.4377 178.677 63.793 179.219C62.1483 179.761 64.6923 182.798 63.6267 185.471C62.561 188.145 57.6638 181.775 57.4667 181.196L56.2347 179.546C56.2347 179.546 54.9103 183.297 55.0027 184.868C55.286 189.888 60.0354 195.857 60.0354 195.857C60.0354 195.857 79.3408 220.041 93.9523 220.861C98.1596 221.101 106.198 208.984 111.2 200.028C114.219 194.619 112.814 189.13 107.812 185.478L105.416 183.568Z" fill="#FFBE9D"/>
<path d="M57.3866 185.724C56.5528 184.613 55.9268 183.361 55.5386 182.028C55.5879 182.028 55.9513 182.86 56.4626 183.876C56.9739 184.892 57.4297 185.699 57.3866 185.724Z" fill="#EB996E"/>
<path d="M104.819 177.445C104.32 177.747 92.4985 199.676 92.4985 199.676L107.708 211.584C110.032 205.808 112.047 199.913 113.744 193.923C114.311 191.773 114.022 186.026 113.221 183.808C112.087 180.66 110.375 181.443 107.806 179.601L104.819 177.445Z" fill="#2491FF"/>
<g opacity="0.7">
<path d="M109.814 177.445C109.814 177.445 109.667 177.359 109.383 177.217C108.97 177.007 108.509 176.911 108.047 176.94C107.317 177.008 106.626 177.296 106.063 177.765C105.31 178.367 104.65 179.077 104.104 179.872C103.435 180.866 102.818 181.894 102.256 182.952C101.64 184.067 100.938 185.262 100.223 186.519C98.788 189.026 97.2049 191.785 95.554 194.681C94.5376 196.436 93.5582 198.143 92.6342 199.744L92.5973 199.547L102.884 207.678L105.872 210.074L106.661 210.727C106.757 210.798 106.846 210.879 106.925 210.968C106.82 210.912 106.721 210.846 106.63 210.771L105.804 210.155L102.761 207.826L92.4063 199.818L92.2954 199.732L92.4001 199.584C93.3241 197.982 94.3036 196.276 95.3077 194.514C96.9709 191.625 98.5601 188.878 100.002 186.371L102.059 182.816C102.62 181.758 103.237 180.73 103.907 179.736C104.478 178.92 105.172 178.197 105.964 177.593C106.561 177.118 107.286 176.835 108.047 176.78C108.529 176.762 109.006 176.884 109.42 177.131C109.528 177.191 109.631 177.258 109.728 177.334C109.79 177.408 109.821 177.439 109.814 177.445Z" fill="black"/>
</g>
<path d="M105.274 198.007C104.97 197.666 104.593 197.396 104.172 197.219C103.719 197.043 103.219 197.026 102.755 197.169C102.48 197.277 102.214 197.407 101.96 197.557C101.65 197.746 101.286 197.826 100.925 197.785C100.569 197.699 100.261 197.478 100.063 197.169C99.8721 196.904 99.7243 196.64 99.5518 196.424C99.4055 196.236 99.2189 196.083 99.0057 195.976C98.7925 195.87 98.5581 195.812 98.3198 195.808C97.8642 195.811 97.42 195.95 97.0447 196.208C97.0447 196.208 97.1063 196.073 97.3034 195.913C97.6038 195.703 97.9597 195.587 98.326 195.58C98.6022 195.569 98.8772 195.623 99.1294 195.736C99.3816 195.849 99.6042 196.019 99.7797 196.233C99.9768 196.467 100.137 196.732 100.316 196.972C100.47 197.217 100.709 197.397 100.987 197.477C101.554 197.576 102.071 197.065 102.663 196.898C103.19 196.742 103.757 196.782 104.258 197.009C105.114 197.397 105.336 198.013 105.274 198.007Z" fill="#FAFAFA"/>
<path d="M112.223 195.173C112.027 194.757 111.736 194.392 111.373 194.108C110.983 193.82 110.508 193.67 110.024 193.683C109.731 193.717 109.441 193.77 109.155 193.843C108.805 193.941 108.432 193.92 108.096 193.781C107.776 193.597 107.54 193.297 107.437 192.944C107.326 192.636 107.252 192.328 107.147 192.093C107.056 191.873 106.917 191.676 106.74 191.516C106.563 191.357 106.353 191.238 106.125 191.169C105.685 191.049 105.219 191.064 104.788 191.213C104.788 191.213 104.88 191.096 105.114 191.003C105.457 190.873 105.833 190.855 106.186 190.954C106.456 191.018 106.708 191.144 106.922 191.321C107.135 191.498 107.305 191.723 107.418 191.976C107.541 192.254 107.621 192.549 107.732 192.833C107.812 193.11 107.995 193.346 108.244 193.492C108.761 193.744 109.396 193.393 110.012 193.387C110.561 193.386 111.092 193.578 111.515 193.929C111.718 194.07 111.888 194.255 112.011 194.47C112.133 194.686 112.206 194.926 112.223 195.173Z" fill="#FAFAFA"/>
<path d="M112.58 186.106C112.381 185.693 112.09 185.331 111.73 185.046C111.342 184.756 110.866 184.606 110.381 184.621C110.087 184.649 109.797 184.703 109.512 184.782C109.162 184.881 108.788 184.857 108.453 184.714C108.135 184.531 107.899 184.233 107.794 183.882C107.683 183.574 107.609 183.266 107.504 183.026C107.411 182.807 107.271 182.611 107.094 182.452C106.918 182.292 106.709 182.173 106.482 182.102C106.042 181.982 105.576 181.997 105.145 182.145C105.145 182.145 105.237 182.034 105.471 181.936C105.815 181.808 106.19 181.791 106.543 181.886C106.812 181.953 107.063 182.08 107.276 182.257C107.489 182.434 107.66 182.657 107.775 182.909C107.899 183.186 107.979 183.488 108.089 183.765C108.169 184.044 108.352 184.282 108.601 184.43C109.118 184.677 109.753 184.326 110.369 184.326C110.919 184.319 111.453 184.512 111.872 184.868C112.075 185.008 112.243 185.193 112.366 185.407C112.489 185.621 112.562 185.86 112.58 186.106Z" fill="#FAFAFA"/>
<path d="M109.217 206.976C109.015 206.565 108.724 206.203 108.367 205.916C107.976 205.625 107.498 205.475 107.012 205.491C106.72 205.519 106.431 205.573 106.149 205.652C105.799 205.75 105.426 205.728 105.09 205.59C104.773 205.403 104.537 205.104 104.431 204.752C104.314 204.444 104.246 204.136 104.135 203.896C104.043 203.677 103.904 203.481 103.729 203.322C103.553 203.162 103.345 203.043 103.118 202.972C102.679 202.848 102.211 202.865 101.782 203.021C101.782 203.021 101.874 202.904 102.108 202.806C102.544 202.651 103.021 202.666 103.446 202.846C103.871 203.026 104.214 203.359 104.406 203.779C104.535 204.056 104.615 204.358 104.726 204.635C104.805 204.913 104.985 205.15 105.231 205.3C105.755 205.547 106.389 205.196 107.005 205.196C107.555 205.189 108.089 205.382 108.508 205.738C108.711 205.878 108.88 206.063 109.003 206.277C109.125 206.491 109.198 206.73 109.217 206.976Z" fill="#FAFAFA"/>
</svg>
